# Made in Blockbench 5.1.6
mtllib Lignum Spina.mtl

o cube
v -0.13197459478183488 0.5209004950882725 -0.12614857978182734
v -0.13197459478183488 0.5073459642653988 -0.18728911722771316
v -0.031163755765762052 0.3664101261907315 -0.09189888956750365
v -0.031163755765762052 0.3528555953678578 -0.15303942701338946
v -0.13208001871256148 0.5072803938326168 -0.18727458061273822
v -0.13208001871256148 0.5208349246554905 -0.1261340431668524
v -0.03126917969648865 0.3527900249350758 -0.15302489039841452
v -0.03126917969648865 0.36634455575794944 -0.0918843529525287
vt 0.84375 0.96875
vt 0.84375 0.96875
vt 0.84375 0.875
vt 0.84375 0.875
vt 0.8125 0.96875
vt 0.84375 0.96875
vt 0.84375 0.875
vt 0.8125 0.875
vt 0.875 0.96875
vt 0.875 0.96875
vt 0.875 0.875
vt 0.875 0.875
vt 0.84375 0.96875
vt 0.875 0.96875
vt 0.875 0.875
vt 0.84375 0.875
vt 0.84375 0.96875
vt 0.84375 0.96875
vt 0.84375 1
vt 0.84375 1
vt 0.84375 1
vt 0.84375 1
vt 0.84375 0.96875
vt 0.84375 0.96875
vn 0 -0.2164396139381029 -0.9762960071199335
vn 0.8433914458128857 0.5245634622561082 -0.11629291979968044
vn 0 0.2164396139381029 0.9762960071199335
vn -0.8433914458128857 -0.5245634622561082 0.11629291979968044
vn -0.5372996083468239 0.823399700986228 -0.1825433189304394
vn 0.5372996083468239 -0.823399700986228 0.1825433189304394
usemtl m_b198ac48-81c6-1f4a-b76e-773956d525ac
f 4/4/1 7/3/1 5/2/1 2/1/1
f 3/8/2 4/7/2 2/6/2 1/5/2
f 8/12/3 3/11/3 1/10/3 6/9/3
f 7/16/4 8/15/4 6/14/4 5/13/4
f 6/20/5 1/19/5 2/18/5 5/17/5
f 7/24/6 4/23/6 3/22/6 8/21/6
o cube
v -0.1391998376218587 0.5819647917081071 -0.17182297818210773
v -0.19201722691589065 0.5491140048843184 -0.16454013407965273
v -0.0048077730841093735 0.3760119414989269 -0.12616433053463155
v -0.05762516237814133 0.3431611546751381 -0.11888148643217658
v -0.19201722691589065 0.5491410598360607 -0.16441809707876276
v -0.1391998376218587 0.5819918466598494 -0.17170094118121773
v -0.05762516237814133 0.34318820962688035 -0.1187594494312866
v -0.0048077730841093735 0.3760389964506692 -0.12604229353374158
vt 0.78125 0.78125
vt 0.78125 0.78125
vt 0.78125 0.65625
vt 0.78125 0.65625
vt 0.75 0.78125
vt 0.78125 0.78125
vt 0.78125 0.65625
vt 0.75 0.65625
vt 0.8125 0.78125
vt 0.8125 0.78125
vt 0.8125 0.65625
vt 0.8125 0.65625
vt 0.78125 0.78125
vt 0.8125 0.78125
vt 0.8125 0.65625
vt 0.78125 0.65625
vt 0.78125 0.78125
vt 0.78125 0.78125
vt 0.78125 0.8125
vt 0.78125 0.8125
vt 0.78125 0.8125
vt 0.78125 0.8125
vt 0.78125 0.78125
vt 0.78125 0.78125
vn -0.8433914458128857 -0.5245634622561083 0.11629291979968032
vn 9.71445146547012e-17 -0.21643961393810285 -0.9762960071199335
vn 0.8433914458128857 0.5245634622561083 -0.11629291979968032
vn -9.71445146547012e-17 0.21643961393810285 0.9762960071199335
vn -0.537299608346824 0.8233997009862281 -0.1825433189304394
vn 0.537299608346824 -0.8233997009862281 0.1825433189304394
usemtl m_b198ac48-81c6-1f4a-b76e-773956d525ac
f 12/28/7 15/27/7 13/26/7 10/25/7
f 11/32/8 12/31/8 10/30/8 9/29/8
f 16/36/9 11/35/9 9/34/9 14/33/9
f 15/40/10 16/39/10 14/38/10 13/37/10
f 14/44/11 9/43/11 10/42/11 13/41/11
f 15/48/12 12/47/12 11/46/12 16/45/12
o cube
v 0.1391998376218587 0.5819918466598494 -0.17170094118121773
v 0.19201722691589065 0.5491410598360607 -0.16441809707876276
v 0.0048077730841093735 0.3760389964506692 -0.12604229353374158
v 0.05762516237814133 0.34318820962688035 -0.1187594494312866
v 0.19201722691589065 0.5491140048843184 -0.16454013407965273
v 0.1391998376218587 0.5819647917081071 -0.17182297818210773
v 0.05762516237814133 0.3431611546751381 -0.11888148643217658
v 0.0048077730841093735 0.3760119414989269 -0.12616433053463155
vt 0.21875 0.21875
vt 0.21875 0.21875
vt 0.21875 0.09375
vt 0.21875 0.09375
vt 0.1875 0.21875
vt 0.21875 0.21875
vt 0.21875 0.09375
vt 0.1875 0.09375
vt 0.25 0.21875
vt 0.25 0.21875
vt 0.25 0.09375
vt 0.25 0.09375
vt 0.21875 0.21875
vt 0.25 0.21875
vt 0.25 0.09375
vt 0.21875 0.09375
vt 0.21875 0.21875
vt 0.21875 0.21875
vt 0.21875 0.25
vt 0.21875 0.25
vt 0.21875 0.25
vt 0.21875 0.25
vt 0.21875 0.21875
vt 0.21875 0.21875
vn 0.8433914458128857 -0.5245634622561083 0.11629291979968032
vn 9.71445146547012e-17 0.21643961393810285 0.9762960071199335
vn -0.8433914458128857 0.5245634622561083 -0.11629291979968032
vn -9.71445146547012e-17 -0.21643961393810285 -0.9762960071199335
vn 0.537299608346824 0.8233997009862281 -0.1825433189304394
vn -0.537299608346824 -0.8233997009862281 0.1825433189304394
usemtl m_b198ac48-81c6-1f4a-b76e-773956d525ac
f 20/52/13 23/51/13 21/50/13 18/49/13
f 19/56/14 20/55/14 18/54/14 17/53/14
f 24/60/15 19/59/15 17/58/15 22/57/15
f 23/64/16 24/63/16 22/62/16 21/61/16
f 22/68/17 17/67/17 18/66/17 21/65/17
f 23/72/18 20/71/18 19/70/18 24/69/18
o cube
v 0.13208001871256148 0.5208349246554905 -0.1261340431668524
v 0.13208001871256148 0.5072803938326168 -0.18727458061273822
v 0.03126917969648865 0.36634455575794944 -0.0918843529525287
v 0.03126917969648865 0.3527900249350758 -0.15302489039841452
v 0.13197459478183488 0.5073459642653988 -0.18728911722771316
v 0.13197459478183488 0.5209004950882725 -0.12614857978182734
v 0.031163755765762052 0.3528555953678578 -0.15303942701338946
v 0.031163755765762052 0.3664101261907315 -0.09189888956750365
vt 0.84375 0.84375
vt 0.84375 0.84375
vt 0.84375 0.75
vt 0.84375 0.75
vt 0.8125 0.84375
vt 0.84375 0.84375
vt 0.84375 0.75
vt 0.8125 0.75
vt 0.875 0.84375
vt 0.875 0.84375
vt 0.875 0.75
vt 0.875 0.75
vt 0.84375 0.84375
vt 0.875 0.84375
vt 0.875 0.75
vt 0.84375 0.75
vt 0.84375 0.84375
vt 0.84375 0.84375
vt 0.84375 0.875
vt 0.84375 0.875
vt 0.84375 0.875
vt 0.84375 0.875
vt 0.84375 0.84375
vt 0.84375 0.84375
vn 0 -0.2164396139381029 -0.9762960071199335
vn 0.8433914458128857 -0.5245634622561082 0.11629291979968044
vn 0 0.2164396139381029 0.9762960071199335
vn -0.8433914458128857 0.5245634622561082 -0.11629291979968044
vn 0.5372996083468239 0.823399700986228 -0.1825433189304394
vn -0.5372996083468239 -0.823399700986228 0.1825433189304394
usemtl m_b198ac48-81c6-1f4a-b76e-773956d525ac
f 28/76/19 31/75/19 29/74/19 26/73/19
f 27/80/20 28/79/20 26/78/20 25/77/20
f 32/84/21 27/83/21 25/82/21 30/81/21
f 31/88/22 32/87/22 30/86/22 29/85/22
f 30/92/23 25/91/23 26/90/23 29/89/23
f 31/96/24 28/95/24 27/94/24 32/93/24
o cube
v 0.1391998376218587 0.587099586678334 0.0000624999999999966
v 0.19201722691589068 0.5534511987056141 0.00006249999999998963
v 0.00480777308410936 0.3761463012943859 0.0000624999999999966
v 0.05762516237814134 0.34249791332166607 0.00006249999999998963
v 0.19201722691589068 0.5534511987056141 -0.0000624999999999966
v 0.1391998376218587 0.587099586678334 -0.00006249999999998963
v 0.05762516237814134 0.34249791332166607 -0.0000624999999999966
v 0.00480777308410936 0.3761463012943859 -0.00006249999999998963
vt 0.28125 0.21875
vt 0.28125 0.21875
vt 0.28125 0.09375
vt 0.28125 0.09375
vt 0.25 0.21875
vt 0.28125 0.21875
vt 0.28125 0.09375
vt 0.25 0.09375
vt 0.3125 0.21875
vt 0.3125 0.21875
vt 0.3125 0.09375
vt 0.3125 0.09375
vt 0.28125 0.21875
vt 0.3125 0.21875
vt 0.3125 0.09375
vt 0.28125 0.09375
vt 0.28125 0.21875
vt 0.28125 0.21875
vt 0.28125 0.25
vt 0.28125 0.25
vt 0.28125 0.25
vt 0.28125 0.25
vt 0.28125 0.21875
vt 0.28125 0.21875
vn 0.8433914458128857 -0.5372996083468239 -1.5328749982220887e-16
vn 9.363526019133658e-17 -5.965223963087228e-17 1
vn -0.8433914458128857 0.5372996083468239 1.5328749982220887e-16
vn -9.363526019133658e-17 5.965223963087228e-17 -1
vn 0.5372996083468239 0.8433914458128857 3.39830205604643e-17
vn -0.5372996083468239 -0.8433914458128857 -3.39830205604643e-17
usemtl m_b198ac48-81c6-1f4a-b76e-773956d525ac
f 36/100/25 39/99/25 37/98/25 34/97/25
f 35/104/26 36/103/26 34/102/26 33/101/26
f 40/108/27 35/107/27 33/106/27 38/105/27
f 39/112/28 40/111/28 38/110/28 37/109/28
f 38/116/29 33/115/29 34/114/29 37/113/29
f 39/120/30 36/119/30 35/118/30 40/117/30
o cube
v 0.19924246975591448 0.6229537768297577 0.0313125
v 0.19924246975591448 0.6229537768297577 -0.0313125
v 0.03126917969648865 0.35928852608250433 0.0313125
v 0.03126917969648865 0.35928852608250433 -0.0313125
v 0.19913704582518788 0.623020939280801 -0.0313125
v 0.19913704582518788 0.623020939280801 0.0313125
v 0.031163755765762052 0.35935568853354766 -0.0313125
v 0.031163755765762052 0.35935568853354766 0.0313125
vt 0.03125 0.21875
vt 0.03125 0.21875
vt 0.03125 0.0625
vt 0.03125 0.0625
vt 0 0.21875
vt 0.03125 0.21875
vt 0.03125 0.0625
vt 0 0.0625
vt 0.0625 0.21875
vt 0.0625 0.21875
vt 0.0625 0.0625
vt 0.0625 0.0625
vt 0.03125 0.21875
vt 0.0625 0.21875
vt 0.0625 0.0625
vt 0.03125 0.0625
vt 0.03125 0.21875
vt 0.03125 0.21875
vt 0.03125 0.25
vt 0.03125 0.25
vt 0.03125 0.25
vt 0.03125 0.25
vt 0.03125 0.21875
vt 0.03125 0.21875
vn 0 0 -1
vn 0.8433914458128857 -0.5372996083468239 0
vn 0 0 1
vn -0.8433914458128857 0.5372996083468239 0
vn 0.5372996083468239 0.8433914458128857 0
vn -0.5372996083468239 -0.8433914458128857 0
usemtl m_b198ac48-81c6-1f4a-b76e-773956d525ac
f 44/124/31 47/123/31 45/122/31 42/121/31
f 43/128/32 44/127/32 42/126/32 41/125/32
f 48/132/33 43/131/33 41/130/33 46/129/33
f 47/136/34 48/135/34 46/134/34 45/133/34
f 46/140/35 41/139/35 42/138/35 45/137/35
f 47/144/36 44/143/36 43/142/36 48/141/36
o cube
v -0.19913704582518788 0.623020939280801 0.0313125
v -0.19913704582518788 0.623020939280801 -0.0313125
v -0.031163755765762052 0.35935568853354766 0.0313125
v -0.031163755765762052 0.35935568853354766 -0.0313125
v -0.19924246975591448 0.6229537768297577 -0.0313125
v -0.19924246975591448 0.6229537768297577 0.0313125
v -0.03126917969648865 0.35928852608250433 -0.0313125
v -0.03126917969648865 0.35928852608250433 0.0313125
vt 0.78125 0.96875
vt 0.78125 0.96875
vt 0.78125 0.8125
vt 0.78125 0.8125
vt 0.75 0.96875
vt 0.78125 0.96875
vt 0.78125 0.8125
vt 0.75 0.8125
vt 0.8125 0.96875
vt 0.8125 0.96875
vt 0.8125 0.8125
vt 0.8125 0.8125
vt 0.78125 0.96875
vt 0.8125 0.96875
vt 0.8125 0.8125
vt 0.78125 0.8125
vt 0.78125 0.96875
vt 0.78125 0.96875
vt 0.78125 1
vt 0.78125 1
vt 0.78125 1
vt 0.78125 1
vt 0.78125 0.96875
vt 0.78125 0.96875
vn 0 0 -1
vn 0.8433914458128857 0.5372996083468239 0
vn 0 0 1
vn -0.8433914458128857 -0.5372996083468239 0
vn -0.5372996083468239 0.8433914458128857 0
vn 0.5372996083468239 -0.8433914458128857 0
usemtl m_b198ac48-81c6-1f4a-b76e-773956d525ac
f 52/148/37 55/147/37 53/146/37 50/145/37
f 51/152/38 52/151/38 50/150/38 49/149/38
f 56/156/39 51/155/39 49/154/39 54/153/39
f 55/160/40 56/159/40 54/158/40 53/157/40
f 54/164/41 49/163/41 50/162/41 53/161/41
f 55/168/42 52/167/42 51/166/42 56/165/42
o cube
v -0.1391998376218587 0.587099586678334 -0.00006249999999998963
v -0.19201722691589068 0.5534511987056141 -0.0000624999999999966
v -0.00480777308410936 0.3761463012943859 -0.00006249999999998963
v -0.05762516237814134 0.34249791332166607 -0.0000624999999999966
v -0.19201722691589068 0.5534511987056141 0.00006249999999998963
v -0.1391998376218587 0.587099586678334 0.0000624999999999966
v -0.05762516237814134 0.34249791332166607 0.00006249999999998963
v -0.00480777308410936 0.3761463012943859 0.0000624999999999966
vt 0.34375 0.21875
vt 0.34375 0.21875
vt 0.34375 0.09375
vt 0.34375 0.09375
vt 0.3125 0.21875
vt 0.34375 0.21875
vt 0.34375 0.09375
vt 0.3125 0.09375
vt 0.375 0.21875
vt 0.375 0.21875
vt 0.375 0.09375
vt 0.375 0.09375
vt 0.34375 0.21875
vt 0.375 0.21875
vt 0.375 0.09375
vt 0.34375 0.09375
vt 0.34375 0.21875
vt 0.34375 0.21875
vt 0.34375 0.25
vt 0.34375 0.25
vt 0.34375 0.25
vt 0.34375 0.25
vt 0.34375 0.21875
vt 0.34375 0.21875
vn -0.8433914458128857 -0.5372996083468239 -1.5328749982220887e-16
vn 9.363526019133658e-17 5.965223963087228e-17 -1
vn 0.8433914458128857 0.5372996083468239 1.5328749982220887e-16
vn -9.363526019133658e-17 -5.965223963087228e-17 1
vn -0.5372996083468239 0.8433914458128857 3.39830205604643e-17
vn 0.5372996083468239 -0.8433914458128857 -3.39830205604643e-17
usemtl m_b198ac48-81c6-1f4a-b76e-773956d525ac
f 60/172/43 63/171/43 61/170/43 58/169/43
f 59/176/44 60/175/44 58/174/44 57/173/44
f 64/180/45 59/179/45 57/178/45 62/177/45
f 63/184/46 64/183/46 62/182/46 61/181/46
f 62/188/47 57/187/47 58/186/47 61/185/47
f 63/192/48 60/191/48 59/190/48 64/189/48
o cube
v 0.1391998376218587 0.587099586678334 0.1250625
v 0.19201722691589065 0.5534511987056141 0.1250625
v 0.0048077730841093735 0.3761463012943859 0.1250625
v 0.05762516237814133 0.34249791332166607 0.1250625
v 0.19201722691589065 0.5534511987056141 0.1249375
v 0.1391998376218587 0.587099586678334 0.1249375
v 0.05762516237814133 0.34249791332166607 0.1249375
v 0.0048077730841093735 0.3761463012943859 0.1249375
vt 0.78125 0.625
vt 0.78125 0.625
vt 0.78125 0.5
vt 0.78125 0.5
vt 0.75 0.625
vt 0.78125 0.625
vt 0.78125 0.5
vt 0.75 0.5
vt 0.8125 0.625
vt 0.8125 0.625
vt 0.8125 0.5
vt 0.8125 0.5
vt 0.78125 0.625
vt 0.8125 0.625
vt 0.8125 0.5
vt 0.78125 0.5
vt 0.78125 0.625
vt 0.78125 0.625
vt 0.78125 0.65625
vt 0.78125 0.65625
vt 0.78125 0.65625
vt 0.78125 0.65625
vt 0.78125 0.625
vt 0.78125 0.625
vn 0.8433914458128857 -0.5372996083468239 -1.5328749982220887e-16
vn 9.363526019133658e-17 -5.965223963087228e-17 1
vn -0.8433914458128857 0.5372996083468239 1.5328749982220887e-16
vn -9.363526019133658e-17 5.965223963087228e-17 -1
vn 0.5372996083468239 0.8433914458128857 3.39830205604643e-17
vn -0.5372996083468239 -0.8433914458128857 -3.39830205604643e-17
usemtl m_b198ac48-81c6-1f4a-b76e-773956d525ac
f 68/196/49 71/195/49 69/194/49 66/193/49
f 67/200/50 68/199/50 66/198/50 65/197/50
f 72/204/51 67/203/51 65/202/51 70/201/51
f 71/208/52 72/207/52 70/206/52 69/205/52
f 70/212/53 65/211/53 66/210/53 69/209/53
f 71/216/54 68/215/54 67/214/54 72/213/54
o cube
v 0.19924246975591448 0.6229537768297577 0.1563125
v 0.19924246975591448 0.6229537768297577 0.0936875
v 0.03126917969648865 0.35928852608250433 0.1563125
v 0.03126917969648865 0.35928852608250433 0.0936875
v 0.19913704582518788 0.623020939280801 0.0936875
v 0.19913704582518788 0.623020939280801 0.1563125
v 0.031163755765762052 0.35935568853354766 0.0936875
v 0.031163755765762052 0.35935568853354766 0.1563125
vt 0.09375 0.21875
vt 0.09375 0.21875
vt 0.09375 0.0625
vt 0.09375 0.0625
vt 0.0625 0.21875
vt 0.09375 0.21875
vt 0.09375 0.0625
vt 0.0625 0.0625
vt 0.125 0.21875
vt 0.125 0.21875
vt 0.125 0.0625
vt 0.125 0.0625
vt 0.09375 0.21875
vt 0.125 0.21875
vt 0.125 0.0625
vt 0.09375 0.0625
vt 0.09375 0.21875
vt 0.09375 0.21875
vt 0.09375 0.25
vt 0.09375 0.25
vt 0.09375 0.25
vt 0.09375 0.25
vt 0.09375 0.21875
vt 0.09375 0.21875
vn 0 0 -1
vn 0.8433914458128857 -0.5372996083468239 0
vn 0 0 1
vn -0.8433914458128857 0.5372996083468239 0
vn 0.5372996083468239 0.8433914458128857 0
vn -0.5372996083468239 -0.8433914458128857 0
usemtl m_b198ac48-81c6-1f4a-b76e-773956d525ac
f 76/220/55 79/219/55 77/218/55 74/217/55
f 75/224/56 76/223/56 74/222/56 73/221/56
f 80/228/57 75/227/57 73/226/57 78/225/57
f 79/232/58 80/231/58 78/230/58 77/229/58
f 78/236/59 73/235/59 74/234/59 77/233/59
f 79/240/60 76/239/60 75/238/60 80/237/60
o cube
v -0.19913704582518788 0.623020939280801 0.1563125
v -0.19913704582518788 0.623020939280801 0.0936875
v -0.031163755765762052 0.35935568853354766 0.1563125
v -0.031163755765762052 0.35935568853354766 0.0936875
v -0.19924246975591448 0.6229537768297577 0.0936875
v -0.19924246975591448 0.6229537768297577 0.1563125
v -0.03126917969648865 0.35928852608250433 0.0936875
v -0.03126917969648865 0.35928852608250433 0.1563125
vt 0.15625 0.21875
vt 0.15625 0.21875
vt 0.15625 0.0625
vt 0.15625 0.0625
vt 0.125 0.21875
vt 0.15625 0.21875
vt 0.15625 0.0625
vt 0.125 0.0625
vt 0.1875 0.21875
vt 0.1875 0.21875
vt 0.1875 0.0625
vt 0.1875 0.0625
vt 0.15625 0.21875
vt 0.1875 0.21875
vt 0.1875 0.0625
vt 0.15625 0.0625
vt 0.15625 0.21875
vt 0.15625 0.21875
vt 0.15625 0.25
vt 0.15625 0.25
vt 0.15625 0.25
vt 0.15625 0.25
vt 0.15625 0.21875
vt 0.15625 0.21875
vn 0 0 -1
vn 0.8433914458128857 0.5372996083468239 0
vn 0 0 1
vn -0.8433914458128857 -0.5372996083468239 0
vn -0.5372996083468239 0.8433914458128857 0
vn 0.5372996083468239 -0.8433914458128857 0
usemtl m_b198ac48-81c6-1f4a-b76e-773956d525ac
f 84/244/61 87/243/61 85/242/61 82/241/61
f 83/248/62 84/247/62 82/246/62 81/245/62
f 88/252/63 83/251/63 81/250/63 86/249/63
f 87/256/64 88/255/64 86/254/64 85/253/64
f 86/260/65 81/259/65 82/258/65 85/257/65
f 87/264/66 84/263/66 83/262/66 88/261/66
o cube
v -0.1391998376218587 0.587099586678334 0.1249375
v -0.19201722691589065 0.5534511987056141 0.1249375
v -0.0048077730841093735 0.3761463012943859 0.1249375
v -0.05762516237814133 0.34249791332166607 0.1249375
v -0.19201722691589065 0.5534511987056141 0.1250625
v -0.1391998376218587 0.587099586678334 0.1250625
v -0.05762516237814133 0.34249791332166607 0.1250625
v -0.0048077730841093735 0.3761463012943859 0.1250625
vt 0.78125 0.46875
vt 0.78125 0.46875
vt 0.78125 0.34375
vt 0.78125 0.34375
vt 0.75 0.46875
vt 0.78125 0.46875
vt 0.78125 0.34375
vt 0.75 0.34375
vt 0.8125 0.46875
vt 0.8125 0.46875
vt 0.8125 0.34375
vt 0.8125 0.34375
vt 0.78125 0.46875
vt 0.8125 0.46875
vt 0.8125 0.34375
vt 0.78125 0.34375
vt 0.78125 0.46875
vt 0.78125 0.46875
vt 0.78125 0.5
vt 0.78125 0.5
vt 0.78125 0.5
vt 0.78125 0.5
vt 0.78125 0.46875
vt 0.78125 0.46875
vn -0.8433914458128857 -0.5372996083468239 -1.5328749982220887e-16
vn 9.363526019133658e-17 5.965223963087228e-17 -1
vn 0.8433914458128857 0.5372996083468239 1.5328749982220887e-16
vn -9.363526019133658e-17 -5.965223963087228e-17 1
vn -0.5372996083468239 0.8433914458128857 3.39830205604643e-17
vn 0.5372996083468239 -0.8433914458128857 -3.39830205604643e-17
usemtl m_b198ac48-81c6-1f4a-b76e-773956d525ac
f 92/268/67 95/267/67 93/266/67 90/265/67
f 91/272/68 92/271/68 90/270/68 89/269/68
f 96/276/69 91/275/69 89/274/69 94/273/69
f 95/280/70 96/279/70 94/278/70 93/277/70
f 94/284/71 89/283/71 90/282/71 93/281/71
f 95/288/72 92/287/72 91/286/72 96/285/72
o cube
v -0.09839336926015839 0.3949725636619885 0.5117138338931846
v -0.09839336926015839 0.4308927879884728 0.4604144371195864
v -0.031163755765762025 0.3085279770619326 0.45118468271840334
v -0.031163755765762025 0.3444482013884169 0.3998852859448052
v -0.09849879319088499 0.4308377717294012 0.46037591432026037
v -0.09849879319088499 0.3949175474029169 0.5116753110938586
v -0.031269179696488625 0.34439318512934525 0.3998467631454792
v -0.031269179696488625 0.308472960802861 0.4511461599190773
vt 0.90625 0.96875
vt 0.90625 0.96875
vt 0.90625 0.90625
vt 0.90625 0.90625
vt 0.875 0.96875
vt 0.90625 0.96875
vt 0.90625 0.90625
vt 0.875 0.90625
vt 0.9375 0.96875
vt 0.9375 0.96875
vt 0.9375 0.90625
vt 0.9375 0.90625
vt 0.90625 0.96875
vt 0.9375 0.96875
vt 0.9375 0.90625
vt 0.90625 0.90625
vt 0.90625 0.96875
vt 0.90625 0.96875
vt 0.90625 1
vt 0.90625 1
vt 0.90625 1
vt 0.90625 1
vt 0.90625 0.96875
vt 0.90625 0.96875
vn -2.7755575615628914e-17 0.573576436351046 -0.8191520442889919
vn 0.8433914458128858 0.44013007257297554 0.30818239460838404
vn 2.7755575615628914e-17 -0.573576436351046 0.8191520442889919
vn -0.8433914458128858 -0.44013007257297554 -0.30818239460838404
vn -0.5372996083468239 0.6908658269734739 0.4837494599383115
vn 0.5372996083468239 -0.6908658269734739 -0.4837494599383115
usemtl m_b198ac48-81c6-1f4a-b76e-773956d525ac
f 100/292/73 103/291/73 101/290/73 98/289/73
f 99/296/74 100/295/74 98/294/74 97/293/74
f 104/300/75 99/299/75 97/298/75 102/297/75
f 103/304/76 104/303/76 102/302/76 101/301/76
f 102/308/77 97/307/77 98/306/77 101/305/77
f 103/312/78 100/311/78 99/310/78 104/309/78
o cube
v -0.07203738657850568 0.4267225891204081 0.4956436383351295
v -0.1248547758725377 0.3991594433255255 0.4763437158727794
v -0.004807773084109318 0.3402780025203522 0.43511448716034823
v -0.05762516237814133 0.3127148567254696 0.41581456469799816
v -0.1248547758725377 0.39908774627098165 0.4764461098783155
v -0.07203738657850568 0.42665089206586426 0.49574603234066555
v -0.05762516237814133 0.3126431596709257 0.4159169587035343
v -0.004807773084109318 0.3402063054658083 0.4352168811658843
vt 0.90625 0.875
vt 0.90625 0.875
vt 0.90625 0.8125
vt 0.90625 0.8125
vt 0.875 0.875
vt 0.90625 0.875
vt 0.90625 0.8125
vt 0.875 0.8125
vt 0.9375 0.875
vt 0.9375 0.875
vt 0.9375 0.8125
vt 0.9375 0.8125
vt 0.90625 0.875
vt 0.9375 0.875
vt 0.9375 0.8125
vt 0.90625 0.8125
vt 0.90625 0.875
vt 0.90625 0.875
vt 0.90625 0.90625
vt 0.90625 0.90625
vt 0.90625 0.90625
vt 0.90625 0.90625
vt 0.90625 0.875
vt 0.90625 0.875
vn -0.8433914458128857 -0.4401300725729753 -0.3081823946083841
vn 8.326672684688674e-17 0.5735764363510462 -0.8191520442889919
vn 0.8433914458128857 0.4401300725729753 0.3081823946083841
vn -8.326672684688674e-17 -0.5735764363510462 0.8191520442889919
vn -0.537299608346824 0.6908658269734738 0.4837494599383115
vn 0.537299608346824 -0.6908658269734738 -0.4837494599383115
usemtl m_b198ac48-81c6-1f4a-b76e-773956d525ac
f 108/316/79 111/315/79 109/314/79 106/313/79
f 107/320/80 108/319/80 106/318/80 105/317/80
f 112/324/81 107/323/81 105/322/81 110/321/81
f 111/328/82 112/327/82 110/326/82 109/325/82
f 110/332/83 105/331/83 106/330/83 109/329/83
f 111/336/84 108/335/84 107/334/84 112/333/84
o cube
v 0.13919983762185867 0.587099586678334 0.2500625
v 0.19201722691589065 0.5534511987056141 0.25006249999999997
v 0.004807773084109346 0.3761463012943859 0.2500625
v 0.05762516237814133 0.34249791332166607 0.25006249999999997
v 0.19201722691589065 0.5534511987056141 0.2499375
v 0.13919983762185867 0.587099586678334 0.2499375
v 0.05762516237814133 0.34249791332166607 0.2499375
v 0.004807773084109346 0.3761463012943859 0.2499375
vt 0.78125 0.3125
vt 0.78125 0.3125
vt 0.78125 0.1875
vt 0.78125 0.1875
vt 0.75 0.3125
vt 0.78125 0.3125
vt 0.78125 0.1875
vt 0.75 0.1875
vt 0.8125 0.3125
vt 0.8125 0.3125
vt 0.8125 0.1875
vt 0.8125 0.1875
vt 0.78125 0.3125
vt 0.8125 0.3125
vt 0.8125 0.1875
vt 0.78125 0.1875
vt 0.78125 0.3125
vt 0.78125 0.3125
vt 0.78125 0.34375
vt 0.78125 0.34375
vt 0.78125 0.34375
vt 0.78125 0.34375
vt 0.78125 0.3125
vt 0.78125 0.3125
vn 0.8433914458128857 -0.5372996083468239 -1.5328749982220887e-16
vn 9.363526019133658e-17 -5.965223963087228e-17 1
vn -0.8433914458128857 0.5372996083468239 1.5328749982220887e-16
vn -9.363526019133658e-17 5.965223963087228e-17 -1
vn 0.5372996083468239 0.8433914458128857 3.39830205604643e-17
vn -0.5372996083468239 -0.8433914458128857 -3.39830205604643e-17
usemtl m_b198ac48-81c6-1f4a-b76e-773956d525ac
f 116/340/85 119/339/85 117/338/85 114/337/85
f 115/344/86 116/343/86 114/342/86 113/341/86
f 120/348/87 115/347/87 113/346/87 118/345/87
f 119/352/88 120/351/88 118/350/88 117/349/88
f 118/356/89 113/355/89 114/354/89 117/353/89
f 119/360/90 116/359/90 115/358/90 120/357/90
o cube
v 0.13208001871256148 0.517529846103147 0.2813125
v 0.13208001871256148 0.517529846103147 0.2186875
v 0.03126917969648865 0.35928852608250433 0.2813125
v 0.03126917969648865 0.35928852608250433 0.2186875
v 0.13197459478183488 0.5175970085541903 0.2186875
v 0.13197459478183488 0.5175970085541903 0.2813125
v 0.031163755765762052 0.35935568853354766 0.2186875
v 0.031163755765762052 0.35935568853354766 0.2813125
vt 0.84375 0.71875
vt 0.84375 0.71875
vt 0.84375 0.625
vt 0.84375 0.625
vt 0.8125 0.71875
vt 0.84375 0.71875
vt 0.84375 0.625
vt 0.8125 0.625
vt 0.875 0.71875
vt 0.875 0.71875
vt 0.875 0.625
vt 0.875 0.625
vt 0.84375 0.71875
vt 0.875 0.71875
vt 0.875 0.625
vt 0.84375 0.625
vt 0.84375 0.71875
vt 0.84375 0.71875
vt 0.84375 0.75
vt 0.84375 0.75
vt 0.84375 0.75
vt 0.84375 0.75
vt 0.84375 0.71875
vt 0.84375 0.71875
vn 0 0 -1
vn 0.8433914458128857 -0.5372996083468239 0
vn 0 0 1
vn -0.8433914458128857 0.5372996083468239 0
vn 0.5372996083468239 0.8433914458128857 0
vn -0.5372996083468239 -0.8433914458128857 0
usemtl m_b198ac48-81c6-1f4a-b76e-773956d525ac
f 124/364/91 127/363/91 125/362/91 122/361/91
f 123/368/92 124/367/92 122/366/92 121/365/92
f 128/372/93 123/371/93 121/370/93 126/369/93
f 127/376/94 128/375/94 126/374/94 125/373/94
f 126/380/95 121/379/95 122/378/95 125/377/95
f 127/384/96 124/383/96 123/382/96 128/381/96
o cube
v 0.10561861210018218 0.5016159118946999 0.40280206533712015
v 0.15843600139421418 0.4705288549447051 0.3899253847341675
v 0.004807773084109346 0.3554199951300596 0.34224573384963797
v 0.05762516237814136 0.3243329381800648 0.32936905324668536
v 0.15843600139421418 0.4705766903737507 0.3898098997926036
v 0.10561861210018218 0.5016637473237455 0.4026865803955562
v 0.05762516237814136 0.32438077360911044 0.3292535683051214
v 0.004807773084109346 0.35546783055910525 0.3421302489080741
vt 0.84375 0.46875
vt 0.84375 0.46875
vt 0.84375 0.375
vt 0.84375 0.375
vt 0.8125 0.46875
vt 0.84375 0.46875
vt 0.84375 0.375
vt 0.8125 0.375
vt 0.875 0.46875
vt 0.875 0.46875
vt 0.875 0.375
vt 0.875 0.375
vt 0.84375 0.46875
vt 0.875 0.46875
vt 0.875 0.375
vt 0.84375 0.375
vt 0.84375 0.46875
vt 0.84375 0.46875
vt 0.84375 0.5
vt 0.84375 0.5
vt 0.84375 0.5
vt 0.84375 0.5
vt 0.84375 0.46875
vt 0.84375 0.46875
vn 0.8433914458128857 -0.49640011097796116 -0.20561565833058115
vn 1.1102230246251565e-16 -0.38268343236508984 0.9238795325112868
vn -0.8433914458128857 0.49640011097796116 0.20561565833058115
vn -1.1102230246251565e-16 0.38268343236508984 -0.9238795325112868
vn 0.5372996083468239 0.7791920946816271 0.32275193331103075
vn -0.5372996083468239 -0.7791920946816271 -0.32275193331103075
usemtl m_b198ac48-81c6-1f4a-b76e-773956d525ac
f 132/388/97 135/387/97 133/386/97 130/385/97
f 131/392/98 132/391/98 130/390/98 129/389/98
f 136/396/99 131/395/99 129/394/99 134/393/99
f 135/400/100 136/399/100 134/398/100 133/397/100
f 134/404/101 129/403/101 130/402/101 133/401/101
f 135/408/102 132/407/102 131/406/102 136/405/102
o cube
v 0.13208001871256148 0.4740825011513573 0.4252221094479759
v 0.13208001871256148 0.49804805110322103 0.3673641537244565
v 0.03126917969648865 0.32788658438671703 0.36466577796049376
v 0.03126917969648865 0.35185213433858076 0.3068078222369744
v 0.13197459478183488 0.4981101011170933 0.3673898556817478
v 0.13197459478183488 0.4741445511652295 0.4252478114052672
v 0.031163755765762052 0.35191418435245303 0.3068335241942657
v 0.031163755765762052 0.3279486344005893 0.36469147991778506
vt 0.84375 0.34375
vt 0.84375 0.34375
vt 0.84375 0.25
vt 0.84375 0.25
vt 0.8125 0.34375
vt 0.84375 0.34375
vt 0.84375 0.25
vt 0.8125 0.25
vt 0.875 0.34375
vt 0.875 0.34375
vt 0.875 0.25
vt 0.875 0.25
vt 0.84375 0.34375
vt 0.875 0.34375
vt 0.875 0.25
vt 0.84375 0.25
vt 0.84375 0.34375
vt 0.84375 0.34375
vt 0.84375 0.375
vt 0.84375 0.375
vt 0.84375 0.375
vt 0.84375 0.375
vt 0.84375 0.34375
vt 0.84375 0.34375
vn 0 0.3826834323650898 -0.9238795325112868
vn 0.8433914458128858 -0.4964001109779612 -0.20561565833058104
vn 0 -0.3826834323650898 0.9238795325112868
vn -0.8433914458128858 0.4964001109779612 0.20561565833058104
vn 0.5372996083468239 0.7791920946816271 0.3227519333110307
vn -0.5372996083468239 -0.7791920946816271 -0.3227519333110307
usemtl m_b198ac48-81c6-1f4a-b76e-773956d525ac
f 140/412/103 143/411/103 141/410/103 138/409/103
f 139/416/104 140/415/104 138/414/104 137/413/104
f 144/420/105 139/419/105 137/418/105 142/417/105
f 143/424/106 144/423/106 142/422/106 141/421/106
f 142/428/107 137/427/107 138/426/107 141/425/107
f 143/432/108 140/431/108 139/430/108 144/429/108
o cube
v -0.13197459478183488 0.5175970085541903 0.2813125
v -0.13197459478183488 0.5175970085541903 0.2186875
v -0.031163755765762052 0.35935568853354766 0.2813125
v -0.031163755765762052 0.35935568853354766 0.2186875
v -0.13208001871256148 0.517529846103147 0.2186875
v -0.13208001871256148 0.517529846103147 0.2813125
v -0.03126917969648865 0.35928852608250433 0.2186875
v -0.03126917969648865 0.35928852608250433 0.2813125
vt 0.84375 0.59375
vt 0.84375 0.59375
vt 0.84375 0.5
vt 0.84375 0.5
vt 0.8125 0.59375
vt 0.84375 0.59375
vt 0.84375 0.5
vt 0.8125 0.5
vt 0.875 0.59375
vt 0.875 0.59375
vt 0.875 0.5
vt 0.875 0.5
vt 0.84375 0.59375
vt 0.875 0.59375
vt 0.875 0.5
vt 0.84375 0.5
vt 0.84375 0.59375
vt 0.84375 0.59375
vt 0.84375 0.625
vt 0.84375 0.625
vt 0.84375 0.625
vt 0.84375 0.625
vt 0.84375 0.59375
vt 0.84375 0.59375
vn 0 0 -1
vn 0.8433914458128857 0.5372996083468239 0
vn 0 0 1
vn -0.8433914458128857 -0.5372996083468239 0
vn -0.5372996083468239 0.8433914458128857 0
vn 0.5372996083468239 -0.8433914458128857 0
usemtl m_b198ac48-81c6-1f4a-b76e-773956d525ac
f 148/436/109 151/435/109 149/434/109 146/433/109
f 147/440/110 148/439/110 146/438/110 145/437/110
f 152/444/111 147/443/111 145/442/111 150/441/111
f 151/448/112 152/447/112 150/446/112 149/445/112
f 150/452/113 145/451/113 146/450/113 149/449/113
f 151/456/114 148/455/114 147/454/114 152/453/114
o cube
v -0.13919983762185867 0.587099586678334 0.2499375
v -0.19201722691589065 0.5534511987056141 0.2499375
v -0.004807773084109346 0.3761463012943859 0.2499375
v -0.05762516237814133 0.34249791332166607 0.2499375
v -0.19201722691589065 0.5534511987056141 0.25006249999999997
v -0.13919983762185867 0.587099586678334 0.2500625
v -0.05762516237814133 0.34249791332166607 0.25006249999999997
v -0.004807773084109346 0.3761463012943859 0.2500625
vt 0.65625 0.1875
vt 0.65625 0.1875
vt 0.65625 0.0625
vt 0.65625 0.0625
vt 0.625 0.1875
vt 0.65625 0.1875
vt 0.65625 0.0625
vt 0.625 0.0625
vt 0.6875 0.1875
vt 0.6875 0.1875
vt 0.6875 0.0625
vt 0.6875 0.0625
vt 0.65625 0.1875
vt 0.6875 0.1875
vt 0.6875 0.0625
vt 0.65625 0.0625
vt 0.65625 0.1875
vt 0.65625 0.1875
vt 0.65625 0.21875
vt 0.65625 0.21875
vt 0.65625 0.21875
vt 0.65625 0.21875
vt 0.65625 0.1875
vt 0.65625 0.1875
vn -0.8433914458128857 -0.5372996083468239 -1.5328749982220887e-16
vn 9.363526019133658e-17 5.965223963087228e-17 -1
vn 0.8433914458128857 0.5372996083468239 1.5328749982220887e-16
vn -9.363526019133658e-17 -5.965223963087228e-17 1
vn -0.5372996083468239 0.8433914458128857 3.39830205604643e-17
vn 0.5372996083468239 -0.8433914458128857 -3.39830205604643e-17
usemtl m_b198ac48-81c6-1f4a-b76e-773956d525ac
f 156/460/115 159/459/115 157/458/115 154/457/115
f 155/464/116 156/463/116 154/462/116 153/461/116
f 160/468/117 155/467/117 153/466/117 158/465/117
f 159/472/118 160/471/118 158/470/118 157/469/118
f 158/476/119 153/475/119 154/474/119 157/473/119
f 159/480/120 156/479/120 155/478/120 160/477/120
o cube
v 0.07203738657850568 0.42665089206586426 0.49574603234066555
v 0.1248547758725377 0.39908774627098165 0.4764461098783155
v 0.004807773084109318 0.3402063054658083 0.4352168811658843
v 0.05762516237814133 0.3126431596709257 0.4159169587035343
v 0.1248547758725377 0.3991594433255255 0.4763437158727794
v 0.07203738657850568 0.4267225891204081 0.4956436383351295
v 0.05762516237814133 0.3127148567254696 0.41581456469799816
v 0.004807773084109318 0.3402780025203522 0.43511448716034823
vt 0.90625 0.78125
vt 0.90625 0.78125
vt 0.90625 0.71875
vt 0.90625 0.71875
vt 0.875 0.78125
vt 0.90625 0.78125
vt 0.90625 0.71875
vt 0.875 0.71875
vt 0.9375 0.78125
vt 0.9375 0.78125
vt 0.9375 0.71875
vt 0.9375 0.71875
vt 0.90625 0.78125
vt 0.9375 0.78125
vt 0.9375 0.71875
vt 0.90625 0.71875
vt 0.90625 0.78125
vt 0.90625 0.78125
vt 0.90625 0.8125
vt 0.90625 0.8125
vt 0.90625 0.8125
vt 0.90625 0.8125
vt 0.90625 0.78125
vt 0.90625 0.78125
vn 0.8433914458128857 -0.4401300725729753 -0.3081823946083841
vn 8.326672684688674e-17 -0.5735764363510462 0.8191520442889919
vn -0.8433914458128857 0.4401300725729753 0.3081823946083841
vn -8.326672684688674e-17 0.5735764363510462 -0.8191520442889919
vn 0.537299608346824 0.6908658269734738 0.4837494599383115
vn -0.537299608346824 -0.6908658269734738 -0.4837494599383115
usemtl m_b198ac48-81c6-1f4a-b76e-773956d525ac
f 164/484/121 167/483/121 165/482/121 162/481/121
f 163/488/122 164/487/122 162/486/122 161/485/122
f 168/492/123 163/491/123 161/490/123 166/489/123
f 167/496/124 168/495/124 166/494/124 165/493/124
f 166/500/125 161/499/125 162/498/125 165/497/125
f 167/504/126 164/503/126 163/502/126 168/501/126
o cube
v 0.09849879319088499 0.3949175474029169 0.5116753110938586
v 0.09849879319088499 0.4308377717294012 0.46037591432026037
v 0.031269179696488625 0.308472960802861 0.4511461599190773
v 0.031269179696488625 0.34439318512934525 0.3998467631454792
v 0.09839336926015839 0.4308927879884728 0.4604144371195864
v 0.09839336926015839 0.3949725636619885 0.5117138338931846
v 0.031163755765762025 0.3444482013884169 0.3998852859448052
v 0.031163755765762025 0.3085279770619326 0.45118468271840334
vt 0.90625 0.6875
vt 0.90625 0.6875
vt 0.90625 0.625
vt 0.90625 0.625
vt 0.875 0.6875
vt 0.90625 0.6875
vt 0.90625 0.625
vt 0.875 0.625
vt 0.9375 0.6875
vt 0.9375 0.6875
vt 0.9375 0.625
vt 0.9375 0.625
vt 0.90625 0.6875
vt 0.9375 0.6875
vt 0.9375 0.625
vt 0.90625 0.625
vt 0.90625 0.6875
vt 0.90625 0.6875
vt 0.90625 0.71875
vt 0.90625 0.71875
vt 0.90625 0.71875
vt 0.90625 0.71875
vt 0.90625 0.6875
vt 0.90625 0.6875
vn 2.7755575615628914e-17 0.573576436351046 -0.8191520442889919
vn 0.8433914458128858 -0.44013007257297554 -0.30818239460838404
vn -2.7755575615628914e-17 -0.573576436351046 0.8191520442889919
vn -0.8433914458128858 0.44013007257297554 0.30818239460838404
vn 0.5372996083468239 0.6908658269734739 0.4837494599383115
vn -0.5372996083468239 -0.6908658269734739 -0.4837494599383115
usemtl m_b198ac48-81c6-1f4a-b76e-773956d525ac
f 172/508/127 175/507/127 173/506/127 170/505/127
f 171/512/128 172/511/128 170/510/128 169/509/128
f 176/516/129 171/515/129 169/514/129 174/513/129
f 175/520/130 176/519/130 174/518/130 173/517/130
f 174/524/131 169/523/131 170/522/131 173/521/131
f 175/528/132 172/527/132 171/526/132 176/525/132
o cube
v -0.10561861210018218 0.5016637473237455 0.4026865803955562
v -0.15843600139421418 0.4705766903737507 0.3898098997926036
v -0.004807773084109346 0.35546783055910525 0.3421302489080741
v -0.05762516237814136 0.32438077360911044 0.3292535683051214
v -0.15843600139421418 0.4705288549447051 0.3899253847341675
v -0.10561861210018218 0.5016159118946999 0.40280206533712015
v -0.05762516237814136 0.3243329381800648 0.32936905324668536
v -0.004807773084109346 0.3554199951300596 0.34224573384963797
vt 0.78125 0.15625
vt 0.78125 0.15625
vt 0.78125 0.0625
vt 0.78125 0.0625
vt 0.75 0.15625
vt 0.78125 0.15625
vt 0.78125 0.0625
vt 0.75 0.0625
vt 0.8125 0.15625
vt 0.8125 0.15625
vt 0.8125 0.0625
vt 0.8125 0.0625
vt 0.78125 0.15625
vt 0.8125 0.15625
vt 0.8125 0.0625
vt 0.78125 0.0625
vt 0.78125 0.15625
vt 0.78125 0.15625
vt 0.78125 0.1875
vt 0.78125 0.1875
vt 0.78125 0.1875
vt 0.78125 0.1875
vt 0.78125 0.15625
vt 0.78125 0.15625
vn -0.8433914458128857 -0.49640011097796116 -0.20561565833058115
vn 1.1102230246251565e-16 0.38268343236508984 -0.9238795325112868
vn 0.8433914458128857 0.49640011097796116 0.20561565833058115
vn -1.1102230246251565e-16 -0.38268343236508984 0.9238795325112868
vn -0.5372996083468239 0.7791920946816271 0.32275193331103075
vn 0.5372996083468239 -0.7791920946816271 -0.32275193331103075
usemtl m_b198ac48-81c6-1f4a-b76e-773956d525ac
f 180/532/133 183/531/133 181/530/133 178/529/133
f 179/536/134 180/535/134 178/534/134 177/533/134
f 184/540/135 179/539/135 177/538/135 182/537/135
f 183/544/136 184/543/136 182/542/136 181/541/136
f 182/548/137 177/547/137 178/546/137 181/545/137
f 183/552/138 180/551/138 179/550/138 184/549/138
o cube
v -0.13197459478183488 0.4741445511652295 0.4252478114052672
v -0.13197459478183488 0.4981101011170933 0.3673898556817478
v -0.031163755765762052 0.3279486344005893 0.36469147991778506
v -0.031163755765762052 0.35191418435245303 0.3068335241942657
v -0.13208001871256148 0.49804805110322103 0.3673641537244565
v -0.13208001871256148 0.4740825011513573 0.4252221094479759
v -0.03126917969648865 0.35185213433858076 0.3068078222369744
v -0.03126917969648865 0.32788658438671703 0.36466577796049376
vt 0.84375 0.21875
vt 0.84375 0.21875
vt 0.84375 0.125
vt 0.84375 0.125
vt 0.8125 0.21875
vt 0.84375 0.21875
vt 0.84375 0.125
vt 0.8125 0.125
vt 0.875 0.21875
vt 0.875 0.21875
vt 0.875 0.125
vt 0.875 0.125
vt 0.84375 0.21875
vt 0.875 0.21875
vt 0.875 0.125
vt 0.84375 0.125
vt 0.84375 0.21875
vt 0.84375 0.21875
vt 0.84375 0.25
vt 0.84375 0.25
vt 0.84375 0.25
vt 0.84375 0.25
vt 0.84375 0.21875
vt 0.84375 0.21875
vn 0 0.3826834323650898 -0.9238795325112868
vn 0.8433914458128858 0.4964001109779612 0.20561565833058104
vn 0 -0.3826834323650898 0.9238795325112868
vn -0.8433914458128858 -0.4964001109779612 -0.20561565833058104
vn -0.5372996083468239 0.7791920946816271 0.3227519333110307
vn 0.5372996083468239 -0.7791920946816271 -0.3227519333110307
usemtl m_b198ac48-81c6-1f4a-b76e-773956d525ac
f 188/556/139 191/555/139 189/554/139 186/553/139
f 187/560/140 188/559/140 186/558/140 185/557/140
f 192/564/141 187/563/141 185/562/141 190/561/141
f 191/568/142 192/567/142 190/566/142 189/565/142
f 190/572/143 185/571/143 186/570/143 189/569/143
f 191/576/144 188/575/144 187/574/144 192/573/144
o body
v 0.0625 0.375 0.34375
v 0.0625 0.375 -0.21875
v 0.0625 0.25 0.34375
v 0.0625 0.25 -0.21875
v -0.0625 0.375 -0.21875
v -0.0625 0.375 0.34375
v -0.0625 0.25 -0.21875
v -0.0625 0.25 0.34375
vt 0.28125 0.71875
vt 0.34375 0.71875
vt 0.34375 0.65625
vt 0.28125 0.65625
vt 0 0.71875
vt 0.28125 0.71875
vt 0.28125 0.65625
vt 0 0.65625
vt 0.625 0.71875
vt 0.6875 0.71875
vt 0.6875 0.65625
vt 0.625 0.65625
vt 0.34375 0.71875
vt 0.625 0.71875
vt 0.625 0.65625
vt 0.34375 0.65625
vt 0.34375 0.71875
vt 0.28125 0.71875
vt 0.28125 1
vt 0.34375 1
vt 0.40625 1
vt 0.34375 1
vt 0.34375 0.71875
vt 0.40625 0.71875
vn 0 0 -1
vn 1 0 0
vn 0 0 1
vn -1 0 0
vn 0 1 0
vn 0 -1 0
usemtl m_b198ac48-81c6-1f4a-b76e-773956d525ac
f 196/580/145 199/579/145 197/578/145 194/577/145
f 195/584/146 196/583/146 194/582/146 193/581/146
f 200/588/147 195/587/147 193/586/147 198/585/147
f 199/592/148 200/591/148 198/590/148 197/589/148
f 198/596/149 193/595/149 194/594/149 197/593/149
f 199/600/150 196/599/150 195/598/150 200/597/150
o body
v 0.0625625 0.3205324155866295 0.45667699509908055
v 0.0625625 0.37341252558693444 0.34327523324611975
v 0.0625625 0.20713065373366868 0.40379688509877554
v 0.0625625 0.26001076373397364 0.29039512324581473
v -0.0625625 0.37341252558693444 0.34327523324611975
v -0.0625625 0.3205324155866295 0.45667699509908055
v -0.0625625 0.26001076373397364 0.29039512324581473
v -0.0625625 0.20713065373366868 0.40379688509877554
vt 0.4375 0.59375
vt 0.5 0.59375
vt 0.5 0.53125
vt 0.4375 0.53125
vt 0.375 0.59375
vt 0.4375 0.59375
vt 0.4375 0.53125
vt 0.375 0.53125
vt 0.5625 0.59375
vt 0.625 0.59375
vt 0.625 0.53125
vt 0.5625 0.53125
vt 0.5 0.59375
vt 0.5625 0.59375
vt 0.5625 0.53125
vt 0.5 0.53125
vt 0.5 0.59375
vt 0.4375 0.59375
vt 0.4375 0.65625
vt 0.5 0.65625
vt 0.5625 0.65625
vt 0.5 0.65625
vt 0.5 0.59375
vt 0.5625 0.59375
vn 0 0.42261826174069944 -0.9063077870366499
vn 1 0 0
vn 0 -0.42261826174069944 0.9063077870366499
vn -1 0 0
vn 0 0.9063077870366499 0.42261826174069944
vn 0 -0.9063077870366499 -0.42261826174069944
usemtl m_b198ac48-81c6-1f4a-b76e-773956d525ac
f 204/604/151 207/603/151 205/602/151 202/601/151
f 203/608/152 204/607/152 202/606/152 201/605/152
f 208/612/153 203/611/153 201/610/153 206/609/153
f 207/616/154 208/615/154 206/614/154 205/613/154
f 206/620/155 201/619/155 202/618/155 205/617/155
f 207/624/156 204/623/156 203/622/156 208/621/156
o head
v 0.0625625 0.36220024370263454 -0.24397737090162375
v 0.0625625 0.24670537181722169 -0.46584095555032645
v 0.0625625 0.2512130132012095 -0.1862010756705901
v 0.0625625 0.13571814131579663 -0.40806466031929284
v -0.0625625 0.24670537181722169 -0.46584095555032645
v -0.0625625 0.36220024370263454 -0.24397737090162375
v -0.0625625 0.13571814131579663 -0.40806466031929284
v -0.0625625 0.2512130132012095 -0.1862010756705901
vt 0.125 0.53125
vt 0.1875 0.53125
vt 0.1875 0.46875
vt 0.125 0.46875
vt 0 0.53125
vt 0.125 0.53125
vt 0.125 0.46875
vt 0 0.46875
vt 0.3125 0.53125
vt 0.375 0.53125
vt 0.375 0.46875
vt 0.3125 0.46875
vt 0.1875 0.53125
vt 0.3125 0.53125
vt 0.3125 0.46875
vt 0.1875 0.46875
vt 0.1875 0.53125
vt 0.125 0.53125
vt 0.125 0.65625
vt 0.1875 0.65625
vt 0.25 0.65625
vt 0.1875 0.65625
vt 0.1875 0.53125
vt 0.25 0.53125
vn 0 -0.4617486132350339 -0.8870108331782217
vn 1 0 0
vn 0 0.4617486132350339 0.8870108331782217
vn -1 0 0
vn 0 0.8870108331782217 -0.4617486132350339
vn 0 -0.8870108331782217 0.4617486132350339
usemtl m_b198ac48-81c6-1f4a-b76e-773956d525ac
f 212/628/157 215/627/157 213/626/157 210/625/157
f 211/632/158 212/631/158 210/630/158 209/629/158
f 216/636/159 211/635/159 209/634/159 214/633/159
f 215/640/160 216/639/160 214/638/160 213/637/160
f 214/644/161 209/643/161 210/642/161 213/641/161
f 215/648/162 212/647/162 211/646/162 216/645/162
o cube
v 0.20636223970856457 -0.007541521238912607 0.4242274321071304
v 0.2591796290025965 0.025309265584876117 0.41694458800467543
v 0.004807724127462377 0.30133629159354614 0.35575086959334934
v 0.057625113421494276 0.33418707841733486 0.34846802549089434
v 0.2591796290025965 0.025336320536618384 0.4170666250055654
v 0.20636223970856457 -0.0075144662871703405 0.4243494691080204
v 0.057625113421494276 0.3342141333690771 0.3485900624917843
v 0.004807724127462377 0.30136334654528835 0.3558729065942393
vt 0.40625 0.5
vt 0.40625 0.5
vt 0.40625 0.3125
vt 0.40625 0.3125
vt 0.375 0.5
vt 0.40625 0.5
vt 0.40625 0.3125
vt 0.375 0.3125
vt 0.4375 0.5
vt 0.4375 0.5
vt 0.4375 0.3125
vt 0.4375 0.3125
vt 0.40625 0.5
vt 0.4375 0.5
vt 0.4375 0.3125
vt 0.40625 0.3125
vt 0.40625 0.5
vt 0.40625 0.5
vt 0.40625 0.53125
vt 0.40625 0.53125
vt 0.40625 0.53125
vt 0.40625 0.53125
vt 0.40625 0.5
vt 0.40625 0.5
vn 0.8433914458128858 0.5245634622561082 -0.11629291979968023
vn 2.081668171172169e-16 -0.21643961393810277 -0.9762960071199334
vn -0.8433914458128858 -0.5245634622561082 0.11629291979968023
vn -2.081668171172169e-16 0.21643961393810277 0.9762960071199334
vn 0.5372996083468239 -0.8233997009862281 0.1825433189304395
vn -0.5372996083468239 0.8233997009862281 -0.1825433189304395
usemtl m_b198ac48-81c6-1f4a-b76e-773956d525ac
f 220/652/163 223/651/163 221/650/163 218/649/163
f 219/656/164 220/655/164 218/654/164 217/653/164
f 224/660/165 219/659/165 217/658/165 222/657/165
f 223/664/166 224/663/166 222/662/166 221/661/166
f 222/668/167 217/667/167 218/666/167 221/665/167
f 223/672/168 220/671/168 219/670/168 224/669/168
o cube
v 0.23282365508114988 0.0021529212122083363 0.3900694595648927
v 0.23282365356814966 0.015707445135496156 0.45120999854037935
v 0.0312691314941581 0.3110307357387391 0.32159292825718966
v 0.031269129981157884 0.3245852596620269 0.3827334672326763
v 0.2327182296391226 0.01564187469791789 0.4512245351460456
v 0.2327182311521228 0.00208735077463007 0.39008399617055894
v 0.031163706052130813 0.3245196892244486 0.38274800383834257
v 0.031163707565131028 0.31096516530116086 0.32160746486285585
vt 0.46875 0.5
vt 0.46875 0.5
vt 0.46875 0.3125
vt 0.46875 0.3125
vt 0.4375 0.5
vt 0.46875 0.5
vt 0.46875 0.3125
vt 0.4375 0.3125
vt 0.5 0.5
vt 0.5 0.5
vt 0.5 0.3125
vt 0.5 0.3125
vt 0.46875 0.5
vt 0.5 0.5
vt 0.5 0.3125
vt 0.46875 0.3125
vt 0.46875 0.5
vt 0.46875 0.5
vt 0.46875 0.53125
vt 0.46875 0.53125
vt 0.46875 0.53125
vt 0.46875 0.53125
vt 0.46875 0.5
vt 0.46875 0.5
vn -2.4159684086644262e-8 0.21643950376507504 0.9762960315446989
vn 0.8433914322165796 0.5245635006257484 -0.11629284532991462
vn 2.4159684086644262e-8 -0.21643950376507504 -0.9762960315446989
vn -0.8433914322165796 -0.5245635006257484 0.11629284532991462
vn 0.5372996296887487 -0.8233997055022478 0.18254323574196082
vn -0.5372996296887487 0.8233997055022478 -0.18254323574196082
usemtl m_b198ac48-81c6-1f4a-b76e-773956d525ac
f 228/676/169 231/675/169 229/674/169 226/673/169
f 227/680/170 228/679/170 226/678/170 225/677/170
f 232/684/171 227/683/171 225/682/171 230/681/171
f 231/688/172 232/687/172 230/686/172 229/685/172
f 230/692/173 225/691/173 226/690/173 229/689/173
f 231/696/174 228/695/174 227/694/174 232/693/174
o cube
v 0.20636228866521167 -0.01292601740494459 -0.12506250000000002
v 0.2591796779592436 0.02072237056777526 -0.12506250000000002
v 0.004807773084109346 0.30345119870561416 -0.1250625
v 0.057625162378141304 0.337099586678334 -0.12506249999999997
v 0.2591796779592436 0.02072237056777526 -0.12493750000000002
v 0.20636228866521167 -0.01292601740494459 -0.12493750000000003
v 0.057625162378141304 0.337099586678334 -0.12493749999999999
v 0.004807773084109346 0.30345119870561416 -0.12493749999999999
vt 0.34375 0.4375
vt 0.34375 0.4375
vt 0.34375 0.25
vt 0.34375 0.25
vt 0.3125 0.4375
vt 0.34375 0.4375
vt 0.34375 0.25
vt 0.3125 0.25
vt 0.375 0.4375
vt 0.375 0.4375
vt 0.375 0.25
vt 0.375 0.25
vt 0.34375 0.4375
vt 0.375 0.4375
vt 0.375 0.25
vt 0.34375 0.25
vt 0.34375 0.4375
vt 0.34375 0.4375
vt 0.34375 0.46875
vt 0.34375 0.46875
vt 0.34375 0.46875
vt 0.34375 0.46875
vt 0.34375 0.4375
vt 0.34375 0.4375
vn 0.8433914458128857 0.5372996083468239 2.1908772437671532e-16
vn 9.363526019133658e-17 1.8211691954560762e-16 -1
vn -0.8433914458128857 -0.5372996083468239 -2.1908772437671532e-16
vn -9.363526019133658e-17 -1.8211691954560762e-16 1
vn 0.5372996083468239 -0.8433914458128857 -1.372686840147652e-16
vn -0.5372996083468239 0.8433914458128857 1.372686840147652e-16
usemtl m_b198ac48-81c6-1f4a-b76e-773956d525ac
f 236/700/175 239/699/175 237/698/175 234/697/175
f 235/704/176 236/703/176 234/702/176 233/701/176
f 240/708/177 235/707/177 233/706/177 238/705/177
f 239/712/178 240/711/178 238/710/178 237/709/178
f 238/716/179 233/715/179 234/714/179 237/713/179
f 239/720/180 236/719/180 235/718/180 240/717/180
o cube
v 0.23282369527759095 0.003931757806936997 -0.15631250000000002
v 0.23282369527759095 0.003931757806936997 -0.09368750000000003
v 0.031269179696488625 0.32030897391749574 -0.15631249999999997
v 0.031269179696488625 0.32030897391749574 -0.09368749999999999
v 0.23271827134686435 0.003864595355893674 -0.09368750000000003
v 0.23271827134686435 0.003864595355893674 -0.15631250000000002
v 0.031163755765762025 0.3202418114664524 -0.09368749999999999
v 0.031163755765762025 0.3202418114664524 -0.15631249999999997
vt 0.59375 0.5
vt 0.59375 0.5
vt 0.59375 0.3125
vt 0.59375 0.3125
vt 0.5625 0.5
vt 0.59375 0.5
vt 0.59375 0.3125
vt 0.5625 0.3125
vt 0.625 0.5
vt 0.625 0.5
vt 0.625 0.3125
vt 0.625 0.3125
vt 0.59375 0.5
vt 0.625 0.5
vt 0.625 0.3125
vt 0.59375 0.3125
vt 0.59375 0.5
vt 0.59375 0.5
vt 0.59375 0.53125
vt 0.59375 0.53125
vt 0.59375 0.53125
vt 0.59375 0.53125
vt 0.59375 0.5
vt 0.59375 0.5
vn 6.162975822039155e-33 -1.2246467991473532e-16 1
vn 0.8433914458128857 0.5372996083468239 6.580022455450643e-17
vn -6.162975822039155e-33 1.2246467991473532e-16 -1
vn -0.8433914458128857 -0.5372996083468239 -6.580022455450643e-17
vn 0.5372996083468239 -0.8433914458128857 -1.0328566345430089e-16
vn -0.5372996083468239 0.8433914458128857 1.0328566345430089e-16
usemtl m_b198ac48-81c6-1f4a-b76e-773956d525ac
f 244/724/181 247/723/181 245/722/181 242/721/181
f 243/728/182 244/727/182 242/726/182 241/725/182
f 248/732/183 243/731/183 241/730/183 246/729/183
f 247/736/184 248/735/184 246/734/184 245/733/184
f 246/740/185 241/739/185 242/738/185 245/737/185
f 247/744/186 244/743/186 243/742/186 248/741/186
o cube
v 0.23282369527759095 0.003931757806936942 -0.03131250000000003
v 0.23282369527759095 0.003931757806936942 0.031312499999999986
v 0.031269179696488625 0.3203089739174957 -0.031312499999999986
v 0.031269179696488625 0.3203089739174957 0.03131250000000003
v 0.23271827134686435 0.0038645953558936186 0.031312499999999986
v 0.23271827134686435 0.0038645953558936186 -0.03131250000000003
v 0.031163755765762025 0.32024181146645236 0.03131250000000003
v 0.031163755765762025 0.32024181146645236 -0.031312499999999986
vt 0.71875 0.96875
vt 0.71875 0.96875
vt 0.71875 0.78125
vt 0.71875 0.78125
vt 0.6875 0.96875
vt 0.71875 0.96875
vt 0.71875 0.78125
vt 0.6875 0.78125
vt 0.75 0.96875
vt 0.75 0.96875
vt 0.75 0.78125
vt 0.75 0.78125
vt 0.71875 0.96875
vt 0.75 0.96875
vt 0.75 0.78125
vt 0.71875 0.78125
vt 0.71875 0.96875
vt 0.71875 0.96875
vt 0.71875 1
vt 0.71875 1
vt 0.71875 1
vt 0.71875 1
vt 0.71875 0.96875
vt 0.71875 0.96875
vn 6.162975822039155e-33 -1.2246467991473532e-16 1
vn 0.8433914458128857 0.5372996083468239 6.580022455450643e-17
vn -6.162975822039155e-33 1.2246467991473532e-16 -1
vn -0.8433914458128857 -0.5372996083468239 -6.580022455450643e-17
vn 0.5372996083468239 -0.8433914458128857 -1.0328566345430089e-16
vn -0.5372996083468239 0.8433914458128857 1.0328566345430089e-16
usemtl m_b198ac48-81c6-1f4a-b76e-773956d525ac
f 252/748/187 255/747/187 253/746/187 250/745/187
f 251/752/188 252/751/188 250/750/188 249/749/188
f 256/756/189 251/755/189 249/754/189 254/753/189
f 255/760/190 256/759/190 254/758/190 253/757/190
f 254/764/191 249/763/191 250/762/191 253/761/191
f 255/768/192 252/767/192 251/766/192 256/765/192
o cube
v 0.20636228866521167 -0.012926017404944645 -0.00006250000000003215
v 0.2591796779592436 0.020722370567775206 -0.00006250000000002106
v 0.004807773084109346 0.3034511987056141 -0.0000624999999999934
v 0.05762516237814133 0.33709958667833395 -0.00006249999999998232
v 0.2591796779592436 0.020722370567775206 0.00006249999999996517
v 0.20636228866521167 -0.012926017404944645 0.00006249999999995409
v 0.05762516237814133 0.33709958667833395 0.00006250000000000392
v 0.004807773084109346 0.3034511987056141 0.00006249999999999283
vt 0.71875 0.75
vt 0.71875 0.75
vt 0.71875 0.5625
vt 0.71875 0.5625
vt 0.6875 0.75
vt 0.71875 0.75
vt 0.71875 0.5625
vt 0.6875 0.5625
vt 0.75 0.75
vt 0.75 0.75
vt 0.75 0.5625
vt 0.75 0.5625
vt 0.71875 0.75
vt 0.75 0.75
vt 0.75 0.5625
vt 0.71875 0.5625
vt 0.71875 0.75
vt 0.71875 0.75
vt 0.71875 0.78125
vt 0.71875 0.78125
vt 0.71875 0.78125
vt 0.71875 0.78125
vt 0.71875 0.75
vt 0.71875 0.75
vn 0.8433914458128857 0.5372996083468239 2.1908772437671532e-16
vn 9.363526019133658e-17 1.8211691954560762e-16 -1
vn -0.8433914458128857 -0.5372996083468239 -2.1908772437671532e-16
vn -9.363526019133658e-17 -1.8211691954560762e-16 1
vn 0.5372996083468239 -0.8433914458128857 -1.372686840147652e-16
vn -0.5372996083468239 0.8433914458128857 1.372686840147652e-16
usemtl m_b198ac48-81c6-1f4a-b76e-773956d525ac
f 260/772/193 263/771/193 261/770/193 258/769/193
f 259/776/194 260/775/194 258/774/194 257/773/194
f 264/780/195 259/779/195 257/778/195 262/777/195
f 263/784/196 264/783/196 262/782/196 261/781/196
f 262/788/197 257/787/197 258/786/197 261/785/197
f 263/792/198 260/791/198 259/790/198 264/789/198
o cube
v 0.2063622886652116 -0.012926017404944645 0.12493749999999997
v 0.2591796779592436 0.020722370567775206 0.12493749999999998
v 0.004807773084109318 0.3034511987056141 0.1249375
v 0.05762516237814133 0.33709958667833395 0.1249375
v 0.2591796779592436 0.020722370567775206 0.12506249999999997
v 0.2063622886652116 -0.012926017404944645 0.12506249999999994
v 0.05762516237814133 0.33709958667833395 0.1250625
v 0.004807773084109318 0.3034511987056141 0.1250625
vt 0.71875 0.53125
vt 0.71875 0.53125
vt 0.71875 0.34375
vt 0.71875 0.34375
vt 0.6875 0.53125
vt 0.71875 0.53125
vt 0.71875 0.34375
vt 0.6875 0.34375
vt 0.75 0.53125
vt 0.75 0.53125
vt 0.75 0.34375
vt 0.75 0.34375
vt 0.71875 0.53125
vt 0.75 0.53125
vt 0.75 0.34375
vt 0.71875 0.34375
vt 0.71875 0.53125
vt 0.71875 0.53125
vt 0.71875 0.5625
vt 0.71875 0.5625
vt 0.71875 0.5625
vt 0.71875 0.5625
vt 0.71875 0.53125
vt 0.71875 0.53125
vn 0.8433914458128857 0.5372996083468239 2.1908772437671532e-16
vn 9.363526019133658e-17 1.8211691954560762e-16 -1
vn -0.8433914458128857 -0.5372996083468239 -2.1908772437671532e-16
vn -9.363526019133658e-17 -1.8211691954560762e-16 1
vn 0.5372996083468239 -0.8433914458128857 -1.372686840147652e-16
vn -0.5372996083468239 0.8433914458128857 1.372686840147652e-16
usemtl m_b198ac48-81c6-1f4a-b76e-773956d525ac
f 268/796/199 271/795/199 269/794/199 266/793/199
f 267/800/200 268/799/200 266/798/200 265/797/200
f 272/804/201 267/803/201 265/802/201 270/801/201
f 271/808/202 272/807/202 270/806/202 269/805/202
f 270/812/203 265/811/203 266/810/203 269/809/203
f 271/816/204 268/815/204 267/814/204 272/813/204
o cube
v 0.23282369527759095 0.003931757806936942 0.09368749999999994
v 0.23282369527759095 0.003931757806936942 0.15631249999999997
v 0.031269179696488625 0.3203089739174957 0.09368749999999998
v 0.031269179696488625 0.3203089739174957 0.15631250000000002
v 0.23271827134686435 0.0038645953558936186 0.15631249999999997
v 0.23271827134686435 0.0038645953558936186 0.09368749999999994
v 0.031163755765762025 0.32024181146645236 0.15631250000000002
v 0.031163755765762025 0.32024181146645236 0.09368749999999998
vt 0.53125 0.28125
vt 0.53125 0.28125
vt 0.53125 0.09375
vt 0.53125 0.09375
vt 0.5 0.28125
vt 0.53125 0.28125
vt 0.53125 0.09375
vt 0.5 0.09375
vt 0.5625 0.28125
vt 0.5625 0.28125
vt 0.5625 0.09375
vt 0.5625 0.09375
vt 0.53125 0.28125
vt 0.5625 0.28125
vt 0.5625 0.09375
vt 0.53125 0.09375
vt 0.53125 0.28125
vt 0.53125 0.28125
vt 0.53125 0.3125
vt 0.53125 0.3125
vt 0.53125 0.3125
vt 0.53125 0.3125
vt 0.53125 0.28125
vt 0.53125 0.28125
vn 6.162975822039155e-33 -1.2246467991473532e-16 1
vn 0.8433914458128857 0.5372996083468239 6.580022455450643e-17
vn -6.162975822039155e-33 1.2246467991473532e-16 -1
vn -0.8433914458128857 -0.5372996083468239 -6.580022455450643e-17
vn 0.5372996083468239 -0.8433914458128857 -1.0328566345430089e-16
vn -0.5372996083468239 0.8433914458128857 1.0328566345430089e-16
usemtl m_b198ac48-81c6-1f4a-b76e-773956d525ac
f 276/820/205 279/819/205 277/818/205 274/817/205
f 275/824/206 276/823/206 274/822/206 273/821/206
f 280/828/207 275/827/207 273/826/207 278/825/207
f 279/832/208 280/831/208 278/830/208 277/829/208
f 278/836/209 273/835/209 274/834/209 277/833/209
f 279/840/210 276/839/210 275/838/210 280/837/210
o cube
v 0.23282369527759095 0.003931757806936942 0.21868749999999995
v 0.23282369527759095 0.003931757806936942 0.28131249999999997
v 0.031269179696488625 0.3203089739174957 0.21868749999999998
v 0.031269179696488625 0.3203089739174957 0.28131249999999997
v 0.23271827134686435 0.0038645953558936186 0.28131249999999997
v 0.23271827134686435 0.0038645953558936186 0.21868749999999995
v 0.031163755765762025 0.32024181146645236 0.28131249999999997
v 0.031163755765762025 0.32024181146645236 0.21868749999999998
vt 0.59375 0.28125
vt 0.59375 0.28125
vt 0.59375 0.09375
vt 0.59375 0.09375
vt 0.5625 0.28125
vt 0.59375 0.28125
vt 0.59375 0.09375
vt 0.5625 0.09375
vt 0.625 0.28125
vt 0.625 0.28125
vt 0.625 0.09375
vt 0.625 0.09375
vt 0.59375 0.28125
vt 0.625 0.28125
vt 0.625 0.09375
vt 0.59375 0.09375
vt 0.59375 0.28125
vt 0.59375 0.28125
vt 0.59375 0.3125
vt 0.59375 0.3125
vt 0.59375 0.3125
vt 0.59375 0.3125
vt 0.59375 0.28125
vt 0.59375 0.28125
vn 6.162975822039155e-33 -1.2246467991473532e-16 1
vn 0.8433914458128857 0.5372996083468239 6.580022455450643e-17
vn -6.162975822039155e-33 1.2246467991473532e-16 -1
vn -0.8433914458128857 -0.5372996083468239 -6.580022455450643e-17
vn 0.5372996083468239 -0.8433914458128857 -1.0328566345430089e-16
vn -0.5372996083468239 0.8433914458128857 1.0328566345430089e-16
usemtl m_b198ac48-81c6-1f4a-b76e-773956d525ac
f 284/844/211 287/843/211 285/842/211 282/841/211
f 283/848/212 284/847/212 282/846/212 281/845/212
f 288/852/213 283/851/213 281/850/213 286/849/213
f 287/856/214 288/855/214 286/854/214 285/853/214
f 286/860/215 281/859/215 282/858/215 285/857/215
f 287/864/216 284/863/216 283/862/216 288/861/216
o cube
v 0.2063622886652116 -0.012926017404944645 0.24993749999999998
v 0.25917967795924357 0.020722370567775178 0.24993749999999998
v 0.004807773084109318 0.3034511987056141 0.2499375
v 0.057625162378141276 0.33709958667833395 0.24993750000000003
v 0.25917967795924357 0.020722370567775178 0.25006249999999997
v 0.2063622886652116 -0.012926017404944645 0.25006249999999997
v 0.057625162378141276 0.33709958667833395 0.2500625
v 0.004807773084109318 0.3034511987056141 0.2500625
vt 0.71875 0.3125
vt 0.71875 0.3125
vt 0.71875 0.125
vt 0.71875 0.125
vt 0.6875 0.3125
vt 0.71875 0.3125
vt 0.71875 0.125
vt 0.6875 0.125
vt 0.75 0.3125
vt 0.75 0.3125
vt 0.75 0.125
vt 0.75 0.125
vt 0.71875 0.3125
vt 0.75 0.3125
vt 0.75 0.125
vt 0.71875 0.125
vt 0.71875 0.3125
vt 0.71875 0.3125
vt 0.71875 0.34375
vt 0.71875 0.34375
vt 0.71875 0.34375
vt 0.71875 0.34375
vt 0.71875 0.3125
vt 0.71875 0.3125
vn 0.8433914458128857 0.5372996083468239 2.1908772437671532e-16
vn 9.363526019133658e-17 1.8211691954560762e-16 -1
vn -0.8433914458128857 -0.5372996083468239 -2.1908772437671532e-16
vn -9.363526019133658e-17 -1.8211691954560762e-16 1
vn 0.5372996083468239 -0.8433914458128857 -1.372686840147652e-16
vn -0.5372996083468239 0.8433914458128857 1.372686840147652e-16
usemtl m_b198ac48-81c6-1f4a-b76e-773956d525ac
f 292/868/217 295/867/217 293/866/217 290/865/217
f 291/872/218 292/871/218 290/870/218 289/869/218
f 296/876/219 291/875/219 289/874/219 294/873/219
f 295/880/220 296/879/220 294/878/220 293/877/220
f 294/884/221 289/883/221 290/882/221 293/881/221
f 295/888/222 292/887/222 291/886/222 296/885/222
o cube
v -0.23271827134686435 0.003864595355893674 -0.15631250000000002
v -0.23271827134686435 0.003864595355893674 -0.09368750000000003
v -0.031163755765762025 0.3202418114664524 -0.15631249999999997
v -0.031163755765762025 0.3202418114664524 -0.09368749999999999
v -0.23282369527759095 0.003931757806936997 -0.09368750000000003
v -0.23282369527759095 0.003931757806936997 -0.15631250000000002
v -0.031269179696488625 0.32030897391749574 -0.09368749999999999
v -0.031269179696488625 0.32030897391749574 -0.15631249999999997
vt 0.09375 0.4375
vt 0.09375 0.4375
vt 0.09375 0.25
vt 0.09375 0.25
vt 0.0625 0.4375
vt 0.09375 0.4375
vt 0.09375 0.25
vt 0.0625 0.25
vt 0.125 0.4375
vt 0.125 0.4375
vt 0.125 0.25
vt 0.125 0.25
vt 0.09375 0.4375
vt 0.125 0.4375
vt 0.125 0.25
vt 0.09375 0.25
vt 0.09375 0.4375
vt 0.09375 0.4375
vt 0.09375 0.46875
vt 0.09375 0.46875
vt 0.09375 0.46875
vt 0.09375 0.46875
vt 0.09375 0.4375
vt 0.09375 0.4375
vn -6.162975822039155e-33 -1.2246467991473532e-16 1
vn 0.8433914458128857 -0.5372996083468239 -6.580022455450643e-17
vn 6.162975822039155e-33 1.2246467991473532e-16 -1
vn -0.8433914458128857 0.5372996083468239 6.580022455450643e-17
vn -0.5372996083468239 -0.8433914458128857 -1.0328566345430089e-16
vn 0.5372996083468239 0.8433914458128857 1.0328566345430089e-16
usemtl m_b198ac48-81c6-1f4a-b76e-773956d525ac
f 300/892/223 303/891/223 301/890/223 298/889/223
f 299/896/224 300/895/224 298/894/224 297/893/224
f 304/900/225 299/899/225 297/898/225 302/897/225
f 303/904/226 304/903/226 302/902/226 301/901/226
f 302/908/227 297/907/227 298/906/227 301/905/227
f 303/912/228 300/911/228 299/910/228 304/909/228
o cube
v -0.20636228866521167 -0.01292601740494459 -0.12493750000000003
v -0.2591796779592436 0.02072237056777526 -0.12493750000000002
v -0.004807773084109346 0.30345119870561416 -0.12493749999999999
v -0.057625162378141304 0.337099586678334 -0.12493749999999999
v -0.2591796779592436 0.02072237056777526 -0.12506250000000002
v -0.20636228866521167 -0.01292601740494459 -0.12506250000000002
v -0.057625162378141304 0.337099586678334 -0.12506249999999997
v -0.004807773084109346 0.30345119870561416 -0.1250625
vt 0.15625 0.4375
vt 0.15625 0.4375
vt 0.15625 0.25
vt 0.15625 0.25
vt 0.125 0.4375
vt 0.15625 0.4375
vt 0.15625 0.25
vt 0.125 0.25
vt 0.1875 0.4375
vt 0.1875 0.4375
vt 0.1875 0.25
vt 0.1875 0.25
vt 0.15625 0.4375
vt 0.1875 0.4375
vt 0.1875 0.25
vt 0.15625 0.25
vt 0.15625 0.4375
vt 0.15625 0.4375
vt 0.15625 0.46875
vt 0.15625 0.46875
vt 0.15625 0.46875
vt 0.15625 0.46875
vt 0.15625 0.4375
vt 0.15625 0.4375
vn -0.8433914458128857 0.5372996083468239 2.1908772437671532e-16
vn 9.363526019133658e-17 -1.8211691954560762e-16 1
vn 0.8433914458128857 -0.5372996083468239 -2.1908772437671532e-16
vn -9.363526019133658e-17 1.8211691954560762e-16 -1
vn -0.5372996083468239 -0.8433914458128857 -1.372686840147652e-16
vn 0.5372996083468239 0.8433914458128857 1.372686840147652e-16
usemtl m_b198ac48-81c6-1f4a-b76e-773956d525ac
f 308/916/229 311/915/229 309/914/229 306/913/229
f 307/920/230 308/919/230 306/918/230 305/917/230
f 312/924/231 307/923/231 305/922/231 310/921/231
f 311/928/232 312/927/232 310/926/232 309/925/232
f 310/932/233 305/931/233 306/930/233 309/929/233
f 311/936/234 308/935/234 307/934/234 312/933/234
o cube
v -0.20636228866521167 -0.012926017404944645 0.00006249999999995409
v -0.2591796779592436 0.020722370567775206 0.00006249999999996517
v -0.004807773084109346 0.3034511987056141 0.00006249999999999283
v -0.05762516237814133 0.33709958667833395 0.00006250000000000392
v -0.2591796779592436 0.020722370567775206 -0.00006250000000002106
v -0.20636228866521167 -0.012926017404944645 -0.00006250000000003215
v -0.05762516237814133 0.33709958667833395 -0.00006249999999998232
v -0.004807773084109346 0.3034511987056141 -0.0000624999999999934
vt 0.21875 0.4375
vt 0.21875 0.4375
vt 0.21875 0.25
vt 0.21875 0.25
vt 0.1875 0.4375
vt 0.21875 0.4375
vt 0.21875 0.25
vt 0.1875 0.25
vt 0.25 0.4375
vt 0.25 0.4375
vt 0.25 0.25
vt 0.25 0.25
vt 0.21875 0.4375
vt 0.25 0.4375
vt 0.25 0.25
vt 0.21875 0.25
vt 0.21875 0.4375
vt 0.21875 0.4375
vt 0.21875 0.46875
vt 0.21875 0.46875
vt 0.21875 0.46875
vt 0.21875 0.46875
vt 0.21875 0.4375
vt 0.21875 0.4375
vn -0.8433914458128857 0.5372996083468239 2.1908772437671532e-16
vn 9.363526019133658e-17 -1.8211691954560762e-16 1
vn 0.8433914458128857 -0.5372996083468239 -2.1908772437671532e-16
vn -9.363526019133658e-17 1.8211691954560762e-16 -1
vn -0.5372996083468239 -0.8433914458128857 -1.372686840147652e-16
vn 0.5372996083468239 0.8433914458128857 1.372686840147652e-16
usemtl m_b198ac48-81c6-1f4a-b76e-773956d525ac
f 316/940/235 319/939/235 317/938/235 314/937/235
f 315/944/236 316/943/236 314/942/236 313/941/236
f 320/948/237 315/947/237 313/946/237 318/945/237
f 319/952/238 320/951/238 318/950/238 317/949/238
f 318/956/239 313/955/239 314/954/239 317/953/239
f 319/960/240 316/959/240 315/958/240 320/957/240
o cube
v -0.23271827134686435 0.0038645953558936186 -0.03131250000000003
v -0.23271827134686435 0.0038645953558936186 0.031312499999999986
v -0.031163755765762025 0.32024181146645236 -0.031312499999999986
v -0.031163755765762025 0.32024181146645236 0.03131250000000003
v -0.23282369527759095 0.003931757806936942 0.031312499999999986
v -0.23282369527759095 0.003931757806936942 -0.03131250000000003
v -0.031269179696488625 0.3203089739174957 0.03131250000000003
v -0.031269179696488625 0.3203089739174957 -0.031312499999999986
vt 0.28125 0.4375
vt 0.28125 0.4375
vt 0.28125 0.25
vt 0.28125 0.25
vt 0.25 0.4375
vt 0.28125 0.4375
vt 0.28125 0.25
vt 0.25 0.25
vt 0.3125 0.4375
vt 0.3125 0.4375
vt 0.3125 0.25
vt 0.3125 0.25
vt 0.28125 0.4375
vt 0.3125 0.4375
vt 0.3125 0.25
vt 0.28125 0.25
vt 0.28125 0.4375
vt 0.28125 0.4375
vt 0.28125 0.46875
vt 0.28125 0.46875
vt 0.28125 0.46875
vt 0.28125 0.46875
vt 0.28125 0.4375
vt 0.28125 0.4375
vn -6.162975822039155e-33 -1.2246467991473532e-16 1
vn 0.8433914458128857 -0.5372996083468239 -6.580022455450643e-17
vn 6.162975822039155e-33 1.2246467991473532e-16 -1
vn -0.8433914458128857 0.5372996083468239 6.580022455450643e-17
vn -0.5372996083468239 -0.8433914458128857 -1.0328566345430089e-16
vn 0.5372996083468239 0.8433914458128857 1.0328566345430089e-16
usemtl m_b198ac48-81c6-1f4a-b76e-773956d525ac
f 324/964/241 327/963/241 325/962/241 322/961/241
f 323/968/242 324/967/242 322/966/242 321/965/242
f 328/972/243 323/971/243 321/970/243 326/969/243
f 327/976/244 328/975/244 326/974/244 325/973/244
f 326/980/245 321/979/245 322/978/245 325/977/245
f 327/984/246 324/983/246 323/982/246 328/981/246
o cube
v -0.23271827134686435 0.0038645953558936186 0.09368749999999994
v -0.23271827134686435 0.0038645953558936186 0.15631249999999997
v -0.031163755765762025 0.32024181146645236 0.09368749999999998
v -0.031163755765762025 0.32024181146645236 0.15631250000000002
v -0.23282369527759095 0.003931757806936942 0.15631249999999997
v -0.23282369527759095 0.003931757806936942 0.09368749999999994
v -0.031269179696488625 0.3203089739174957 0.15631250000000002
v -0.031269179696488625 0.3203089739174957 0.09368749999999998
vt 0.65625 0.625
vt 0.65625 0.625
vt 0.65625 0.4375
vt 0.65625 0.4375
vt 0.625 0.625
vt 0.65625 0.625
vt 0.65625 0.4375
vt 0.625 0.4375
vt 0.6875 0.625
vt 0.6875 0.625
vt 0.6875 0.4375
vt 0.6875 0.4375
vt 0.65625 0.625
vt 0.6875 0.625
vt 0.6875 0.4375
vt 0.65625 0.4375
vt 0.65625 0.625
vt 0.65625 0.625
vt 0.65625 0.65625
vt 0.65625 0.65625
vt 0.65625 0.65625
vt 0.65625 0.65625
vt 0.65625 0.625
vt 0.65625 0.625
vn -6.162975822039155e-33 -1.2246467991473532e-16 1
vn 0.8433914458128857 -0.5372996083468239 -6.580022455450643e-17
vn 6.162975822039155e-33 1.2246467991473532e-16 -1
vn -0.8433914458128857 0.5372996083468239 6.580022455450643e-17
vn -0.5372996083468239 -0.8433914458128857 -1.0328566345430089e-16
vn 0.5372996083468239 0.8433914458128857 1.0328566345430089e-16
usemtl m_b198ac48-81c6-1f4a-b76e-773956d525ac
f 332/988/247 335/987/247 333/986/247 330/985/247
f 331/992/248 332/991/248 330/990/248 329/989/248
f 336/996/249 331/995/249 329/994/249 334/993/249
f 335/1000/250 336/999/250 334/998/250 333/997/250
f 334/1004/251 329/1003/251 330/1002/251 333/1001/251
f 335/1008/252 332/1007/252 331/1006/252 336/1005/252
o cube
v -0.2063622886652116 -0.012926017404944645 0.12506249999999994
v -0.2591796779592436 0.020722370567775206 0.12506249999999997
v -0.004807773084109318 0.3034511987056141 0.1250625
v -0.05762516237814133 0.33709958667833395 0.1250625
v -0.2591796779592436 0.020722370567775206 0.12493749999999998
v -0.2063622886652116 -0.012926017404944645 0.12493749999999997
v -0.05762516237814133 0.33709958667833395 0.1249375
v -0.004807773084109318 0.3034511987056141 0.1249375
vt 0.65625 0.40625
vt 0.65625 0.40625
vt 0.65625 0.21875
vt 0.65625 0.21875
vt 0.625 0.40625
vt 0.65625 0.40625
vt 0.65625 0.21875
vt 0.625 0.21875
vt 0.6875 0.40625
vt 0.6875 0.40625
vt 0.6875 0.21875
vt 0.6875 0.21875
vt 0.65625 0.40625
vt 0.6875 0.40625
vt 0.6875 0.21875
vt 0.65625 0.21875
vt 0.65625 0.40625
vt 0.65625 0.40625
vt 0.65625 0.4375
vt 0.65625 0.4375
vt 0.65625 0.4375
vt 0.65625 0.4375
vt 0.65625 0.40625
vt 0.65625 0.40625
vn -0.8433914458128857 0.5372996083468239 2.1908772437671532e-16
vn 9.363526019133658e-17 -1.8211691954560762e-16 1
vn 0.8433914458128857 -0.5372996083468239 -2.1908772437671532e-16
vn -9.363526019133658e-17 1.8211691954560762e-16 -1
vn -0.5372996083468239 -0.8433914458128857 -1.372686840147652e-16
vn 0.5372996083468239 0.8433914458128857 1.372686840147652e-16
usemtl m_b198ac48-81c6-1f4a-b76e-773956d525ac
f 340/1012/253 343/1011/253 341/1010/253 338/1009/253
f 339/1016/254 340/1015/254 338/1014/254 337/1013/254
f 344/1020/255 339/1019/255 337/1018/255 342/1017/255
f 343/1024/256 344/1023/256 342/1022/256 341/1021/256
f 342/1028/257 337/1027/257 338/1026/257 341/1025/257
f 343/1032/258 340/1031/258 339/1030/258 344/1029/258
o cube
v -0.2063622886652116 -0.012926017404944645 0.25006249999999997
v -0.25917967795924357 0.020722370567775178 0.25006249999999997
v -0.004807773084109318 0.3034511987056141 0.2500625
v -0.057625162378141276 0.33709958667833395 0.2500625
v -0.25917967795924357 0.020722370567775178 0.24993749999999998
v -0.2063622886652116 -0.012926017404944645 0.24993749999999998
v -0.057625162378141276 0.33709958667833395 0.24993750000000003
v -0.004807773084109318 0.3034511987056141 0.2499375
vt 0.40625 0.28125
vt 0.40625 0.28125
vt 0.40625 0.09375
vt 0.40625 0.09375
vt 0.375 0.28125
vt 0.40625 0.28125
vt 0.40625 0.09375
vt 0.375 0.09375
vt 0.4375 0.28125
vt 0.4375 0.28125
vt 0.4375 0.09375
vt 0.4375 0.09375
vt 0.40625 0.28125
vt 0.4375 0.28125
vt 0.4375 0.09375
vt 0.40625 0.09375
vt 0.40625 0.28125
vt 0.40625 0.28125
vt 0.40625 0.3125
vt 0.40625 0.3125
vt 0.40625 0.3125
vt 0.40625 0.3125
vt 0.40625 0.28125
vt 0.40625 0.28125
vn -0.8433914458128857 0.5372996083468239 2.1908772437671532e-16
vn 9.363526019133658e-17 -1.8211691954560762e-16 1
vn 0.8433914458128857 -0.5372996083468239 -2.1908772437671532e-16
vn -9.363526019133658e-17 1.8211691954560762e-16 -1
vn -0.5372996083468239 -0.8433914458128857 -1.372686840147652e-16
vn 0.5372996083468239 0.8433914458128857 1.372686840147652e-16
usemtl m_b198ac48-81c6-1f4a-b76e-773956d525ac
f 348/1036/259 351/1035/259 349/1034/259 346/1033/259
f 347/1040/260 348/1039/260 346/1038/260 345/1037/260
f 352/1044/261 347/1043/261 345/1042/261 350/1041/261
f 351/1048/262 352/1047/262 350/1046/262 349/1045/262
f 350/1052/263 345/1051/263 346/1050/263 349/1049/263
f 351/1056/264 348/1055/264 347/1054/264 352/1053/264
o cube
v -0.23271827134686435 0.0038645953558936186 0.21868749999999995
v -0.23271827134686435 0.0038645953558936186 0.28131249999999997
v -0.031163755765762025 0.32024181146645236 0.21868749999999998
v -0.031163755765762025 0.32024181146645236 0.28131249999999997
v -0.23282369527759095 0.003931757806936942 0.28131249999999997
v -0.23282369527759095 0.003931757806936942 0.21868749999999995
v -0.031269179696488625 0.3203089739174957 0.28131249999999997
v -0.031269179696488625 0.3203089739174957 0.21868749999999998
vt 0.46875 0.28125
vt 0.46875 0.28125
vt 0.46875 0.09375
vt 0.46875 0.09375
vt 0.4375 0.28125
vt 0.46875 0.28125
vt 0.46875 0.09375
vt 0.4375 0.09375
vt 0.5 0.28125
vt 0.5 0.28125
vt 0.5 0.09375
vt 0.5 0.09375
vt 0.46875 0.28125
vt 0.5 0.28125
vt 0.5 0.09375
vt 0.46875 0.09375
vt 0.46875 0.28125
vt 0.46875 0.28125
vt 0.46875 0.3125
vt 0.46875 0.3125
vt 0.46875 0.3125
vt 0.46875 0.3125
vt 0.46875 0.28125
vt 0.46875 0.28125
vn -6.162975822039155e-33 -1.2246467991473532e-16 1
vn 0.8433914458128857 -0.5372996083468239 -6.580022455450643e-17
vn 6.162975822039155e-33 1.2246467991473532e-16 -1
vn -0.8433914458128857 0.5372996083468239 6.580022455450643e-17
vn -0.5372996083468239 -0.8433914458128857 -1.0328566345430089e-16
vn 0.5372996083468239 0.8433914458128857 1.0328566345430089e-16
usemtl m_b198ac48-81c6-1f4a-b76e-773956d525ac
f 356/1060/265 359/1059/265 357/1058/265 354/1057/265
f 355/1064/266 356/1063/266 354/1062/266 353/1061/266
f 360/1068/267 355/1067/267 353/1066/267 358/1065/267
f 359/1072/268 360/1071/268 358/1070/268 357/1069/268
f 358/1076/269 353/1075/269 354/1074/269 357/1073/269
f 359/1080/270 356/1079/270 355/1078/270 360/1077/270
o cube
v -0.2327182311521228 0.00208735077463007 0.39008399617055894
v -0.2327182296391226 0.01564187469791789 0.4512245351460456
v -0.031163707565131028 0.31096516530116086 0.32160746486285585
v -0.031163706052130813 0.3245196892244486 0.38274800383834257
v -0.23282365356814966 0.015707445135496156 0.45120999854037935
v -0.23282365508114988 0.0021529212122083363 0.3900694595648927
v -0.031269129981157884 0.3245852596620269 0.3827334672326763
v -0.0312691314941581 0.3110307357387391 0.32159292825718966
vt 0.53125 0.5
vt 0.53125 0.5
vt 0.53125 0.3125
vt 0.53125 0.3125
vt 0.5 0.5
vt 0.53125 0.5
vt 0.53125 0.3125
vt 0.5 0.3125
vt 0.5625 0.5
vt 0.5625 0.5
vt 0.5625 0.3125
vt 0.5625 0.3125
vt 0.53125 0.5
vt 0.5625 0.5
vt 0.5625 0.3125
vt 0.53125 0.3125
vt 0.53125 0.5
vt 0.53125 0.5
vt 0.53125 0.53125
vt 0.53125 0.53125
vt 0.53125 0.53125
vt 0.53125 0.53125
vt 0.53125 0.5
vt 0.53125 0.5
vn 2.4159684086644262e-8 0.21643950376507504 0.9762960315446989
vn 0.8433914322165796 -0.5245635006257484 0.11629284532991462
vn -2.4159684086644262e-8 -0.21643950376507504 -0.9762960315446989
vn -0.8433914322165796 0.5245635006257484 -0.11629284532991462
vn -0.5372996296887487 -0.8233997055022478 0.18254323574196082
vn 0.5372996296887487 0.8233997055022478 -0.18254323574196082
usemtl m_b198ac48-81c6-1f4a-b76e-773956d525ac
f 364/1084/271 367/1083/271 365/1082/271 362/1081/271
f 363/1088/272 364/1087/272 362/1086/272 361/1085/272
f 368/1092/273 363/1091/273 361/1090/273 366/1089/273
f 367/1096/274 368/1095/274 366/1094/274 365/1093/274
f 366/1100/275 361/1099/275 362/1098/275 365/1097/275
f 367/1104/276 364/1103/276 363/1102/276 368/1101/276
o cube
v -0.20636223970856457 -0.0075144662871703405 0.4243494691080204
v -0.2591796290025965 0.025336320536618384 0.4170666250055654
v -0.004807724127462377 0.30136334654528835 0.3558729065942393
v -0.057625113421494276 0.3342141333690771 0.3485900624917843
v -0.2591796290025965 0.025309265584876117 0.41694458800467543
v -0.20636223970856457 -0.007541521238912607 0.4242274321071304
v -0.057625113421494276 0.33418707841733486 0.34846802549089434
v -0.004807724127462377 0.30133629159354614 0.35575086959334934
vt 0.03125 0.4375
vt 0.03125 0.4375
vt 0.03125 0.25
vt 0.03125 0.25
vt 0 0.4375
vt 0.03125 0.4375
vt 0.03125 0.25
vt 0 0.25
vt 0.0625 0.4375
vt 0.0625 0.4375
vt 0.0625 0.25
vt 0.0625 0.25
vt 0.03125 0.4375
vt 0.0625 0.4375
vt 0.0625 0.25
vt 0.03125 0.25
vt 0.03125 0.4375
vt 0.03125 0.4375
vt 0.03125 0.46875
vt 0.03125 0.46875
vt 0.03125 0.46875
vt 0.03125 0.46875
vt 0.03125 0.4375
vt 0.03125 0.4375
vn -0.8433914458128858 0.5245634622561082 -0.11629291979968023
vn 2.081668171172169e-16 0.21643961393810277 0.9762960071199334
vn 0.8433914458128858 -0.5245634622561082 0.11629291979968023
vn -2.081668171172169e-16 -0.21643961393810277 -0.9762960071199334
vn -0.5372996083468239 -0.8233997009862281 0.1825433189304395
vn 0.5372996083468239 0.8233997009862281 -0.1825433189304395
usemtl m_b198ac48-81c6-1f4a-b76e-773956d525ac
f 372/1108/277 375/1107/277 373/1106/277 370/1105/277
f 371/1112/278 372/1111/278 370/1110/278 369/1109/278
f 376/1116/279 371/1115/279 369/1114/279 374/1113/279
f 375/1120/280 376/1119/280 374/1118/280 373/1117/280
f 374/1124/281 369/1123/281 370/1122/281 373/1121/281
f 375/1128/282 372/1127/282 371/1126/282 376/1125/282