# Made in Blockbench 5.1.6
mtllib VerdantEngine.mtl

o core
v 0.19346525523498598 0.6914580801114187 0.1711254217355125
v 0.19123646569782204 0.6575440202595987 -0.20233122774547638
v 0.16897498117441748 0.3188052986673452 0.20511263930968007
v 0.16674619163725354 0.28489123881552514 -0.16834401017130882
v -0.18295634419253015 0.6821355030608193 -0.20233122774547638
v -0.18072755465536622 0.7160495629126393 0.1711254217355125
v -0.20744661825309865 0.3094827216167457 -0.16834401017130882
v -0.20521782871593472 0.3433967814685658 0.20511263930968007
vt 0.28125 0.8359375
vt 0.3046875 0.8359375
vt 0.3046875 0.8125
vt 0.28125 0.8125
vt 0.2578125 0.8359375
vt 0.28125 0.8359375
vt 0.28125 0.8125
vt 0.2578125 0.8125
vt 0.328125 0.8359375
vt 0.3515625 0.8359375
vt 0.3515625 0.8125
vt 0.328125 0.8125
vt 0.3046875 0.8359375
vt 0.328125 0.8359375
vt 0.328125 0.8125
vt 0.3046875 0.8125
vt 0.3046875 0.8359375
vt 0.28125 0.8359375
vt 0.28125 0.859375
vt 0.3046875 0.859375
vt 0.328125 0.859375
vt 0.3046875 0.859375
vt 0.3046875 0.8359375
vt 0.328125 0.8359375
vn -0.0059434387657705395 -0.0904374929381868 -0.9958843986159703
vn 0.9978474930409392 -0.06557728746992143 8.673617379884035e-19
vn 0.0059434387657705395 0.0904374929381868 0.9958843986159703
vn -0.9978474930409392 0.06557728746992143 -8.673617379884035e-19
vn 0.06530739749484933 0.9937407505175294 -0.09063258019778014
vn -0.06530739749484933 -0.9937407505175294 0.09063258019778014
usemtl m_ff726480-b4f7-a14e-d120-d9a54e4ad079
f 4/4/1 7/3/1 5/2/1 2/1/1
f 3/8/2 4/7/2 2/6/2 1/5/2
f 8/12/3 3/11/3 1/10/3 6/9/3
f 7/16/4 8/15/4 6/14/4 5/13/4
f 6/20/5 1/19/5 2/18/5 5/17/5
f 7/24/6 4/23/6 3/22/6 8/21/6
o cube
v 0.247858125 -0.0000874999999999071 0.6219581250000001
v 0.247858125 1.0625875 0.6219581249999999
v 0.247858125 -0.0000874999999999071 0.5592831250000001
v 0.247858125 1.0625875 0.5592831249999999
v -0.252316875 1.0625875 0.6219581249999999
v -0.252316875 -0.0000874999999999071 0.6219581250000001
v -0.252316875 1.0625875 0.5592831249999999
v -0.252316875 -0.0000874999999999071 0.5592831250000001
vt 0.09765625 0.93359375
vt 0.12890625 0.93359375
vt 0.12890625 0.9296875
vt 0.09765625 0.9296875
vt 0.03125 0.93359375
vt 0.09765625 0.93359375
vt 0.09765625 0.9296875
vt 0.03125 0.9296875
vt 0.1953125 0.93359375
vt 0.2265625 0.93359375
vt 0.2265625 0.9296875
vt 0.1953125 0.9296875
vt 0.12890625 0.93359375
vt 0.1953125 0.93359375
vt 0.1953125 0.9296875
vt 0.12890625 0.9296875
vt 0.12890625 0.93359375
vt 0.09765625 0.93359375
vt 0.09765625 1
vt 0.12890625 1
vt 0.16015625 1
vt 0.12890625 1
vt 0.12890625 0.93359375
vt 0.16015625 0.93359375
vn 0 1 -2.220446049250313e-16
vn 1 0 0
vn 0 -1 2.220446049250313e-16
vn -1 0 0
vn 0 2.220446049250313e-16 1
vn 0 -2.220446049250313e-16 -1
usemtl m_ff726480-b4f7-a14e-d120-d9a54e4ad079
f 12/28/7 15/27/7 13/26/7 10/25/7
f 11/32/8 12/31/8 10/30/8 9/29/8
f 16/36/9 11/35/9 9/34/9 14/33/9
f 15/40/10 16/39/10 14/38/10 13/37/10
f 14/44/11 9/43/11 10/42/11 13/41/11
f 15/48/12 12/47/12 11/46/12 16/45/12
o cube
v 0.24787062499999998 -0.00009999999999987796 -0.5655293749999999
v 0.24787062499999998 1.0626000000000002 -0.5655293750000001
v 0.24787062499999998 -0.00009999999999987796 -0.6282293749999999
v 0.24787062499999998 1.0626000000000002 -0.6282293750000001
v -0.25232937499999997 1.0626000000000002 -0.5655293750000001
v -0.25232937499999997 -0.00009999999999987796 -0.5655293749999999
v -0.25232937499999997 1.0626000000000002 -0.6282293750000001
v -0.25232937499999997 -0.00009999999999987796 -0.6282293749999999
vt 0.09765625 0.859375
vt 0.12890625 0.859375
vt 0.12890625 0.85546875
vt 0.09765625 0.85546875
vt 0.03125 0.859375
vt 0.09765625 0.859375
vt 0.09765625 0.85546875
vt 0.03125 0.85546875
vt 0.1953125 0.859375
vt 0.2265625 0.859375
vt 0.2265625 0.85546875
vt 0.1953125 0.85546875
vt 0.12890625 0.859375
vt 0.1953125 0.859375
vt 0.1953125 0.85546875
vt 0.12890625 0.85546875
vt 0.12890625 0.859375
vt 0.09765625 0.859375
vt 0.09765625 0.92578125
vt 0.12890625 0.92578125
vt 0.16015625 0.92578125
vt 0.12890625 0.92578125
vt 0.12890625 0.859375
vt 0.16015625 0.859375
vn 0 1 -2.220446049250313e-16
vn 1 0 0
vn 0 -1 2.220446049250313e-16
vn -1 0 0
vn 0 2.220446049250313e-16 1
vn 0 -2.220446049250313e-16 -1
usemtl m_ff726480-b4f7-a14e-d120-d9a54e4ad079
f 20/52/13 23/51/13 21/50/13 18/49/13
f 19/56/14 20/55/14 18/54/14 17/53/14
f 24/60/15 19/59/15 17/58/15 22/57/15
f 23/64/16 24/63/16 22/62/16 21/61/16
f 22/68/17 17/67/17 18/66/17 21/65/17
f 23/72/18 20/71/18 19/70/18 24/69/18
o cube
v 0.5601575 -0.00011249999999984883 0.24698312500000005
v 0.5601575000000002 1.0626125000000002 0.24698312499999983
v 0.6228824999999999 -0.00011249999999984883 0.24698312500000005
v 0.6228825000000002 1.0626125000000002 0.24698312499999983
v 0.5601575000000002 1.0626125 -0.2532418750000001
v 0.5601575 -0.00011249999999995985 -0.2532418749999999
v 0.6228825000000002 1.0626125 -0.2532418750000001
v 0.6228824999999999 -0.00011249999999995985 -0.2532418749999999
vt 0.09765625 0.78515625
vt 0.12890625 0.78515625
vt 0.12890625 0.78125
vt 0.09765625 0.78125
vt 0.03125 0.78515625
vt 0.09765625 0.78515625
vt 0.09765625 0.78125
vt 0.03125 0.78125
vt 0.1953125 0.78515625
vt 0.2265625 0.78515625
vt 0.2265625 0.78125
vt 0.1953125 0.78125
vt 0.12890625 0.78515625
vt 0.1953125 0.78515625
vt 0.1953125 0.78125
vt 0.12890625 0.78125
vt 0.12890625 0.78515625
vt 0.09765625 0.78515625
vt 0.09765625 0.8515625
vt 0.12890625 0.8515625
vt 0.16015625 0.8515625
vt 0.12890625 0.8515625
vt 0.12890625 0.78515625
vt 0.16015625 0.78515625
vn 2.220446049250313e-16 1 -2.220446049250313e-16
vn 4.930380657631324e-32 2.220446049250313e-16 1
vn -2.220446049250313e-16 -1 2.220446049250313e-16
vn -4.930380657631324e-32 -2.220446049250313e-16 -1
vn -1 2.220446049250313e-16 -4.930380657631324e-32
vn 1 -2.220446049250313e-16 4.930380657631324e-32
usemtl m_ff726480-b4f7-a14e-d120-d9a54e4ad079
f 28/76/19 31/75/19 29/74/19 26/73/19
f 27/80/20 28/79/20 26/78/20 25/77/20
f 32/84/21 27/83/21 25/82/21 30/81/21
f 31/88/22 32/87/22 30/86/22 29/85/22
f 30/92/23 25/91/23 26/90/23 29/89/23
f 31/96/24 28/95/24 27/94/24 32/93/24
o cube
v -0.6272300000000001 0 0.2468706250000001
v -0.6272299999999998 1.0625 0.24687062499999987
v -0.5647300000000001 0 0.2468706250000001
v -0.5647299999999998 1.0625 0.24687062499999987
v -0.6272299999999998 1.0625 -0.2531293750000001
v -0.6272300000000001 -1.1102230246251565e-16 -0.2531293749999999
v -0.5647299999999998 1.0625 -0.2531293750000001
v -0.5647300000000001 -1.1102230246251565e-16 -0.2531293749999999
vt 0.09765625 0.7109375
vt 0.12890625 0.7109375
vt 0.12890625 0.70703125
vt 0.09765625 0.70703125
vt 0.03125 0.7109375
vt 0.09765625 0.7109375
vt 0.09765625 0.70703125
vt 0.03125 0.70703125
vt 0.1953125 0.7109375
vt 0.2265625 0.7109375
vt 0.2265625 0.70703125
vt 0.1953125 0.70703125
vt 0.12890625 0.7109375
vt 0.1953125 0.7109375
vt 0.1953125 0.70703125
vt 0.12890625 0.70703125
vt 0.12890625 0.7109375
vt 0.09765625 0.7109375
vt 0.09765625 0.77734375
vt 0.12890625 0.77734375
vt 0.16015625 0.77734375
vt 0.12890625 0.77734375
vt 0.12890625 0.7109375
vt 0.16015625 0.7109375
vn 2.220446049250313e-16 1 -2.220446049250313e-16
vn 4.930380657631324e-32 2.220446049250313e-16 1
vn -2.220446049250313e-16 -1 2.220446049250313e-16
vn -4.930380657631324e-32 -2.220446049250313e-16 -1
vn -1 2.220446049250313e-16 -4.930380657631324e-32
vn 1 -2.220446049250313e-16 4.930380657631324e-32
usemtl m_ff726480-b4f7-a14e-d120-d9a54e4ad079
f 36/100/25 39/99/25 37/98/25 34/97/25
f 35/104/26 36/103/26 34/102/26 33/101/26
f 40/108/27 35/107/27 33/106/27 38/105/27
f 39/112/28 40/111/28 38/110/28 37/109/28
f 38/116/29 33/115/29 34/114/29 37/113/29
f 39/120/30 36/119/30 35/118/30 40/117/30
o cube
v 0.247858125 -0.0000874999999999071 0.6219581250000001
v 0.247858125 1.0625875 0.6219581249999999
v 0.247858125 -0.0000874999999999071 0.5592831250000001
v 0.247858125 1.0625875 0.5592831249999999
v -0.252316875 1.0625875 0.6219581249999999
v -0.252316875 -0.0000874999999999071 0.6219581250000001
v -0.252316875 1.0625875 0.5592831249999999
v -0.252316875 -0.0000874999999999071 0.5592831250000001
vt 0.09765625 0.93359375
vt 0.12890625 0.93359375
vt 0.12890625 0.9296875
vt 0.09765625 0.9296875
vt 0.03125 0.93359375
vt 0.09765625 0.93359375
vt 0.09765625 0.9296875
vt 0.03125 0.9296875
vt 0.1953125 0.93359375
vt 0.2265625 0.93359375
vt 0.2265625 0.9296875
vt 0.1953125 0.9296875
vt 0.12890625 0.93359375
vt 0.1953125 0.93359375
vt 0.1953125 0.9296875
vt 0.12890625 0.9296875
vt 0.12890625 0.93359375
vt 0.09765625 0.93359375
vt 0.09765625 1
vt 0.12890625 1
vt 0.16015625 1
vt 0.12890625 1
vt 0.12890625 0.93359375
vt 0.16015625 0.93359375
vn 0 1 -2.220446049250313e-16
vn 1 0 0
vn 0 -1 2.220446049250313e-16
vn -1 0 0
vn 0 2.220446049250313e-16 1
vn 0 -2.220446049250313e-16 -1
usemtl m_ff726480-b4f7-a14e-d120-d9a54e4ad079
f 44/124/31 47/123/31 45/122/31 42/121/31
f 43/128/32 44/127/32 42/126/32 41/125/32
f 48/132/33 43/131/33 41/130/33 46/129/33
f 47/136/34 48/135/34 46/134/34 45/133/34
f 46/140/35 41/139/35 42/138/35 45/137/35
f 47/144/36 44/143/36 43/142/36 48/141/36
o cube
v 0.24787062499999998 -0.00009999999999987796 -0.5655293749999999
v 0.24787062499999998 1.0626000000000002 -0.5655293750000001
v 0.24787062499999998 -0.00009999999999987796 -0.6282293749999999
v 0.24787062499999998 1.0626000000000002 -0.6282293750000001
v -0.25232937499999997 1.0626000000000002 -0.5655293750000001
v -0.25232937499999997 -0.00009999999999987796 -0.5655293749999999
v -0.25232937499999997 1.0626000000000002 -0.6282293750000001
v -0.25232937499999997 -0.00009999999999987796 -0.6282293749999999
vt 0.09765625 0.859375
vt 0.12890625 0.859375
vt 0.12890625 0.85546875
vt 0.09765625 0.85546875
vt 0.03125 0.859375
vt 0.09765625 0.859375
vt 0.09765625 0.85546875
vt 0.03125 0.85546875
vt 0.1953125 0.859375
vt 0.2265625 0.859375
vt 0.2265625 0.85546875
vt 0.1953125 0.85546875
vt 0.12890625 0.859375
vt 0.1953125 0.859375
vt 0.1953125 0.85546875
vt 0.12890625 0.85546875
vt 0.12890625 0.859375
vt 0.09765625 0.859375
vt 0.09765625 0.92578125
vt 0.12890625 0.92578125
vt 0.16015625 0.92578125
vt 0.12890625 0.92578125
vt 0.12890625 0.859375
vt 0.16015625 0.859375
vn 0 1 -2.220446049250313e-16
vn 1 0 0
vn 0 -1 2.220446049250313e-16
vn -1 0 0
vn 0 2.220446049250313e-16 1
vn 0 -2.220446049250313e-16 -1
usemtl m_ff726480-b4f7-a14e-d120-d9a54e4ad079
f 52/148/37 55/147/37 53/146/37 50/145/37
f 51/152/38 52/151/38 50/150/38 49/149/38
f 56/156/39 51/155/39 49/154/39 54/153/39
f 55/160/40 56/159/40 54/158/40 53/157/40
f 54/164/41 49/163/41 50/162/41 53/161/41
f 55/168/42 52/167/42 51/166/42 56/165/42
o cube
v 0.5601575 -0.00011249999999984883 0.24698312500000005
v 0.5601575000000002 1.0626125000000002 0.24698312499999983
v 0.6228824999999999 -0.00011249999999984883 0.24698312500000005
v 0.6228825000000002 1.0626125000000002 0.24698312499999983
v 0.5601575000000002 1.0626125 -0.2532418750000001
v 0.5601575 -0.00011249999999995985 -0.2532418749999999
v 0.6228825000000002 1.0626125 -0.2532418750000001
v 0.6228824999999999 -0.00011249999999995985 -0.2532418749999999
vt 0.09765625 0.78515625
vt 0.12890625 0.78515625
vt 0.12890625 0.78125
vt 0.09765625 0.78125
vt 0.03125 0.78515625
vt 0.09765625 0.78515625
vt 0.09765625 0.78125
vt 0.03125 0.78125
vt 0.1953125 0.78515625
vt 0.2265625 0.78515625
vt 0.2265625 0.78125
vt 0.1953125 0.78125
vt 0.12890625 0.78515625
vt 0.1953125 0.78515625
vt 0.1953125 0.78125
vt 0.12890625 0.78125
vt 0.12890625 0.78515625
vt 0.09765625 0.78515625
vt 0.09765625 0.8515625
vt 0.12890625 0.8515625
vt 0.16015625 0.8515625
vt 0.12890625 0.8515625
vt 0.12890625 0.78515625
vt 0.16015625 0.78515625
vn 2.220446049250313e-16 1 -2.220446049250313e-16
vn 4.930380657631324e-32 2.220446049250313e-16 1
vn -2.220446049250313e-16 -1 2.220446049250313e-16
vn -4.930380657631324e-32 -2.220446049250313e-16 -1
vn -1 2.220446049250313e-16 -4.930380657631324e-32
vn 1 -2.220446049250313e-16 4.930380657631324e-32
usemtl m_ff726480-b4f7-a14e-d120-d9a54e4ad079
f 60/172/43 63/171/43 61/170/43 58/169/43
f 59/176/44 60/175/44 58/174/44 57/173/44
f 64/180/45 59/179/45 57/178/45 62/177/45
f 63/184/46 64/183/46 62/182/46 61/181/46
f 62/188/47 57/187/47 58/186/47 61/185/47
f 63/192/48 60/191/48 59/190/48 64/189/48
o cube
v -0.6272300000000001 0 0.2468706250000001
v -0.6272299999999998 1.0625 0.24687062499999987
v -0.5647300000000001 0 0.2468706250000001
v -0.5647299999999998 1.0625 0.24687062499999987
v -0.6272299999999998 1.0625 -0.2531293750000001
v -0.6272300000000001 -1.1102230246251565e-16 -0.2531293749999999
v -0.5647299999999998 1.0625 -0.2531293750000001
v -0.5647300000000001 -1.1102230246251565e-16 -0.2531293749999999
vt 0.09765625 0.7109375
vt 0.12890625 0.7109375
vt 0.12890625 0.70703125
vt 0.09765625 0.70703125
vt 0.03125 0.7109375
vt 0.09765625 0.7109375
vt 0.09765625 0.70703125
vt 0.03125 0.70703125
vt 0.1953125 0.7109375
vt 0.2265625 0.7109375
vt 0.2265625 0.70703125
vt 0.1953125 0.70703125
vt 0.12890625 0.7109375
vt 0.1953125 0.7109375
vt 0.1953125 0.70703125
vt 0.12890625 0.70703125
vt 0.12890625 0.7109375
vt 0.09765625 0.7109375
vt 0.09765625 0.77734375
vt 0.12890625 0.77734375
vt 0.16015625 0.77734375
vt 0.12890625 0.77734375
vt 0.12890625 0.7109375
vt 0.16015625 0.7109375
vn 2.220446049250313e-16 1 -2.220446049250313e-16
vn 4.930380657631324e-32 2.220446049250313e-16 1
vn -2.220446049250313e-16 -1 2.220446049250313e-16
vn -4.930380657631324e-32 -2.220446049250313e-16 -1
vn -1 2.220446049250313e-16 -4.930380657631324e-32
vn 1 -2.220446049250313e-16 4.930380657631324e-32
usemtl m_ff726480-b4f7-a14e-d120-d9a54e4ad079
f 68/196/49 71/195/49 69/194/49 66/193/49
f 67/200/50 68/199/50 66/198/50 65/197/50
f 72/204/51 67/203/51 65/202/51 70/201/51
f 71/208/52 72/207/52 70/206/52 69/205/52
f 70/212/53 65/211/53 66/210/53 69/209/53
f 71/216/54 68/215/54 67/214/54 72/213/54
o cube
v 0.247858125 -0.00008750000000001812 0.37195812500000014
v 0.247858125 0.5000875 0.37195812500000003
v 0.247858125 -0.00008750000000001812 0.3092831250000001
v 0.247858125 0.5000875 0.309283125
v -0.252316875 0.5000875 0.37195812500000003
v -0.252316875 -0.00008750000000001812 0.37195812500000014
v -0.252316875 0.5000875 0.309283125
v -0.252316875 -0.00008750000000001812 0.3092831250000001
vt 0.09765625 0.93359375
vt 0.12890625 0.93359375
vt 0.12890625 0.9296875
vt 0.09765625 0.9296875
vt 0.06640625 0.93359375
vt 0.09765625 0.93359375
vt 0.09765625 0.9296875
vt 0.06640625 0.9296875
vt 0.16015625 0.93359375
vt 0.19140625 0.93359375
vt 0.19140625 0.9296875
vt 0.16015625 0.9296875
vt 0.12890625 0.93359375
vt 0.16015625 0.93359375
vt 0.16015625 0.9296875
vt 0.12890625 0.9296875
vt 0.12890625 0.93359375
vt 0.09765625 0.93359375
vt 0.09765625 0.96484375
vt 0.12890625 0.96484375
vt 0.16015625 0.96484375
vt 0.12890625 0.96484375
vt 0.12890625 0.93359375
vt 0.16015625 0.93359375
vn 0 1 -2.220446049250313e-16
vn 1 0 0
vn 0 -1 2.220446049250313e-16
vn -1 0 0
vn 0 2.220446049250313e-16 1
vn 0 -2.220446049250313e-16 -1
usemtl m_ff726480-b4f7-a14e-d120-d9a54e4ad079
f 76/220/55 79/219/55 77/218/55 74/217/55
f 75/224/56 76/223/56 74/222/56 73/221/56
f 80/228/57 75/227/57 73/226/57 78/225/57
f 79/232/58 80/231/58 78/230/58 77/229/58
f 78/236/59 73/235/59 74/234/59 77/233/59
f 79/240/60 76/239/60 75/238/60 80/237/60
o cube
v 0.24787062499999998 -0.00009999999999998899 -0.3155293749999999
v 0.24787062499999998 0.5001 -0.315529375
v 0.24787062499999998 -0.00009999999999998899 -0.37822937499999987
v 0.24787062499999998 0.5001 -0.378229375
v -0.25232937499999997 0.5001 -0.315529375
v -0.25232937499999997 -0.00009999999999998899 -0.3155293749999999
v -0.25232937499999997 0.5001 -0.378229375
v -0.25232937499999997 -0.00009999999999998899 -0.37822937499999987
vt 0.09765625 0.859375
vt 0.12890625 0.859375
vt 0.12890625 0.85546875
vt 0.09765625 0.85546875
vt 0.06640625 0.859375
vt 0.09765625 0.859375
vt 0.09765625 0.85546875
vt 0.06640625 0.85546875
vt 0.16015625 0.859375
vt 0.19140625 0.859375
vt 0.19140625 0.85546875
vt 0.16015625 0.85546875
vt 0.12890625 0.859375
vt 0.16015625 0.859375
vt 0.16015625 0.85546875
vt 0.12890625 0.85546875
vt 0.12890625 0.859375
vt 0.09765625 0.859375
vt 0.09765625 0.890625
vt 0.12890625 0.890625
vt 0.16015625 0.890625
vt 0.12890625 0.890625
vt 0.12890625 0.859375
vt 0.16015625 0.859375
vn 0 1 -2.220446049250313e-16
vn 1 0 0
vn 0 -1 2.220446049250313e-16
vn -1 0 0
vn 0 2.220446049250313e-16 1
vn 0 -2.220446049250313e-16 -1
usemtl m_ff726480-b4f7-a14e-d120-d9a54e4ad079
f 84/244/61 87/243/61 85/242/61 82/241/61
f 83/248/62 84/247/62 82/246/62 81/245/62
f 88/252/63 83/251/63 81/250/63 86/249/63
f 87/256/64 88/255/64 86/254/64 85/253/64
f 86/260/65 81/259/65 82/258/65 85/257/65
f 87/264/66 84/263/66 83/262/66 88/261/66
o cube
v 0.31015749999999986 -0.00011249999999995985 0.2469831250000001
v 0.31015750000000003 0.5001125000000001 0.246983125
v 0.3728824999999999 -0.00011249999999995985 0.2469831250000001
v 0.3728825 0.5001125000000001 0.246983125
v 0.31015750000000003 0.5001125 -0.253241875
v 0.31015749999999986 -0.00011250000000007088 -0.2532418749999999
v 0.3728825 0.5001125 -0.253241875
v 0.3728824999999999 -0.00011250000000007088 -0.2532418749999999
vt 0.09765625 0.78515625
vt 0.12890625 0.78515625
vt 0.12890625 0.78125
vt 0.09765625 0.78125
vt 0.06640625 0.78515625
vt 0.09765625 0.78515625
vt 0.09765625 0.78125
vt 0.06640625 0.78125
vt 0.16015625 0.78515625
vt 0.19140625 0.78515625
vt 0.19140625 0.78125
vt 0.16015625 0.78125
vt 0.12890625 0.78515625
vt 0.16015625 0.78515625
vt 0.16015625 0.78125
vt 0.12890625 0.78125
vt 0.12890625 0.78515625
vt 0.09765625 0.78515625
vt 0.09765625 0.81640625
vt 0.12890625 0.81640625
vt 0.16015625 0.81640625
vt 0.12890625 0.81640625
vt 0.12890625 0.78515625
vt 0.16015625 0.78515625
vn 2.220446049250313e-16 1 -2.220446049250313e-16
vn 4.930380657631324e-32 2.220446049250313e-16 1
vn -2.220446049250313e-16 -1 2.220446049250313e-16
vn -4.930380657631324e-32 -2.220446049250313e-16 -1
vn -1 2.220446049250313e-16 -4.930380657631324e-32
vn 1 -2.220446049250313e-16 4.930380657631324e-32
usemtl m_ff726480-b4f7-a14e-d120-d9a54e4ad079
f 92/268/67 95/267/67 93/266/67 90/265/67
f 91/272/68 92/271/68 90/270/68 89/269/68
f 96/276/69 91/275/69 89/274/69 94/273/69
f 95/280/70 96/279/70 94/278/70 93/277/70
f 94/284/71 89/283/71 90/282/71 93/281/71
f 95/288/72 92/287/72 91/286/72 96/285/72
o cube
v -0.3772300000000001 0 0.2468706250000001
v -0.37723 0.5 0.24687062499999998
v -0.3147300000000001 0 0.2468706250000001
v -0.31473 0.5 0.24687062499999998
v -0.37723 0.49999999999999994 -0.25312937499999993
v -0.3772300000000001 -1.1102230246251565e-16 -0.2531293749999998
v -0.31473 0.4999999999999999 -0.25312937499999993
v -0.3147300000000001 -1.1102230246251565e-16 -0.2531293749999998
vt 0.09765625 0.7109375
vt 0.12890625 0.7109375
vt 0.12890625 0.70703125
vt 0.09765625 0.70703125
vt 0.06640625 0.7109375
vt 0.09765625 0.7109375
vt 0.09765625 0.70703125
vt 0.06640625 0.70703125
vt 0.16015625 0.7109375
vt 0.19140625 0.7109375
vt 0.19140625 0.70703125
vt 0.16015625 0.70703125
vt 0.12890625 0.7109375
vt 0.16015625 0.7109375
vt 0.16015625 0.70703125
vt 0.12890625 0.70703125
vt 0.12890625 0.7109375
vt 0.09765625 0.7109375
vt 0.09765625 0.7421875
vt 0.12890625 0.7421875
vt 0.16015625 0.7421875
vt 0.12890625 0.7421875
vt 0.12890625 0.7109375
vt 0.16015625 0.7109375
vn 2.220446049250313e-16 1 -2.220446049250313e-16
vn 4.930380657631324e-32 2.220446049250313e-16 1
vn -2.220446049250313e-16 -1 2.220446049250313e-16
vn -4.930380657631324e-32 -2.220446049250313e-16 -1
vn -1 2.220446049250313e-16 -4.930380657631324e-32
vn 1 -2.220446049250313e-16 4.930380657631324e-32
usemtl m_ff726480-b4f7-a14e-d120-d9a54e4ad079
f 100/292/73 103/291/73 101/290/73 98/289/73
f 99/296/74 100/295/74 98/294/74 97/293/74
f 104/300/75 99/299/75 97/298/75 102/297/75
f 103/304/76 104/303/76 102/302/76 101/301/76
f 102/308/77 97/307/77 98/306/77 101/305/77
f 103/312/78 100/311/78 99/310/78 104/309/78
o cube
v 0.4398359238700381 0.5624125 0.08525853070658018
v 0.439835923870038 1.0625875 0.0852585307065801
v 0.3955180063591712 0.5624125 0.04094061319571332
v 0.3955180063591711 1.0625875 0.04094061319571324
v 0.08615878959005663 1.0625875 0.43893566498656156
v 0.08615878959005671 0.5624125 0.4389356649865616
v 0.04184087207918974 1.0625875 0.39461774747569467
v 0.04184087207918982 0.5624125 0.3946177474756948
vt 0.09765625 0.93359375
vt 0.12890625 0.93359375
vt 0.12890625 0.9296875
vt 0.09765625 0.9296875
vt 0.06640625 0.93359375
vt 0.09765625 0.93359375
vt 0.09765625 0.9296875
vt 0.06640625 0.9296875
vt 0.16015625 0.93359375
vt 0.19140625 0.93359375
vt 0.19140625 0.9296875
vt 0.16015625 0.9296875
vt 0.12890625 0.93359375
vt 0.16015625 0.93359375
vt 0.16015625 0.9296875
vt 0.12890625 0.9296875
vt 0.12890625 0.93359375
vt 0.09765625 0.93359375
vt 0.09765625 0.96484375
vt 0.12890625 0.96484375
vt 0.16015625 0.96484375
vt 0.12890625 0.96484375
vt 0.12890625 0.93359375
vt 0.16015625 0.93359375
vn -1.5700924586837752e-16 1 -1.570092458683775e-16
vn 0.7071067811865475 0 -0.7071067811865476
vn 1.5700924586837752e-16 -1 1.570092458683775e-16
vn -0.7071067811865475 0 0.7071067811865476
vn 0.7071067811865476 2.220446049250313e-16 0.7071067811865475
vn -0.7071067811865476 -2.220446049250313e-16 -0.7071067811865475
usemtl m_ff726480-b4f7-a14e-d120-d9a54e4ad079
f 108/316/79 111/315/79 109/314/79 106/313/79
f 107/320/80 108/319/80 106/318/80 105/317/80
f 112/324/81 107/323/81 105/322/81 110/321/81
f 111/328/82 112/327/82 110/326/82 109/325/82
f 110/332/83 105/331/83 106/330/83 109/329/83
f 111/336/84 108/335/84 107/334/84 112/333/84
o cube
v -0.04628231052618373 0.5624 -0.40087738135917117
v -0.04628231052618381 1.0626 -0.4008773813591713
v -0.09061790570658027 0.5624 -0.4452129765395677
v -0.09061790570658035 1.0626 -0.44521297653956776
v -0.39997712247569484 1.0626 -0.0471825694096602
v -0.3999771224756947 0.5624 -0.04718256940966012
v -0.44431271765609137 1.0626 -0.09151816459005668
v -0.44431271765609126 0.5624 -0.0915181645900566
vt 0.09765625 0.859375
vt 0.12890625 0.859375
vt 0.12890625 0.85546875
vt 0.09765625 0.85546875
vt 0.06640625 0.859375
vt 0.09765625 0.859375
vt 0.09765625 0.85546875
vt 0.06640625 0.85546875
vt 0.16015625 0.859375
vt 0.19140625 0.859375
vt 0.19140625 0.85546875
vt 0.16015625 0.85546875
vt 0.12890625 0.859375
vt 0.16015625 0.859375
vt 0.16015625 0.85546875
vt 0.12890625 0.85546875
vt 0.12890625 0.859375
vt 0.09765625 0.859375
vt 0.09765625 0.890625
vt 0.12890625 0.890625
vt 0.16015625 0.890625
vt 0.12890625 0.890625
vt 0.12890625 0.859375
vt 0.16015625 0.859375
vn -1.5700924586837752e-16 1 -1.570092458683775e-16
vn 0.7071067811865475 0 -0.7071067811865476
vn 1.5700924586837752e-16 -1 1.570092458683775e-16
vn -0.7071067811865475 0 0.7071067811865476
vn 0.7071067811865476 2.220446049250313e-16 0.7071067811865475
vn -0.7071067811865476 -2.220446049250313e-16 -0.7071067811865475
usemtl m_ff726480-b4f7-a14e-d120-d9a54e4ad079
f 116/340/85 119/339/85 117/338/85 114/337/85
f 115/344/86 116/343/86 114/342/86 113/341/86
f 120/348/87 115/347/87 113/346/87 118/345/87
f 119/352/88 120/351/88 118/350/88 117/349/88
f 118/356/89 113/355/89 114/354/89 117/353/89
f 119/360/90 116/359/90 115/358/90 120/357/90
o cube
v 0.395517564417433 0.5623875 -0.04716444979839228
v 0.395517564417433 1.0626125000000002 -0.04716444979839243
v 0.4398708372673591 0.5623875 -0.09151772264831845
v 0.4398708372673591 1.0626125000000002 -0.0915177226483186
v 0.04180507479839221 1.0626125000000002 -0.4008769394174332
v 0.04180507479839221 0.5623874999999999 -0.400876939417433
v 0.08615834764831837 1.0626125000000002 -0.4452302122673593
v 0.08615834764831837 0.5623874999999999 -0.44523021226735915
vt 0.09765625 0.78515625
vt 0.12890625 0.78515625
vt 0.12890625 0.78125
vt 0.09765625 0.78125
vt 0.06640625 0.78515625
vt 0.09765625 0.78515625
vt 0.09765625 0.78125
vt 0.06640625 0.78125
vt 0.16015625 0.78515625
vt 0.19140625 0.78515625
vt 0.19140625 0.78125
vt 0.16015625 0.78125
vt 0.12890625 0.78515625
vt 0.16015625 0.78515625
vt 0.16015625 0.78125
vt 0.12890625 0.78125
vt 0.12890625 0.78515625
vt 0.09765625 0.78515625
vt 0.09765625 0.81640625
vt 0.12890625 0.81640625
vt 0.16015625 0.81640625
vt 0.12890625 0.81640625
vt 0.12890625 0.78515625
vt 0.16015625 0.78515625
vn -2.465190328815662e-32 1 -3.14018491736755e-16
vn 0.7071067811865476 2.2204460492503128e-16 0.7071067811865475
vn 2.465190328815662e-32 -1 3.14018491736755e-16
vn -0.7071067811865476 -2.2204460492503128e-16 -0.7071067811865475
vn -0.7071067811865475 2.2204460492503128e-16 0.7071067811865476
vn 0.7071067811865475 -2.2204460492503128e-16 -0.7071067811865476
usemtl m_ff726480-b4f7-a14e-d120-d9a54e4ad079
f 124/364/91 127/363/91 125/362/91 122/361/91
f 123/368/92 124/367/92 122/366/92 121/365/92
f 128/372/93 123/371/93 121/370/93 126/369/93
f 127/376/94 128/375/94 126/374/94 125/373/94
f 126/380/95 121/379/95 122/378/95 125/377/95
f 127/384/96 124/383/96 123/382/96 128/381/96
o cube
v -0.09061834764831839 0.5625 0.43881236324159223
v -0.09061834764831839 1.0625 0.43881236324159206
v -0.0464241738241592 0.5625 0.394618189417433
v -0.0464241738241592 1.0625 0.3946181894174328
v -0.4441717382415922 1.0625 0.08525897264831833
v -0.4441717382415922 0.5624999999999999 0.0852589726483185
v -0.39997756441743293 1.0625 0.04106479882415909
v -0.39997756441743293 0.5624999999999999 0.041064798824159254
vt 0.09765625 0.7109375
vt 0.12890625 0.7109375
vt 0.12890625 0.70703125
vt 0.09765625 0.70703125
vt 0.06640625 0.7109375
vt 0.09765625 0.7109375
vt 0.09765625 0.70703125
vt 0.06640625 0.70703125
vt 0.16015625 0.7109375
vt 0.19140625 0.7109375
vt 0.19140625 0.70703125
vt 0.16015625 0.70703125
vt 0.12890625 0.7109375
vt 0.16015625 0.7109375
vt 0.16015625 0.70703125
vt 0.12890625 0.70703125
vt 0.12890625 0.7109375
vt 0.09765625 0.7109375
vt 0.09765625 0.7421875
vt 0.12890625 0.7421875
vt 0.16015625 0.7421875
vt 0.12890625 0.7421875
vt 0.12890625 0.7109375
vt 0.16015625 0.7109375
vn -2.465190328815662e-32 1 -3.14018491736755e-16
vn 0.7071067811865476 2.2204460492503128e-16 0.7071067811865475
vn 2.465190328815662e-32 -1 3.14018491736755e-16
vn -0.7071067811865476 -2.2204460492503128e-16 -0.7071067811865475
vn -0.7071067811865475 2.2204460492503128e-16 0.7071067811865476
vn 0.7071067811865475 -2.2204460492503128e-16 -0.7071067811865476
usemtl m_ff726480-b4f7-a14e-d120-d9a54e4ad079
f 132/388/97 135/387/97 133/386/97 130/385/97
f 131/392/98 132/391/98 130/390/98 129/389/98
f 136/396/99 131/395/99 129/394/99 134/393/99
f 135/400/100 136/399/100 134/398/100 133/397/100
f 134/404/101 129/403/101 130/402/101 133/401/101
f 135/408/102 132/407/102 131/406/102 136/405/102
o cube
v 0.4398359238700381 0.5624125 0.08525853070658018
v 0.439835923870038 1.0625875 0.0852585307065801
v 0.3955180063591712 0.5624125 0.04094061319571332
v 0.3955180063591711 1.0625875 0.04094061319571324
v 0.08615878959005663 1.0625875 0.43893566498656156
v 0.08615878959005671 0.5624125 0.4389356649865616
v 0.04184087207918974 1.0625875 0.39461774747569467
v 0.04184087207918982 0.5624125 0.3946177474756948
vt 0.09765625 0.93359375
vt 0.12890625 0.93359375
vt 0.12890625 0.9296875
vt 0.09765625 0.9296875
vt 0.06640625 0.93359375
vt 0.09765625 0.93359375
vt 0.09765625 0.9296875
vt 0.06640625 0.9296875
vt 0.16015625 0.93359375
vt 0.19140625 0.93359375
vt 0.19140625 0.9296875
vt 0.16015625 0.9296875
vt 0.12890625 0.93359375
vt 0.16015625 0.93359375
vt 0.16015625 0.9296875
vt 0.12890625 0.9296875
vt 0.12890625 0.93359375
vt 0.09765625 0.93359375
vt 0.09765625 0.96484375
vt 0.12890625 0.96484375
vt 0.16015625 0.96484375
vt 0.12890625 0.96484375
vt 0.12890625 0.93359375
vt 0.16015625 0.93359375
vn -1.5700924586837752e-16 1 -1.570092458683775e-16
vn 0.7071067811865475 0 -0.7071067811865476
vn 1.5700924586837752e-16 -1 1.570092458683775e-16
vn -0.7071067811865475 0 0.7071067811865476
vn 0.7071067811865476 2.220446049250313e-16 0.7071067811865475
vn -0.7071067811865476 -2.220446049250313e-16 -0.7071067811865475
usemtl m_ff726480-b4f7-a14e-d120-d9a54e4ad079
f 140/412/103 143/411/103 141/410/103 138/409/103
f 139/416/104 140/415/104 138/414/104 137/413/104
f 144/420/105 139/419/105 137/418/105 142/417/105
f 143/424/106 144/423/106 142/422/106 141/421/106
f 142/428/107 137/427/107 138/426/107 141/425/107
f 143/432/108 140/431/108 139/430/108 144/429/108
o cube
v -0.04628231052618373 0.5624 -0.40087738135917117
v -0.04628231052618381 1.0626 -0.4008773813591713
v -0.09061790570658027 0.5624 -0.4452129765395677
v -0.09061790570658035 1.0626 -0.44521297653956776
v -0.39997712247569484 1.0626 -0.0471825694096602
v -0.3999771224756947 0.5624 -0.04718256940966012
v -0.44431271765609137 1.0626 -0.09151816459005668
v -0.44431271765609126 0.5624 -0.0915181645900566
vt 0.09765625 0.859375
vt 0.12890625 0.859375
vt 0.12890625 0.85546875
vt 0.09765625 0.85546875
vt 0.06640625 0.859375
vt 0.09765625 0.859375
vt 0.09765625 0.85546875
vt 0.06640625 0.85546875
vt 0.16015625 0.859375
vt 0.19140625 0.859375
vt 0.19140625 0.85546875
vt 0.16015625 0.85546875
vt 0.12890625 0.859375
vt 0.16015625 0.859375
vt 0.16015625 0.85546875
vt 0.12890625 0.85546875
vt 0.12890625 0.859375
vt 0.09765625 0.859375
vt 0.09765625 0.890625
vt 0.12890625 0.890625
vt 0.16015625 0.890625
vt 0.12890625 0.890625
vt 0.12890625 0.859375
vt 0.16015625 0.859375
vn -1.5700924586837752e-16 1 -1.570092458683775e-16
vn 0.7071067811865475 0 -0.7071067811865476
vn 1.5700924586837752e-16 -1 1.570092458683775e-16
vn -0.7071067811865475 0 0.7071067811865476
vn 0.7071067811865476 2.220446049250313e-16 0.7071067811865475
vn -0.7071067811865476 -2.220446049250313e-16 -0.7071067811865475
usemtl m_ff726480-b4f7-a14e-d120-d9a54e4ad079
f 148/436/109 151/435/109 149/434/109 146/433/109
f 147/440/110 148/439/110 146/438/110 145/437/110
f 152/444/111 147/443/111 145/442/111 150/441/111
f 151/448/112 152/447/112 150/446/112 149/445/112
f 150/452/113 145/451/113 146/450/113 149/449/113
f 151/456/114 148/455/114 147/454/114 152/453/114
o cube
v 0.395517564417433 0.5623875 -0.04716444979839228
v 0.395517564417433 1.0626125000000002 -0.04716444979839243
v 0.4398708372673591 0.5623875 -0.09151772264831845
v 0.4398708372673591 1.0626125000000002 -0.0915177226483186
v 0.04180507479839221 1.0626125000000002 -0.4008769394174332
v 0.04180507479839221 0.5623874999999999 -0.400876939417433
v 0.08615834764831837 1.0626125000000002 -0.4452302122673593
v 0.08615834764831837 0.5623874999999999 -0.44523021226735915
vt 0.09765625 0.78515625
vt 0.12890625 0.78515625
vt 0.12890625 0.78125
vt 0.09765625 0.78125
vt 0.06640625 0.78515625
vt 0.09765625 0.78515625
vt 0.09765625 0.78125
vt 0.06640625 0.78125
vt 0.16015625 0.78515625
vt 0.19140625 0.78515625
vt 0.19140625 0.78125
vt 0.16015625 0.78125
vt 0.12890625 0.78515625
vt 0.16015625 0.78515625
vt 0.16015625 0.78125
vt 0.12890625 0.78125
vt 0.12890625 0.78515625
vt 0.09765625 0.78515625
vt 0.09765625 0.81640625
vt 0.12890625 0.81640625
vt 0.16015625 0.81640625
vt 0.12890625 0.81640625
vt 0.12890625 0.78515625
vt 0.16015625 0.78515625
vn -2.465190328815662e-32 1 -3.14018491736755e-16
vn 0.7071067811865476 2.2204460492503128e-16 0.7071067811865475
vn 2.465190328815662e-32 -1 3.14018491736755e-16
vn -0.7071067811865476 -2.2204460492503128e-16 -0.7071067811865475
vn -0.7071067811865475 2.2204460492503128e-16 0.7071067811865476
vn 0.7071067811865475 -2.2204460492503128e-16 -0.7071067811865476
usemtl m_ff726480-b4f7-a14e-d120-d9a54e4ad079
f 156/460/115 159/459/115 157/458/115 154/457/115
f 155/464/116 156/463/116 154/462/116 153/461/116
f 160/468/117 155/467/117 153/466/117 158/465/117
f 159/472/118 160/471/118 158/470/118 157/469/118
f 158/476/119 153/475/119 154/474/119 157/473/119
f 159/480/120 156/479/120 155/478/120 160/477/120
o cube
v -0.09061834764831839 0.5625 0.43881236324159223
v -0.09061834764831839 1.0625 0.43881236324159206
v -0.0464241738241592 0.5625 0.394618189417433
v -0.0464241738241592 1.0625 0.3946181894174328
v -0.4441717382415922 1.0625 0.08525897264831833
v -0.4441717382415922 0.5624999999999999 0.0852589726483185
v -0.39997756441743293 1.0625 0.04106479882415909
v -0.39997756441743293 0.5624999999999999 0.041064798824159254
vt 0.09765625 0.7109375
vt 0.12890625 0.7109375
vt 0.12890625 0.70703125
vt 0.09765625 0.70703125
vt 0.06640625 0.7109375
vt 0.09765625 0.7109375
vt 0.09765625 0.70703125
vt 0.06640625 0.70703125
vt 0.16015625 0.7109375
vt 0.19140625 0.7109375
vt 0.19140625 0.70703125
vt 0.16015625 0.70703125
vt 0.12890625 0.7109375
vt 0.16015625 0.7109375
vt 0.16015625 0.70703125
vt 0.12890625 0.70703125
vt 0.12890625 0.7109375
vt 0.09765625 0.7109375
vt 0.09765625 0.7421875
vt 0.12890625 0.7421875
vt 0.16015625 0.7421875
vt 0.12890625 0.7421875
vt 0.12890625 0.7109375
vt 0.16015625 0.7109375
vn -2.465190328815662e-32 1 -3.14018491736755e-16
vn 0.7071067811865476 2.2204460492503128e-16 0.7071067811865475
vn 2.465190328815662e-32 -1 3.14018491736755e-16
vn -0.7071067811865476 -2.2204460492503128e-16 -0.7071067811865475
vn -0.7071067811865475 2.2204460492503128e-16 0.7071067811865476
vn 0.7071067811865475 -2.2204460492503128e-16 -0.7071067811865476
usemtl m_ff726480-b4f7-a14e-d120-d9a54e4ad079
f 164/484/121 167/483/121 165/482/121 162/481/121
f 163/488/122 164/487/122 162/486/122 161/485/122
f 168/492/123 163/491/123 161/490/123 166/489/123
f 167/496/124 168/495/124 166/494/124 165/493/124
f 166/500/125 161/499/125 162/498/125 165/497/125
f 167/504/126 164/503/126 163/502/126 168/501/126
o cube
v 0.247858125 -0.00008750000000001812 0.37195812500000014
v 0.247858125 0.5000875 0.37195812500000003
v 0.247858125 -0.00008750000000001812 0.3092831250000001
v 0.247858125 0.5000875 0.309283125
v -0.252316875 0.5000875 0.37195812500000003
v -0.252316875 -0.00008750000000001812 0.37195812500000014
v -0.252316875 0.5000875 0.309283125
v -0.252316875 -0.00008750000000001812 0.3092831250000001
vt 0.09765625 0.93359375
vt 0.12890625 0.93359375
vt 0.12890625 0.9296875
vt 0.09765625 0.9296875
vt 0.06640625 0.93359375
vt 0.09765625 0.93359375
vt 0.09765625 0.9296875
vt 0.06640625 0.9296875
vt 0.16015625 0.93359375
vt 0.19140625 0.93359375
vt 0.19140625 0.9296875
vt 0.16015625 0.9296875
vt 0.12890625 0.93359375
vt 0.16015625 0.93359375
vt 0.16015625 0.9296875
vt 0.12890625 0.9296875
vt 0.12890625 0.93359375
vt 0.09765625 0.93359375
vt 0.09765625 0.96484375
vt 0.12890625 0.96484375
vt 0.16015625 0.96484375
vt 0.12890625 0.96484375
vt 0.12890625 0.93359375
vt 0.16015625 0.93359375
vn 0 1 -2.220446049250313e-16
vn 1 0 0
vn 0 -1 2.220446049250313e-16
vn -1 0 0
vn 0 2.220446049250313e-16 1
vn 0 -2.220446049250313e-16 -1
usemtl m_ff726480-b4f7-a14e-d120-d9a54e4ad079
f 172/508/127 175/507/127 173/506/127 170/505/127
f 171/512/128 172/511/128 170/510/128 169/509/128
f 176/516/129 171/515/129 169/514/129 174/513/129
f 175/520/130 176/519/130 174/518/130 173/517/130
f 174/524/131 169/523/131 170/522/131 173/521/131
f 175/528/132 172/527/132 171/526/132 176/525/132
o cube
v 0.24787062499999998 -0.00009999999999998899 -0.3155293749999999
v 0.24787062499999998 0.5001 -0.315529375
v 0.24787062499999998 -0.00009999999999998899 -0.37822937499999987
v 0.24787062499999998 0.5001 -0.378229375
v -0.25232937499999997 0.5001 -0.315529375
v -0.25232937499999997 -0.00009999999999998899 -0.3155293749999999
v -0.25232937499999997 0.5001 -0.378229375
v -0.25232937499999997 -0.00009999999999998899 -0.37822937499999987
vt 0.09765625 0.859375
vt 0.12890625 0.859375
vt 0.12890625 0.85546875
vt 0.09765625 0.85546875
vt 0.06640625 0.859375
vt 0.09765625 0.859375
vt 0.09765625 0.85546875
vt 0.06640625 0.85546875
vt 0.16015625 0.859375
vt 0.19140625 0.859375
vt 0.19140625 0.85546875
vt 0.16015625 0.85546875
vt 0.12890625 0.859375
vt 0.16015625 0.859375
vt 0.16015625 0.85546875
vt 0.12890625 0.85546875
vt 0.12890625 0.859375
vt 0.09765625 0.859375
vt 0.09765625 0.890625
vt 0.12890625 0.890625
vt 0.16015625 0.890625
vt 0.12890625 0.890625
vt 0.12890625 0.859375
vt 0.16015625 0.859375
vn 0 1 -2.220446049250313e-16
vn 1 0 0
vn 0 -1 2.220446049250313e-16
vn -1 0 0
vn 0 2.220446049250313e-16 1
vn 0 -2.220446049250313e-16 -1
usemtl m_ff726480-b4f7-a14e-d120-d9a54e4ad079
f 180/532/133 183/531/133 181/530/133 178/529/133
f 179/536/134 180/535/134 178/534/134 177/533/134
f 184/540/135 179/539/135 177/538/135 182/537/135
f 183/544/136 184/543/136 182/542/136 181/541/136
f 182/548/137 177/547/137 178/546/137 181/545/137
f 183/552/138 180/551/138 179/550/138 184/549/138
o cube
v 0.31015749999999986 -0.00011249999999995985 0.2469831250000001
v 0.31015750000000003 0.5001125000000001 0.246983125
v 0.3728824999999999 -0.00011249999999995985 0.2469831250000001
v 0.3728825 0.5001125000000001 0.246983125
v 0.31015750000000003 0.5001125 -0.253241875
v 0.31015749999999986 -0.00011250000000007088 -0.2532418749999999
v 0.3728825 0.5001125 -0.253241875
v 0.3728824999999999 -0.00011250000000007088 -0.2532418749999999
vt 0.09765625 0.78515625
vt 0.12890625 0.78515625
vt 0.12890625 0.78125
vt 0.09765625 0.78125
vt 0.06640625 0.78515625
vt 0.09765625 0.78515625
vt 0.09765625 0.78125
vt 0.06640625 0.78125
vt 0.16015625 0.78515625
vt 0.19140625 0.78515625
vt 0.19140625 0.78125
vt 0.16015625 0.78125
vt 0.12890625 0.78515625
vt 0.16015625 0.78515625
vt 0.16015625 0.78125
vt 0.12890625 0.78125
vt 0.12890625 0.78515625
vt 0.09765625 0.78515625
vt 0.09765625 0.81640625
vt 0.12890625 0.81640625
vt 0.16015625 0.81640625
vt 0.12890625 0.81640625
vt 0.12890625 0.78515625
vt 0.16015625 0.78515625
vn 2.220446049250313e-16 1 -2.220446049250313e-16
vn 4.930380657631324e-32 2.220446049250313e-16 1
vn -2.220446049250313e-16 -1 2.220446049250313e-16
vn -4.930380657631324e-32 -2.220446049250313e-16 -1
vn -1 2.220446049250313e-16 -4.930380657631324e-32
vn 1 -2.220446049250313e-16 4.930380657631324e-32
usemtl m_ff726480-b4f7-a14e-d120-d9a54e4ad079
f 188/556/139 191/555/139 189/554/139 186/553/139
f 187/560/140 188/559/140 186/558/140 185/557/140
f 192/564/141 187/563/141 185/562/141 190/561/141
f 191/568/142 192/567/142 190/566/142 189/565/142
f 190/572/143 185/571/143 186/570/143 189/569/143
f 191/576/144 188/575/144 187/574/144 192/573/144
o cube
v -0.3772300000000001 0 0.2468706250000001
v -0.37723 0.5 0.24687062499999998
v -0.3147300000000001 0 0.2468706250000001
v -0.31473 0.5 0.24687062499999998
v -0.37723 0.49999999999999994 -0.25312937499999993
v -0.3772300000000001 -1.1102230246251565e-16 -0.2531293749999998
v -0.31473 0.4999999999999999 -0.25312937499999993
v -0.3147300000000001 -1.1102230246251565e-16 -0.2531293749999998
vt 0.09765625 0.7109375
vt 0.12890625 0.7109375
vt 0.12890625 0.70703125
vt 0.09765625 0.70703125
vt 0.06640625 0.7109375
vt 0.09765625 0.7109375
vt 0.09765625 0.70703125
vt 0.06640625 0.70703125
vt 0.16015625 0.7109375
vt 0.19140625 0.7109375
vt 0.19140625 0.70703125
vt 0.16015625 0.70703125
vt 0.12890625 0.7109375
vt 0.16015625 0.7109375
vt 0.16015625 0.70703125
vt 0.12890625 0.70703125
vt 0.12890625 0.7109375
vt 0.09765625 0.7109375
vt 0.09765625 0.7421875
vt 0.12890625 0.7421875
vt 0.16015625 0.7421875
vt 0.12890625 0.7421875
vt 0.12890625 0.7109375
vt 0.16015625 0.7109375
vn 2.220446049250313e-16 1 -2.220446049250313e-16
vn 4.930380657631324e-32 2.220446049250313e-16 1
vn -2.220446049250313e-16 -1 2.220446049250313e-16
vn -4.930380657631324e-32 -2.220446049250313e-16 -1
vn -1 2.220446049250313e-16 -4.930380657631324e-32
vn 1 -2.220446049250313e-16 4.930380657631324e-32
usemtl m_ff726480-b4f7-a14e-d120-d9a54e4ad079
f 196/580/145 199/579/145 197/578/145 194/577/145
f 195/584/146 196/583/146 194/582/146 193/581/146
f 200/588/147 195/587/147 193/586/147 198/585/147
f 199/592/148 200/591/148 198/590/148 197/589/148
f 198/596/149 193/595/149 194/594/149 197/593/149
f 199/600/150 196/599/150 195/598/150 200/597/150