# Made in Blockbench 5.1.6
mtllib WoodWeaver.mtl

o claw3
v 1.5297816366648174 1.722853205258565 -3.0660904618197353
v 1.2952627719105256 1.717029246490982 -3.1546486126508793
v 1.4631545015434266 1.7355865327474647 -2.890486504755618
v 1.228635636789135 1.7297625739798819 -2.979044655586762
v 1.2976262850674776 2.7775566615288345 -3.2306524168891326
v 1.5321451498217693 2.783380620296417 -3.1420942660579887
v 1.230999149946087 2.790289989017734 -3.055048459825015
v 1.4655180147003788 2.796113947785317 -2.9664903089938712
vt 0.390625 0.8984375
vt 0.423828125 0.8984375
vt 0.423828125 0.892578125
vt 0.390625 0.892578125
vt 0.3828125 0.8984375
vt 0.390625 0.8984375
vt 0.390625 0.892578125
vt 0.3828125 0.892578125
vt 0.431640625 0.8984375
vt 0.46484375 0.8984375
vt 0.46484375 0.892578125
vt 0.431640625 0.892578125
vt 0.423828125 0.8984375
vt 0.431640625 0.8984375
vt 0.431640625 0.892578125
vt 0.423828125 0.892578125
vt 0.423828125 0.8984375
vt 0.390625 0.8984375
vt 0.390625 0.90625
vt 0.423828125 0.90625
vt 0.45703125 0.90625
vt 0.423828125 0.90625
vt 0.423828125 0.8984375
vt 0.45703125 0.8984375
vn -0.9352696500669665 -0.02322615660053009 -0.3531730840723591
vn -0.0022229138555864333 -0.997439374594736 0.07148253396496884
vn 0.9352696500669665 0.02322615660053009 0.3531730840723591
vn 0.0022229138555864333 0.997439374594736 -0.07148253396496884
vn 0.3539290046289013 -0.06764051786932124 -0.9328231450949132
vn -0.3539290046289013 0.06764051786932124 0.9328231450949132
usemtl m_8e91858c-80ea-c5fc-92f9-9d6cc5894e5d
f 4/4/1 7/3/1 5/2/1 2/1/1
f 3/8/2 4/7/2 2/6/2 1/5/2
f 8/12/3 3/11/3 1/10/3 6/9/3
f 7/16/4 8/15/4 6/14/4 5/13/4
f 6/20/5 1/19/5 2/18/5 5/17/5
f 7/24/6 4/23/6 3/22/6 8/21/6
o claw7
v 1.5367423623634036 2.721961046611367 -3.151291152442697
v 1.302924949846662 2.7161545074612348 -3.239584423460787
v 1.4186303791114119 2.5717479056513928 -2.8286294539174155
v 1.1848129665946703 2.5659413665012605 -2.916922724935505
v 0.8387433244468807 5.349575289793744 -2.1835278900211987
v 1.0725607369636223 5.3553818289438775 -2.0952346190031093
v 0.720631341194889 5.19936214883377 -1.860866191495917
v 0.9544487537116305 5.205168687983902 -1.7725729204778273
vt 0.390625 0.8984375
vt 0.48046875 0.8984375
vt 0.48046875 0.88671875
vt 0.390625 0.88671875
vt 0.3828125 0.8984375
vt 0.390625 0.8984375
vt 0.390625 0.88671875
vt 0.3828125 0.88671875
vt 0.48828125 0.8984375
vt 0.578125 0.8984375
vt 0.578125 0.88671875
vt 0.48828125 0.88671875
vt 0.48046875 0.8984375
vt 0.48828125 0.8984375
vt 0.48828125 0.88671875
vt 0.48046875 0.88671875
vt 0.48046875 0.8984375
vt 0.390625 0.8984375
vt 0.390625 0.90625
vt 0.48046875 0.90625
vt 0.5703125 0.90625
vt 0.48046875 0.90625
vt 0.48046875 0.8984375
vt 0.5703125 0.8984375
vn -0.9352696500669665 -0.023226156600530103 -0.35317308407235914
vn 0.16145447839992386 -0.9159724460286995 -0.3673240116311613
vn 0.9352696500669665 0.023226156600530103 0.35317308407235914
vn -0.16145447839992386 0.9159724460286995 0.3673240116311613
vn 0.31496528867197837 0.4005683758932659 -0.8604311960674187
vn -0.31496528867197837 -0.4005683758932659 0.8604311960674187
usemtl m_8e91858c-80ea-c5fc-92f9-9d6cc5894e5d
f 12/28/7 15/27/7 13/26/7 10/25/7
f 11/32/8 12/31/8 10/30/8 9/29/8
f 16/36/9 11/35/9 9/34/9 14/33/9
f 15/40/10 16/39/10 14/38/10 13/37/10
f 14/44/11 9/43/11 10/42/11 13/41/11
f 15/48/12 12/47/12 11/46/12 16/45/12
o claw2
v 0.9157692581972712 5.2885678319185585 -1.5042766544040318
v 0.5676933844660282 5.278350196578215 -1.6434304759623473
v 1.1000820669249398 5.322648070474432 -1.9678144909167514
v 0.7520061931936969 5.312430435134088 -2.106968312475067
v 0.6687990486218414 3.2837457256634752 -1.7498759985668373
v 1.0168749223530842 3.2939633610038186 -1.6107221770085218
v 0.85311185734951 3.3178259642193484 -2.2134138350795567
v 1.2011877310807528 3.3280435995596918 -2.0742600135212412
vt 0.01171875 0.748046875
vt 0.07421875 0.748046875
vt 0.07421875 0.732421875
vt 0.01171875 0.732421875
vt 0 0.748046875
vt 0.01171875 0.748046875
vt 0.01171875 0.732421875
vt 0 0.732421875
vt 0.0859375 0.748046875
vt 0.1484375 0.748046875
vt 0.1484375 0.732421875
vt 0.0859375 0.732421875
vt 0.07421875 0.748046875
vt 0.0859375 0.748046875
vt 0.0859375 0.732421875
vt 0.07421875 0.732421875
vt 0.07421875 0.748046875
vt 0.01171875 0.748046875
vt 0.01171875 0.759765625
vt 0.07421875 0.759765625
vt 0.13671875 0.759765625
vt 0.07421875 0.759765625
vt 0.07421875 0.748046875
vt 0.13671875 0.748046875
vn -0.9282023299499815 -0.02724702757424914 -0.37107685748884134
vn -0.05055283207790646 0.9973022354573698 0.0532227613022452
vn 0.9282023299499815 0.02724702757424914 0.37107685748884134
vn 0.05055283207790646 -0.9973022354573698 -0.0532227613022452
vn -0.36862561745533756 -0.06816047711174615 0.9270756730254388
vn 0.36862561745533756 0.06816047711174615 -0.9270756730254388
usemtl m_8e91858c-80ea-c5fc-92f9-9d6cc5894e5d
f 20/52/13 23/51/13 21/50/13 18/49/13
f 19/56/14 20/55/14 18/54/14 17/53/14
f 24/60/15 19/59/15 17/58/15 22/57/15
f 23/64/16 24/63/16 22/62/16 21/61/16
f 22/68/17 17/67/17 18/66/17 21/65/17
f 23/72/18 20/71/18 19/70/18 24/69/18
o claw
v 1.2647628162250104 3.0862973923534556 -2.0466167768186043
v 0.8009776323678053 3.075395554950957 -2.2331226833625744
v 1.0875326575725341 2.9540713423441645 -1.5981686275717168
v 0.6237474737153292 2.9431695049416664 -1.7846745341156867
v 0.5645788473097899 5.003700184993378 -1.7579838950279947
v 1.0283640311669948 5.014602022395877 -1.5714779884840249
v 0.38734868865731376 4.871474134984088 -1.3095357457811072
v 0.8511338725145188 4.882375972386586 -1.1230298392371374
vt 0.015625 0.775390625
vt 0.078125 0.775390625
vt 0.078125 0.759765625
vt 0.015625 0.759765625
vt 0 0.775390625
vt 0.015625 0.775390625
vt 0.015625 0.759765625
vt 0 0.759765625
vt 0.09375 0.775390625
vt 0.15625 0.775390625
vt 0.15625 0.759765625
vt 0.09375 0.759765625
vt 0.078125 0.775390625
vt 0.09375 0.775390625
vt 0.09375 0.759765625
vt 0.078125 0.759765625
vt 0.078125 0.775390625
vt 0.015625 0.775390625
vt 0.015625 0.791015625
vt 0.078125 0.791015625
vt 0.140625 0.791015625
vt 0.078125 0.791015625
vt 0.078125 0.775390625
vt 0.140625 0.775390625
vn -0.9275703677144103 -0.02180367480499699 -0.3730118130879395
vn 0.11819939252900769 -0.964152315021211 -0.23756939416728998
vn 0.9275703677144103 0.02180367480499699 0.3730118130879395
vn -0.11819939252900769 0.964152315021211 0.23756939416728998
vn 0.35446031730495264 0.2644521000185809 -0.8968962984937751
vn -0.35446031730495264 -0.2644521000185809 0.8968962984937751
usemtl m_8e91858c-80ea-c5fc-92f9-9d6cc5894e5d
f 28/76/19 31/75/19 29/74/19 26/73/19
f 27/80/20 28/79/20 26/78/20 25/77/20
f 32/84/21 27/83/21 25/82/21 30/81/21
f 31/88/22 32/87/22 30/86/22 29/85/22
f 30/92/23 25/91/23 26/90/23 29/89/23
f 31/96/24 28/95/24 27/94/24 32/93/24
o claw6
v -1.0244564025631888 5.373897810024762 -2.0952346190031093
v -0.7907779772187052 5.363963434279464 -2.1835278900211987
v -0.9090152944635398 5.221622471031526 -1.7725729204778273
v -0.6753368691190562 5.211688095286227 -1.860866191495917
v -1.3013881072426545 2.7391497469301163 -3.239584423460787
v -1.535066532587138 2.7490841226754155 -3.151291152442697
v -1.1859469991430056 2.5868744079368797 -2.916922724935505
v -1.419625424487489 2.596808783682179 -2.8286294539174155
vt 0.48046875 0.8984375
vt 0.390625 0.8984375
vt 0.390625 0.88671875
vt 0.48046875 0.88671875
vt 0.48828125 0.8984375
vt 0.48046875 0.8984375
vt 0.48046875 0.88671875
vt 0.48828125 0.88671875
vt 0.578125 0.8984375
vt 0.48828125 0.8984375
vt 0.48828125 0.88671875
vt 0.578125 0.88671875
vt 0.390625 0.8984375
vt 0.3828125 0.8984375
vt 0.3828125 0.88671875
vt 0.390625 0.88671875
vt 0.390625 0.8984375
vt 0.48046875 0.8984375
vt 0.48046875 0.90625
vt 0.390625 0.90625
vt 0.48046875 0.90625
vt 0.5703125 0.90625
vt 0.5703125 0.8984375
vt 0.48046875 0.8984375
vn 0.9347137013779342 -0.039737502981196535 -0.3531730840723591
vn 0.1776035234865911 0.912978673860643 0.36732401163116135
vn -0.9347137013779342 0.039737502981196535 0.3531730840723591
vn -0.1776035234865911 -0.912978673860643 -0.36732401163116135
vn -0.30784295493239777 0.40606757064863125 -0.8604311960674187
vn 0.30784295493239777 -0.40606757064863125 0.8604311960674187
usemtl m_8e91858c-80ea-c5fc-92f9-9d6cc5894e5d
f 36/100/25 39/99/25 37/98/25 34/97/25
f 35/104/26 36/103/26 34/102/26 33/101/26
f 40/108/27 35/107/27 33/106/27 38/105/27
f 39/112/28 40/111/28 38/110/28 37/109/28
f 38/116/29 33/115/29 34/114/29 37/113/29
f 39/120/30 36/119/30 35/118/30 40/117/30
o claw7
v -1.5293854915478327 2.8104129427155553 -3.1420942660579887
v -1.2950060309273157 2.8004487638430207 -3.2306524168891326
v -1.4625438997694526 2.821967784642471 -2.9664903089938712
v -1.2281644391489357 2.812003605769936 -3.055048459825015
v -1.3113696523682556 1.7400449652197554 -3.1546486126508793
v -1.5457491129887728 1.7500091440922905 -3.0660904618197353
v -1.2445280605898756 1.751599807146671 -2.979044655586762
v -1.4789075212103926 1.761563986019206 -2.890486504755618
vt 0.48046875 0.8984375
vt 0.447265625 0.8984375
vt 0.447265625 0.892578125
vt 0.48046875 0.892578125
vt 0.48828125 0.8984375
vt 0.48046875 0.8984375
vt 0.48046875 0.892578125
vt 0.48828125 0.892578125
vt 0.521484375 0.8984375
vt 0.48828125 0.8984375
vt 0.48828125 0.892578125
vt 0.521484375 0.892578125
vt 0.447265625 0.8984375
vt 0.439453125 0.8984375
vt 0.439453125 0.892578125
vt 0.447265625 0.892578125
vt 0.447265625 0.8984375
vt 0.48046875 0.8984375
vt 0.48046875 0.90625
vt 0.447265625 0.90625
vt 0.48046875 0.90625
vt 0.513671875 0.90625
vt 0.513671875 0.8984375
vt 0.48046875 0.8984375
vn 0.9347137013779341 -0.03973750298119654 -0.353173084072359
vn 0.015390191809019328 0.9973231118018017 -0.07148253396496884
vn -0.9347137013779341 0.03973750298119654 0.353173084072359
vn -0.015390191809019328 -0.9973231118018017 0.07148253396496884
vn -0.35506821661822113 -0.06138030240061351 -0.9328231450949132
vn 0.35506821661822113 0.06138030240061351 0.9328231450949132
usemtl m_8e91858c-80ea-c5fc-92f9-9d6cc5894e5d
f 44/124/31 47/123/31 45/122/31 42/121/31
f 43/128/32 44/127/32 42/126/32 41/125/32
f 48/132/33 43/131/33 41/130/33 46/129/33
f 47/136/34 48/135/34 46/134/34 45/133/34
f 46/140/35 41/139/35 42/138/35 45/137/35
f 47/144/36 44/143/36 43/142/36 48/141/36
o claw5
v -1.0051797449822937 3.311817447772677 -1.6107221770085218
v -0.6573385639626159 3.295455090590652 -1.7498759985668373
v -1.1888620287435279 3.3491469636195887 -2.0742600135212412
v -0.8410208477238501 3.3327846064375635 -2.2134138350795567
v -0.521027988651427 5.287963253127455 -1.6434304759623473
v -0.8688691696711047 5.304325610309481 -1.5042766544040318
v -0.7047102724126613 5.325292768974367 -2.106968312475067
v -1.052551453432339 5.341655126156392 -1.9678144909167514
vt 0.07421875 0.748046875
vt 0.01171875 0.748046875
vt 0.01171875 0.732421875
vt 0.07421875 0.732421875
vt 0.0859375 0.748046875
vt 0.07421875 0.748046875
vt 0.07421875 0.732421875
vt 0.0859375 0.732421875
vt 0.1484375 0.748046875
vt 0.0859375 0.748046875
vt 0.0859375 0.732421875
vt 0.1484375 0.732421875
vt 0.01171875 0.748046875
vt 0 0.748046875
vt 0 0.732421875
vt 0.01171875 0.732421875
vt 0.01171875 0.748046875
vt 0.07421875 0.748046875
vt 0.07421875 0.759765625
vt 0.01171875 0.759765625
vt 0.07421875 0.759765625
vt 0.13671875 0.759765625
vt 0.13671875 0.748046875
vt 0.07421875 0.748046875
vn 0.9275764827191411 -0.04363295248540183 -0.3710768574888413
vn -0.06815528765559437 -0.996254081268402 -0.05322276130224523
vn -0.9275764827191411 0.04363295248540183 0.3710768574888413
vn 0.06815528765559437 0.996254081268402 0.05322276130224523
vn 0.36736456752246877 -0.07465903169382282 0.9270756730254389
vn -0.36736456752246877 0.07465903169382282 -0.9270756730254389
usemtl m_8e91858c-80ea-c5fc-92f9-9d6cc5894e5d
f 52/148/37 55/147/37 53/146/37 50/145/37
f 51/152/38 52/151/38 50/150/38 49/149/38
f 56/156/39 51/155/39 49/154/39 54/153/39
f 55/160/40 56/159/40 54/158/40 53/157/40
f 54/164/41 49/163/41 50/162/41 53/161/41
f 55/168/42 52/167/42 51/166/42 56/165/42
o claw4
v -0.9862840688074482 5.032390711577589 -1.5714779884840249
v -0.5227637000074212 5.013301066958086 -1.7579838950279947
v -0.8114163870755329 4.897055751856359 -1.1230298392371374
v -0.3478960182755059 4.8779661072368565 -1.3095357457811072
v -0.7931755812017929 3.089471410692005 -2.2331226833625744
v -1.25669595000182 3.108561055311508 -2.0466167768186043
v -0.6183078994698776 2.9541364509707755 -1.7846745341156867
v -1.0818282682699045 2.9732260955902783 -1.5981686275717168
vt 0.078125 0.775390625
vt 0.015625 0.775390625
vt 0.015625 0.759765625
vt 0.078125 0.759765625
vt 0.09375 0.775390625
vt 0.078125 0.775390625
vt 0.078125 0.759765625
vt 0.09375 0.759765625
vt 0.15625 0.775390625
vt 0.09375 0.775390625
vt 0.09375 0.759765625
vt 0.15625 0.759765625
vt 0.015625 0.775390625
vt 0 0.775390625
vt 0 0.759765625
vt 0.015625 0.759765625
vt 0.015625 0.775390625
vt 0.078125 0.775390625
vt 0.078125 0.791015625
vt 0.015625 0.791015625
vt 0.078125 0.791015625
vt 0.140625 0.791015625
vt 0.140625 0.775390625
vt 0.078125 0.775390625
vn 0.9270407376000541 -0.038179289239006056 -0.3730118130879394
vn 0.13520594059718577 0.9619148281330407 0.23756939416728998
vn -0.9270407376000541 0.038179289239006056 0.3730118130879394
vn -0.13520594059718577 -0.9619148281330407 -0.23756939416728998
vn -0.3497353634638311 0.2706699194424589 -0.8968962984937751
vn 0.3497353634638311 -0.2706699194424589 0.8968962984937751
usemtl m_8e91858c-80ea-c5fc-92f9-9d6cc5894e5d
f 60/172/43 63/171/43 61/170/43 58/169/43
f 59/176/44 60/175/44 58/174/44 57/173/44
f 64/180/45 59/179/45 57/178/45 62/177/45
f 63/184/46 64/183/46 62/182/46 61/181/46
f 62/188/47 57/187/47 58/186/47 61/185/47
f 63/192/48 60/191/48 59/190/48 64/189/48
o headtop
v 0.04750100829734763 6.139212780882059 -1.1553548220168637
v 0.7569111199494553 6.174181437897136 -1.859282720677164
v 0.04406790700971561 6.014633007923264 -1.1650033444469456
v 0.7534780186618232 6.049601664938341 -1.8689312431072462
v 0.05265053062127814 6.248272759094681 -2.5653475183001095
v -0.6567595810308295 6.213304102079604 -1.8614196196398094
v 0.04921742933364612 6.123692986135886 -2.5749960407301917
v -0.6601926823184615 6.088724329120808 -1.8710681420698914
vt 0.4140625 0.8125
vt 0.4453125 0.8125
vt 0.4453125 0.80859375
vt 0.4140625 0.80859375
vt 0.3828125 0.8125
vt 0.4140625 0.8125
vt 0.4140625 0.80859375
vt 0.3828125 0.80859375
vt 0.4765625 0.8125
vt 0.5078125 0.8125
vt 0.5078125 0.80859375
vt 0.4765625 0.80859375
vt 0.4453125 0.8125
vt 0.4765625 0.8125
vt 0.4765625 0.80859375
vt 0.4453125 0.80859375
vt 0.4453125 0.8125
vt 0.4140625 0.8125
vt 0.4140625 0.84375
vt 0.4453125 0.84375
vt 0.4765625 0.84375
vt 0.4453125 0.84375
vt 0.4453125 0.8125
vt 0.4765625 0.8125
vn 0.7094101116521075 0.034968657015077696 -0.7039278986603004
vn 0.7042605893281771 -0.074091321197545 0.7060647976229456
vn -0.7094101116521075 -0.034968657015077696 0.7039278986603004
vn -0.7042605893281771 0.074091321197545 -0.7060647976229456
vn 0.027464810301056186 0.996638183670365 0.07718817944065609
vn -0.027464810301056186 -0.996638183670365 -0.07718817944065609
usemtl m_8e91858c-80ea-c5fc-92f9-9d6cc5894e5d
f 68/196/49 71/195/49 69/194/49 66/193/49
f 67/200/50 68/199/50 66/198/50 65/197/50
f 72/204/51 67/203/51 65/202/51 70/201/51
f 71/208/52 72/207/52 70/206/52 69/205/52
f 70/212/53 65/211/53 66/210/53 69/209/53
f 71/216/54 68/215/54 67/214/54 72/213/54
o headpiece2
v 0.6647549235224168 6.044238761150212 -1.7681173915004873
v 0.7534311874789303 6.048609843277097 -1.8561083788330248
v 0.6441563157966247 5.296760123397439 -1.8260085260809793
v 0.7328325797531381 5.301131205524324 -1.9139995134135168
v 0.04917059815075314 6.122701164474642 -2.5621731764559703
v -0.039505665805760315 6.118330082347757 -2.474182189123433
v 0.028571990424961002 5.375222526721869 -2.6200643110364625
v -0.060104273531552455 5.370851444594984 -2.532073323703925
vt 0.38671875 0.560546875
vt 0.41796875 0.560546875
vt 0.41796875 0.537109375
vt 0.38671875 0.537109375
vt 0.3828125 0.560546875
vt 0.38671875 0.560546875
vt 0.38671875 0.537109375
vt 0.3828125 0.537109375
vt 0.421875 0.560546875
vt 0.453125 0.560546875
vt 0.453125 0.537109375
vt 0.421875 0.537109375
vt 0.41796875 0.560546875
vt 0.421875 0.560546875
vt 0.421875 0.537109375
vt 0.41796875 0.537109375
vt 0.41796875 0.560546875
vt 0.38671875 0.560546875
vt 0.38671875 0.564453125
vt 0.41796875 0.564453125
vt 0.44921875 0.564453125
vt 0.41796875 0.564453125
vt 0.41796875 0.560546875
vt 0.44921875 0.560546875
vn 0.7094101116521075 0.034968657015077696 -0.7039278986603004
vn 0.7042605893281771 -0.074091321197545 0.7060647976229456
vn -0.7094101116521075 -0.034968657015077696 0.7039278986603004
vn -0.7042605893281771 0.074091321197545 -0.7060647976229456
vn 0.027464810301056186 0.996638183670365 0.07718817944065609
vn -0.027464810301056186 -0.996638183670365 -0.07718817944065609
usemtl m_8e91858c-80ea-c5fc-92f9-9d6cc5894e5d
f 76/220/55 79/219/55 77/218/55 74/217/55
f 75/224/56 76/223/56 74/222/56 73/221/56
f 80/228/57 75/227/57 73/226/57 78/225/57
f 79/232/58 80/231/58 78/230/58 77/229/58
f 78/236/59 73/235/59 74/234/59 77/233/59
f 79/240/60 76/239/60 75/238/60 80/237/60
o headpiece1
v 0.7534780186618231 6.049601664938341 -1.868931243107246
v 0.6654454449958009 6.0588630800880345 -1.9571893428101141
v 0.7328794109360309 5.3021230271855675 -1.926822377687738
v 0.6448468372700088 5.31138444233526 -2.0150804773906064
v 0.044711597300206886 6.028265505199841 -1.3412524314823513
v 0.132744170966229 6.019004090050148 -1.2529943317794832
v 0.024112989574414746 5.280786867447067 -1.3991435660628433
v 0.11214556324043687 5.271525452297374 -1.3108854663599752
vt 0.45703125 0.99609375
vt 0.484375 0.99609375
vt 0.484375 0.97265625
vt 0.45703125 0.97265625
vt 0.453125 0.99609375
vt 0.45703125 0.99609375
vt 0.45703125 0.97265625
vt 0.453125 0.97265625
vt 0.48828125 0.99609375
vt 0.515625 0.99609375
vt 0.515625 0.97265625
vt 0.48828125 0.97265625
vt 0.484375 0.99609375
vt 0.48828125 0.99609375
vt 0.48828125 0.97265625
vt 0.484375 0.97265625
vt 0.484375 0.99609375
vt 0.45703125 0.99609375
vt 0.45703125 1
vt 0.484375 1
vt 0.51171875 1
vt 0.484375 1
vt 0.484375 0.99609375
vt 0.51171875 0.99609375
vn -0.7042605893281771 0.07409132119754498 -0.7060647976229454
vn 0.7094101116521075 0.03496865701507771 -0.7039278986603006
vn 0.7042605893281771 -0.07409132119754498 0.7060647976229454
vn -0.7094101116521075 -0.03496865701507771 0.7039278986603006
vn 0.02746481030105618 0.9966381836703649 0.07718817944065608
vn -0.02746481030105618 -0.9966381836703649 -0.07718817944065608
usemtl m_8e91858c-80ea-c5fc-92f9-9d6cc5894e5d
f 84/244/61 87/243/61 85/242/61 82/241/61
f 83/248/62 84/247/62 82/246/62 81/245/62
f 88/252/63 83/251/63 81/250/63 86/249/63
f 87/256/64 88/255/64 86/254/64 85/253/64
f 86/260/65 81/259/65 82/258/65 85/257/65
f 87/264/66 84/263/66 83/262/66 88/261/66
o headpiece4
v 0.048526907860262036 6.1090686671980645 -2.3859240894205644
v -0.03950566580576009 6.118330082347757 -2.4741821891234324
v 0.027928300134469897 5.36159002944529 -2.4438152240010567
v -0.06010427353155223 5.370851444594984 -2.5320733237039246
v -0.6602395135013541 6.087732507459564 -1.8582452777956697
v -0.572206939835332 6.078471092309871 -1.7699871780928016
v -0.6808381212271464 5.340253869706791 -1.9161364123761617
v -0.5928055475611242 5.330992454557097 -1.8278783126732936
vt 0.45703125 0.96875
vt 0.484375 0.96875
vt 0.484375 0.9453125
vt 0.45703125 0.9453125
vt 0.453125 0.96875
vt 0.45703125 0.96875
vt 0.45703125 0.9453125
vt 0.453125 0.9453125
vt 0.48828125 0.96875
vt 0.515625 0.96875
vt 0.515625 0.9453125
vt 0.48828125 0.9453125
vt 0.484375 0.96875
vt 0.48828125 0.96875
vt 0.48828125 0.9453125
vt 0.484375 0.9453125
vt 0.484375 0.96875
vt 0.45703125 0.96875
vt 0.45703125 0.97265625
vt 0.484375 0.97265625
vt 0.51171875 0.97265625
vt 0.484375 0.97265625
vt 0.484375 0.96875
vt 0.51171875 0.96875
vn -0.7042605893281771 0.07409132119754498 -0.7060647976229454
vn 0.7094101116521075 0.03496865701507771 -0.7039278986603006
vn 0.7042605893281771 -0.07409132119754498 0.7060647976229454
vn -0.7094101116521075 -0.03496865701507771 0.7039278986603006
vn 0.02746481030105618 0.9966381836703649 0.07718817944065608
vn -0.02746481030105618 -0.9966381836703649 -0.07718817944065608
usemtl m_8e91858c-80ea-c5fc-92f9-9d6cc5894e5d
f 92/268/67 95/267/67 93/266/67 90/265/67
f 91/272/68 92/271/68 90/270/68 89/269/68
f 96/276/69 91/275/69 89/274/69 94/273/69
f 95/280/70 96/279/70 94/278/70 93/277/70
f 94/284/71 89/283/71 90/282/71 93/281/71
f 95/288/72 92/287/72 91/286/72 96/285/72
o headpiece3
v 0.04406790700971545 6.014633007923264 -1.1650033444469456
v 0.1327441709662289 6.019004090050149 -1.2529943317794832
v 0.023469299283923307 5.26715437017049 -1.2228944790274376
v 0.11214556324043676 5.271525452297375 -1.3108854663599752
v -0.5715164183619482 6.093095411247694 -1.9590591294024287
v -0.6601926823184617 6.088724329120809 -1.8710681420698911
v -0.5921150260877405 5.34561677349492 -2.016950263982921
v -0.6807912900442539 5.3412456913680355 -1.9289592766503834
vt 0.44140625 0.73828125
vt 0.47265625 0.73828125
vt 0.47265625 0.71484375
vt 0.44140625 0.71484375
vt 0.4375 0.73828125
vt 0.44140625 0.73828125
vt 0.44140625 0.71484375
vt 0.4375 0.71484375
vt 0.4765625 0.73828125
vt 0.5078125 0.73828125
vt 0.5078125 0.71484375
vt 0.4765625 0.71484375
vt 0.47265625 0.73828125
vt 0.4765625 0.73828125
vt 0.4765625 0.71484375
vt 0.47265625 0.71484375
vt 0.47265625 0.73828125
vt 0.44140625 0.73828125
vt 0.44140625 0.7421875
vt 0.47265625 0.7421875
vt 0.50390625 0.7421875
vt 0.47265625 0.7421875
vt 0.47265625 0.73828125
vt 0.50390625 0.73828125
vn 0.7094101116521075 0.034968657015077696 -0.7039278986603004
vn 0.7042605893281771 -0.074091321197545 0.7060647976229456
vn -0.7094101116521075 -0.034968657015077696 0.7039278986603004
vn -0.7042605893281771 0.074091321197545 -0.7060647976229456
vn 0.027464810301056186 0.996638183670365 0.07718817944065609
vn -0.027464810301056186 -0.996638183670365 -0.07718817944065609
usemtl m_8e91858c-80ea-c5fc-92f9-9d6cc5894e5d
f 100/292/73 103/291/73 101/290/73 98/289/73
f 99/296/74 100/295/74 98/294/74 97/293/74
f 104/300/75 99/299/75 97/298/75 102/297/75
f 103/304/76 104/303/76 102/302/76 101/301/76
f 102/308/77 97/307/77 98/306/77 101/305/77
f 103/312/78 100/311/78 99/310/78 104/309/78
o orb
v 0.028271341554027808 5.422084892801884 -1.563206148556764
v 0.39125400234837193 5.752744014972533 -1.6575890542547413
v 0.025285415964995984 5.287882887071959 -2.0448501103235883
v 0.3882680767593401 5.618542009242608 -2.1392330160215653
v 0.047401312652573614 6.102964469234418 -1.753040409434041
v -0.31558134814177047 5.772305347063767 -1.6586575037360638
v 0.04441538706354179 5.9687624635044925 -2.2346843712008653
v -0.3185672737308023 5.638103341333842 -2.140301465502888
vt 0.453125 0.69921875
vt 0.46875 0.69921875
vt 0.46875 0.68359375
vt 0.453125 0.68359375
vt 0.4375 0.69921875
vt 0.453125 0.69921875
vt 0.453125 0.68359375
vt 0.4375 0.68359375
vt 0.484375 0.69921875
vt 0.5 0.69921875
vt 0.5 0.68359375
vt 0.484375 0.68359375
vt 0.46875 0.69921875
vt 0.484375 0.69921875
vt 0.484375 0.68359375
vt 0.46875 0.68359375
vt 0.46875 0.69921875
vt 0.453125 0.69921875
vt 0.453125 0.71484375
vt 0.46875 0.71484375
vt 0.484375 0.71484375
vt 0.46875 0.71484375
vt 0.46875 0.69921875
vt 0.484375 0.69921875
vn 0.7259653215886882 0.6613182443413003 -0.18876581139595439
vn 0.6877053793915965 -0.7004409085237676 0.1909027103585995
vn -0.7259653215886882 -0.6613182443413003 0.18876581139595439
vn -0.6877053793915965 0.7004409085237676 -0.1909027103585995
vn 0.005971851178063701 0.2684040114598503 0.9632879235336482
vn -0.005971851178063701 -0.2684040114598503 -0.9632879235336482
usemtl m_8e91858c-80ea-c5fc-92f9-9d6cc5894e5d
f 108/316/79 111/315/79 109/314/79 106/313/79
f 107/320/80 108/319/80 106/318/80 105/317/80
f 112/324/81 107/323/81 105/322/81 110/321/81
f 111/328/82 112/327/82 110/326/82 109/325/82
f 110/332/83 105/331/83 106/330/83 109/329/83
f 111/336/84 108/335/84 107/334/84 112/333/84
o orb
v 0.03028934724271707 5.49041958913971 -1.6471409263872767
v 0.3025263428384752 5.738413930767697 -1.7179281056607596
v 0.02804990305094316 5.389768084842266 -2.008373897712395
v 0.3002868986467013 5.637762426470253 -2.0791610769858777
v 0.04463682556662644 6.00107927146411 -1.7895166220452343
v -0.22760017002913166 5.753084929836122 -1.7187294427717514
v 0.04239738137485253 5.900427767166666 -2.1507495933703527
v -0.22983961422090557 5.652433425538678 -2.0799624140968698
vt 0.453125 0.66796875
vt 0.46875 0.66796875
vt 0.46875 0.65234375
vt 0.453125 0.65234375
vt 0.4375 0.66796875
vt 0.453125 0.66796875
vt 0.453125 0.65234375
vt 0.4375 0.65234375
vt 0.484375 0.66796875
vt 0.5 0.66796875
vt 0.5 0.65234375
vt 0.484375 0.65234375
vt 0.46875 0.66796875
vt 0.484375 0.66796875
vt 0.484375 0.65234375
vt 0.46875 0.65234375
vt 0.46875 0.66796875
vt 0.453125 0.66796875
vt 0.453125 0.68359375
vt 0.46875 0.68359375
vt 0.484375 0.68359375
vt 0.46875 0.68359375
vt 0.46875 0.66796875
vt 0.484375 0.66796875
vn 0.7259653215886882 0.6613182443413003 -0.18876581139595439
vn 0.6877053793915965 -0.7004409085237676 0.1909027103585995
vn -0.7259653215886882 -0.6613182443413003 0.18876581139595439
vn -0.6877053793915965 0.7004409085237676 -0.1909027103585995
vn 0.005971851178063701 0.2684040114598503 0.9632879235336482
vn -0.005971851178063701 -0.2684040114598503 -0.9632879235336482
usemtl m_8e91858c-80ea-c5fc-92f9-9d6cc5894e5d
f 116/340/85 119/339/85 117/338/85 114/337/85
f 115/344/86 116/343/86 114/342/86 113/341/86
f 120/348/87 115/347/87 113/346/87 118/345/87
f 119/352/88 120/351/88 118/350/88 117/349/88
f 118/356/89 113/355/89 114/354/89 117/353/89
f 119/360/90 116/359/90 115/358/90 120/357/90
o orb
v 0.3912540023483716 5.752744014972533 -1.6575890542547413
v 0.047401312652573226 6.102964469234418 -1.753040409434041
v 0.3882680767593398 5.618542009242608 -2.1392330160215653
v 0.0444153870635414 5.9687624635044925 -2.2346843712008653
v -0.3155813481417708 5.772305347063767 -1.6586575037360638
v 0.02827134155402753 5.422084892801884 -1.563206148556764
v -0.3185672737308026 5.638103341333842 -2.140301465502888
v 0.025285415964995707 5.287882887071959 -2.0448501103235883
vt 0.46875 0.69921875
vt 0.453125 0.69921875
vt 0.453125 0.68359375
vt 0.46875 0.68359375
vt 0.484375 0.69921875
vt 0.46875 0.69921875
vt 0.46875 0.68359375
vt 0.484375 0.68359375
vt 0.5 0.69921875
vt 0.484375 0.69921875
vt 0.484375 0.68359375
vt 0.5 0.68359375
vt 0.453125 0.69921875
vt 0.4375 0.69921875
vt 0.4375 0.68359375
vt 0.453125 0.68359375
vt 0.453125 0.69921875
vt 0.46875 0.69921875
vt 0.46875 0.71484375
vt 0.453125 0.71484375
vt 0.46875 0.71484375
vt 0.484375 0.71484375
vt 0.484375 0.69921875
vt 0.46875 0.69921875
vn -0.6877053793915966 0.7004409085237675 -0.19090271035859946
vn 0.7259653215886881 0.6613182443413004 -0.1887658113959544
vn 0.6877053793915966 -0.7004409085237675 0.19090271035859946
vn -0.7259653215886881 -0.6613182443413004 0.1887658113959544
vn 0.005971851178063701 0.2684040114598503 0.9632879235336482
vn -0.005971851178063701 -0.2684040114598503 -0.9632879235336482
usemtl m_8e91858c-80ea-c5fc-92f9-9d6cc5894e5d
f 124/364/91 127/363/91 125/362/91 122/361/91
f 123/368/92 124/367/92 122/366/92 121/365/92
f 128/372/93 123/371/93 121/370/93 126/369/93
f 127/376/94 128/375/94 126/374/94 125/373/94
f 126/380/95 121/379/95 122/378/95 125/377/95
f 127/384/96 124/383/96 123/382/96 128/381/96
o orb
v 0.30252634283847485 5.738413930767697 -1.7179281056607596
v 0.04463682556662608 6.00107927146411 -1.7895166220452345
v 0.30028689864670094 5.637762426470253 -2.0791610769858777
v 0.04239738137485217 5.900427767166666 -2.1507495933703527
v -0.227600170029132 5.753084929836122 -1.7187294427717514
v 0.030289347242716792 5.49041958913971 -1.6471409263872767
v -0.2298396142209059 5.652433425538678 -2.0799624140968698
v 0.028049903050942883 5.389768084842266 -2.008373897712395
vt 0.46875 0.66796875
vt 0.453125 0.66796875
vt 0.453125 0.65234375
vt 0.46875 0.65234375
vt 0.484375 0.66796875
vt 0.46875 0.66796875
vt 0.46875 0.65234375
vt 0.484375 0.65234375
vt 0.5 0.66796875
vt 0.484375 0.66796875
vt 0.484375 0.65234375
vt 0.5 0.65234375
vt 0.453125 0.66796875
vt 0.4375 0.66796875
vt 0.4375 0.65234375
vt 0.453125 0.65234375
vt 0.453125 0.66796875
vt 0.46875 0.66796875
vt 0.46875 0.68359375
vt 0.453125 0.68359375
vt 0.46875 0.68359375
vt 0.484375 0.68359375
vt 0.484375 0.66796875
vt 0.46875 0.66796875
vn -0.6877053793915966 0.7004409085237675 -0.19090271035859946
vn 0.7259653215886881 0.6613182443413004 -0.1887658113959544
vn 0.6877053793915966 -0.7004409085237675 0.19090271035859946
vn -0.7259653215886881 -0.6613182443413004 0.1887658113959544
vn 0.005971851178063701 0.2684040114598503 0.9632879235336482
vn -0.005971851178063701 -0.2684040114598503 -0.9632879235336482
usemtl m_8e91858c-80ea-c5fc-92f9-9d6cc5894e5d
f 132/388/97 135/387/97 133/386/97 130/385/97
f 131/392/98 132/391/98 130/390/98 129/389/98
f 136/396/99 131/395/99 129/394/99 134/393/99
f 135/400/100 136/399/100 134/398/100 133/397/100
f 134/404/101 129/403/101 130/402/101 133/401/101
f 135/408/102 132/407/102 131/406/102 136/405/102
o head
v 0.023469299283923478 5.2671543701704895 -1.2228944790274379
v 0.7328794109360312 5.3021230271855675 -1.9268223776877382
v 0.01660309670865943 5.017994824252899 -1.2421915238876018
v 0.726013208360767 5.052963481267976 -1.9461194225479022
v 0.02861882160785399 5.376214348383113 -2.6328871753106835
v -0.6807912900442538 5.341245691368035 -1.9289592766503834
v 0.021752619032589942 5.127054802465521 -2.652184220170848
v -0.6876574926195177 5.092086145450443 -1.9482563215105475
vt 0.4140625 0.8515625
vt 0.4453125 0.8515625
vt 0.4453125 0.84375
vt 0.4140625 0.84375
vt 0.3828125 0.8515625
vt 0.4140625 0.8515625
vt 0.4140625 0.84375
vt 0.3828125 0.84375
vt 0.4765625 0.8515625
vt 0.5078125 0.8515625
vt 0.5078125 0.84375
vt 0.4765625 0.84375
vt 0.4453125 0.8515625
vt 0.4765625 0.8515625
vt 0.4765625 0.84375
vt 0.4453125 0.84375
vt 0.4453125 0.8515625
vt 0.4140625 0.8515625
vt 0.4140625 0.8828125
vt 0.4453125 0.8828125
vt 0.4765625 0.8828125
vt 0.4453125 0.8828125
vt 0.4453125 0.8515625
vt 0.4765625 0.8515625
vn 0.7094101116521075 0.034968657015077696 -0.7039278986603004
vn 0.7042605893281771 -0.074091321197545 0.7060647976229456
vn -0.7094101116521075 -0.034968657015077696 0.7039278986603004
vn -0.7042605893281771 0.074091321197545 -0.7060647976229456
vn 0.027464810301056186 0.996638183670365 0.07718817944065609
vn -0.027464810301056186 -0.996638183670365 -0.07718817944065609
usemtl m_8e91858c-80ea-c5fc-92f9-9d6cc5894e5d
f 140/412/103 143/411/103 141/410/103 138/409/103
f 139/416/104 140/415/104 138/414/104 137/413/104
f 144/420/105 139/419/105 137/418/105 142/417/105
f 143/424/106 144/423/106 142/422/106 141/421/106
f 142/428/107 137/427/107 138/426/107 141/425/107
f 143/432/108 140/431/108 139/430/108 144/429/108
o chest
v 0.4529021463773597 4.383055068065674 -1.1043165378249453
v 0.45946145611708367 5.125926044633433 -1.5666202125118358
v 0.44969499237593435 4.019830625314738 -1.688023629054342
v 0.4562543021156583 4.762701601882497 -2.1503273037412325
v -0.4155044369897727 5.133651709635313 -1.5666202125118358
v -0.42206374672949665 4.390780733067554 -1.1043165378249453
v -0.41871159099119803 4.770427266884377 -2.1503273037412325
v -0.425270900730922 4.0275562903166175 -1.688023629054342
vt 0.09375 0.9140625
vt 0.12109375 0.9140625
vt 0.12109375 0.892578125
vt 0.09375 0.892578125
vt 0.06640625 0.9140625
vt 0.09375 0.9140625
vt 0.09375 0.892578125
vt 0.06640625 0.892578125
vt 0.1484375 0.9140625
vt 0.17578125 0.9140625
vt 0.17578125 0.892578125
vt 0.1484375 0.892578125
vt 0.12109375 0.9140625
vt 0.1484375 0.9140625
vt 0.1484375 0.892578125
vt 0.12109375 0.892578125
vt 0.12109375 0.9140625
vt 0.09375 0.9140625
vt 0.09375 0.94140625
vt 0.12109375 0.94140625
vt 0.1484375 0.94140625
vt 0.12109375 0.94140625
vt 0.12109375 0.9140625
vt 0.1484375 0.9140625
vn 0.007496353988255963 0.8489954017917246 -0.5283470567850177
vn 0.9999610206935501 -0.008829331430720198 -8.673617379884035e-19
vn -0.007496353988255963 -0.8489954017917246 0.5283470567850177
vn -0.9999610206935501 0.008829331430720198 8.673617379884035e-19
vn 0.004664951274800466 0.5283264621831794 0.8490284963336681
vn -0.004664951274800466 -0.5283264621831794 -0.8490284963336681
usemtl m_8e91858c-80ea-c5fc-92f9-9d6cc5894e5d
f 148/436/109 151/435/109 149/434/109 146/433/109
f 147/440/110 148/439/110 146/438/110 145/437/110
f 152/444/111 147/443/111 145/442/111 150/441/111
f 151/448/112 152/447/112 150/446/112 149/445/112
f 150/452/113 145/451/113 146/450/113 149/449/113
f 151/456/114 148/455/114 147/454/114 152/453/114
o neck
v 0.20654547007681634 4.796781355327745 -1.5076403143041675
v 0.21029364707094433 5.221279056223608 -1.771813842696676
v 0.2045045538940911 4.565638528122604 -1.8790902814501471
v 0.2082527308882191 4.990136229018467 -2.1432638098426557
v -0.16469173568913698 5.224590055510128 -1.771813842696676
v -0.16843991268326497 4.800092354614265 -1.5076403143041675
v -0.1667326518718622 4.993447228304987 -2.1432638098426557
v -0.1704808288659902 4.568949527409124 -1.8790902814501471
vt 0.271484375 0.82421875
vt 0.283203125 0.82421875
vt 0.283203125 0.810546875
vt 0.271484375 0.810546875
vt 0.255859375 0.82421875
vt 0.271484375 0.82421875
vt 0.271484375 0.810546875
vt 0.255859375 0.810546875
vt 0.298828125 0.82421875
vt 0.310546875 0.82421875
vt 0.310546875 0.810546875
vt 0.298828125 0.810546875
vt 0.283203125 0.82421875
vt 0.298828125 0.82421875
vt 0.298828125 0.810546875
vt 0.283203125 0.810546875
vt 0.283203125 0.82421875
vt 0.271484375 0.82421875
vt 0.271484375 0.83984375
vt 0.283203125 0.83984375
vt 0.294921875 0.83984375
vt 0.283203125 0.83984375
vt 0.283203125 0.82421875
vt 0.294921875 0.82421875
vn 0.007496353988255963 0.8489954017917246 -0.5283470567850177
vn 0.9999610206935501 -0.008829331430720198 -8.673617379884035e-19
vn -0.007496353988255963 -0.8489954017917246 0.5283470567850177
vn -0.9999610206935501 0.008829331430720198 8.673617379884035e-19
vn 0.004664951274800466 0.5283264621831794 0.8490284963336681
vn -0.004664951274800466 -0.5283264621831794 -0.8490284963336681
usemtl m_8e91858c-80ea-c5fc-92f9-9d6cc5894e5d
f 156/460/115 159/459/115 157/458/115 154/457/115
f 155/464/116 156/463/116 154/462/116 153/461/116
f 160/468/117 155/467/117 153/466/117 158/465/117
f 159/472/118 160/471/118 158/470/118 157/469/118
f 158/476/119 153/475/119 154/474/119 157/473/119
f 159/480/120 156/479/120 155/478/120 160/477/120
o lower_torso
v 0.5689953484179943 3.373768774784284 -0.476904726396036
v 0.5741490917849202 3.9574531135160944 -0.8401433279357357
v 0.5663713133259191 3.0765851398062454 -0.9544832555837242
v 0.571525056692845 3.660269478538056 -1.317721857123424
v -0.5508070564953237 3.967386111375655 -0.8401433279357357
v -0.5559607998622497 3.383701772643844 -0.476904726396036
v -0.5534310915873989 3.670202476397616 -1.317721857123424
v -0.5585848349543249 3.0865181376658057 -0.9544832555837242
vt 0.25 0.822265625
vt 0.28515625 0.822265625
vt 0.28515625 0.8046875
vt 0.25 0.8046875
vt 0.228515625 0.822265625
vt 0.25 0.822265625
vt 0.25 0.8046875
vt 0.228515625 0.8046875
vt 0.306640625 0.822265625
vt 0.341796875 0.822265625
vt 0.341796875 0.8046875
vt 0.306640625 0.8046875
vt 0.28515625 0.822265625
vt 0.306640625 0.822265625
vt 0.306640625 0.8046875
vt 0.28515625 0.8046875
vt 0.28515625 0.822265625
vt 0.25 0.822265625
vt 0.25 0.84375
vt 0.28515625 0.84375
vt 0.3203125 0.84375
vt 0.28515625 0.84375
vt 0.28515625 0.822265625
vt 0.3203125 0.822265625
vn 0.007496353988255963 0.8489954017917246 -0.5283470567850177
vn 0.9999610206935501 -0.008829331430720198 -8.673617379884035e-19
vn -0.007496353988255963 -0.8489954017917246 0.5283470567850177
vn -0.9999610206935501 0.008829331430720198 8.673617379884035e-19
vn 0.004664951274800466 0.5283264621831794 0.8490284963336681
vn -0.004664951274800466 -0.5283264621831794 -0.8490284963336681
usemtl m_8e91858c-80ea-c5fc-92f9-9d6cc5894e5d
f 164/484/121 167/483/121 165/482/121 162/481/121
f 163/488/122 164/487/122 162/486/122 161/485/122
f 168/492/123 163/491/123 161/490/123 166/489/123
f 167/496/124 168/495/124 166/494/124 165/493/124
f 166/500/125 161/499/125 162/498/125 165/497/125
f 167/504/126 164/503/126 163/502/126 168/501/126
o mid_torso
v 0.3863648457287024 3.9260887504590176 -0.8932076268520316
v 0.3901130227228304 4.3505864513548795 -1.1573811552445403
v 0.3843239295459772 3.6949459232538766 -1.2646575939980114
v 0.3880721065401052 4.1194436241497385 -1.5288311223905202
v -0.35985774279733224 4.35720844992792 -1.1573811552445403
v -0.36360591979146023 3.9327107490320574 -0.8932076268520316
v -0.3618986589800574 4.126065622722779 -1.5288311223905202
v -0.3656468359741854 3.701567921826917 -1.2646575939980114
vt 0.26171875 0.822265625
vt 0.28515625 0.822265625
vt 0.28515625 0.80859375
vt 0.26171875 0.80859375
vt 0.24609375 0.822265625
vt 0.26171875 0.822265625
vt 0.26171875 0.80859375
vt 0.24609375 0.80859375
vt 0.30078125 0.822265625
vt 0.32421875 0.822265625
vt 0.32421875 0.80859375
vt 0.30078125 0.80859375
vt 0.28515625 0.822265625
vt 0.30078125 0.822265625
vt 0.30078125 0.80859375
vt 0.28515625 0.80859375
vt 0.28515625 0.822265625
vt 0.26171875 0.822265625
vt 0.26171875 0.837890625
vt 0.28515625 0.837890625
vt 0.30859375 0.837890625
vt 0.28515625 0.837890625
vt 0.28515625 0.822265625
vt 0.30859375 0.822265625
vn 0.007496353988255963 0.8489954017917246 -0.5283470567850177
vn 0.9999610206935501 -0.008829331430720198 -8.673617379884035e-19
vn -0.007496353988255963 -0.8489954017917246 0.5283470567850177
vn -0.9999610206935501 0.008829331430720198 8.673617379884035e-19
vn 0.004664951274800466 0.5283264621831794 0.8490284963336681
vn -0.004664951274800466 -0.5283264621831794 -0.8490284963336681
usemtl m_8e91858c-80ea-c5fc-92f9-9d6cc5894e5d
f 172/508/127 175/507/127 173/506/127 170/505/127
f 171/512/128 172/511/128 170/510/128 169/509/128
f 176/516/129 171/515/129 169/514/129 174/513/129
f 175/520/130 176/519/130 174/518/130 173/517/130
f 174/524/131 169/523/131 170/522/131 173/521/131
f 175/528/132 172/527/132 171/526/132 176/525/132
o tendrilthing2
v -0.6953748358333462 3.8359950326943877 6.645828739483651
v -1.421497050308339 2.558702824011831 4.623139652331409
v -0.6969652094117134 3.7305713952307156 6.712972818714879
v -1.423087423886706 2.453279186548159 4.690283731562637
v -1.5410977904230894 2.57949147952452 4.652947281656444
v -0.8149755759480968 3.8567836882070767 6.675636368808686
v -1.5426881640014565 2.4740678420608475 4.720091360887672
v -0.8165659495264639 3.7513600507434037 6.742780448039913
vt 0.296875 0.548828125
vt 0.30078125 0.548828125
vt 0.30078125 0.544921875
vt 0.296875 0.544921875
vt 0.21875 0.548828125
vt 0.296875 0.548828125
vt 0.296875 0.544921875
vt 0.21875 0.544921875
vt 0.37890625 0.548828125
vt 0.3828125 0.548828125
vt 0.3828125 0.544921875
vt 0.37890625 0.544921875
vt 0.30078125 0.548828125
vt 0.37890625 0.548828125
vt 0.37890625 0.544921875
vt 0.30078125 0.544921875
vt 0.30078125 0.548828125
vt 0.296875 0.548828125
vt 0.296875 0.626953125
vt 0.30078125 0.626953125
vt 0.3046875 0.626953125
vt 0.30078125 0.626953125
vt 0.30078125 0.548828125
vt 0.3046875 0.548828125
vn -0.290448885789997 -0.5109168834730226 -0.8090756348608968
vn 0.9568059209180033 -0.16630924410150902 -0.2384610346002812
vn 0.290448885789997 0.5109168834730226 0.8090756348608968
vn -0.9568059209180033 0.16630924410150902 0.2384610346002812
vn 0.012722988626935786 0.84338909970938 -0.5371526338498216
vn -0.012722988626935786 -0.84338909970938 0.5371526338498216
usemtl m_8e91858c-80ea-c5fc-92f9-9d6cc5894e5d
f 180/532/133 183/531/133 181/530/133 178/529/133
f 179/536/134 180/535/134 178/534/134 177/533/134
f 184/540/135 179/539/135 177/538/135 182/537/135
f 183/544/136 184/543/136 182/542/136 181/541/136
f 182/548/137 177/547/137 178/546/137 181/545/137
f 183/552/138 180/551/138 179/550/138 184/549/138
o tendrilthing5
v -0.6953748358333462 3.8359950326943877 6.645828739483651
v -1.421497050308339 2.558702824011831 4.623139652331409
v -0.6969652094117134 3.7305713952307156 6.712972818714879
v -1.423087423886706 2.453279186548159 4.690283731562637
v -1.5410977904230894 2.57949147952452 4.652947281656444
v -0.8149755759480968 3.8567836882070767 6.675636368808686
v -1.5426881640014565 2.4740678420608475 4.720091360887672
v -0.8165659495264639 3.7513600507434037 6.742780448039913
vt 0.30078125 0.548828125
vt 0.296875 0.548828125
vt 0.296875 0.544921875
vt 0.30078125 0.544921875
vt 0.37890625 0.548828125
vt 0.30078125 0.548828125
vt 0.30078125 0.544921875
vt 0.37890625 0.544921875
vt 0.3828125 0.548828125
vt 0.37890625 0.548828125
vt 0.37890625 0.544921875
vt 0.3828125 0.544921875
vt 0.296875 0.548828125
vt 0.21875 0.548828125
vt 0.21875 0.544921875
vt 0.296875 0.544921875
vt 0.296875 0.548828125
vt 0.30078125 0.548828125
vt 0.30078125 0.626953125
vt 0.296875 0.626953125
vt 0.30078125 0.626953125
vt 0.3046875 0.626953125
vt 0.3046875 0.548828125
vt 0.30078125 0.548828125
vn -0.290448885789997 -0.5109168834730226 -0.8090756348608968
vn 0.9568059209180033 -0.16630924410150902 -0.2384610346002812
vn 0.290448885789997 0.5109168834730226 0.8090756348608968
vn -0.9568059209180033 0.16630924410150902 0.2384610346002812
vn 0.012722988626935786 0.84338909970938 -0.5371526338498216
vn -0.012722988626935786 -0.84338909970938 0.5371526338498216
usemtl m_8e91858c-80ea-c5fc-92f9-9d6cc5894e5d
f 188/556/139 191/555/139 189/554/139 186/553/139
f 187/560/140 188/559/140 186/558/140 185/557/140
f 192/564/141 187/563/141 185/562/141 190/561/141
f 191/568/142 192/567/142 190/566/142 189/565/142
f 190/572/143 185/571/143 186/570/143 189/569/143
f 191/576/144 188/575/144 187/574/144 192/573/144
o tendrilthing4
v -0.6953748358333462 3.8359950326943877 6.645828739483651
v -1.421497050308339 2.558702824011831 4.623139652331409
v -0.6969652094117134 3.7305713952307156 6.712972818714879
v -1.423087423886706 2.453279186548159 4.690283731562637
v -1.5410977904230894 2.57949147952452 4.652947281656444
v -0.8149755759480968 3.8567836882070767 6.675636368808686
v -1.5426881640014565 2.4740678420608475 4.720091360887672
v -0.8165659495264639 3.7513600507434037 6.742780448039913
vt 0.296875 0.548828125
vt 0.30078125 0.548828125
vt 0.30078125 0.544921875
vt 0.296875 0.544921875
vt 0.21875 0.548828125
vt 0.296875 0.548828125
vt 0.296875 0.544921875
vt 0.21875 0.544921875
vt 0.37890625 0.548828125
vt 0.3828125 0.548828125
vt 0.3828125 0.544921875
vt 0.37890625 0.544921875
vt 0.30078125 0.548828125
vt 0.37890625 0.548828125
vt 0.37890625 0.544921875
vt 0.30078125 0.544921875
vt 0.30078125 0.548828125
vt 0.296875 0.548828125
vt 0.296875 0.626953125
vt 0.30078125 0.626953125
vt 0.3046875 0.626953125
vt 0.30078125 0.626953125
vt 0.30078125 0.548828125
vt 0.3046875 0.548828125
vn -0.290448885789997 -0.5109168834730226 -0.8090756348608968
vn 0.9568059209180033 -0.16630924410150902 -0.2384610346002812
vn 0.290448885789997 0.5109168834730226 0.8090756348608968
vn -0.9568059209180033 0.16630924410150902 0.2384610346002812
vn 0.012722988626935786 0.84338909970938 -0.5371526338498216
vn -0.012722988626935786 -0.84338909970938 0.5371526338498216
usemtl m_8e91858c-80ea-c5fc-92f9-9d6cc5894e5d
f 196/580/145 199/579/145 197/578/145 194/577/145
f 195/584/146 196/583/146 194/582/146 193/581/146
f 200/588/147 195/587/147 193/586/147 198/585/147
f 199/592/148 200/591/148 198/590/148 197/589/148
f 198/596/149 193/595/149 194/594/149 197/593/149
f 199/600/150 196/599/150 195/598/150 200/597/150
o tendrilthing1
v -1.3820463099513647 2.5867159921738256 4.722825484164204
v -0.2549327174387459 2.6081365071773694 2.491423209559673
v -1.4188794324083525 2.404000134268399 4.7024665460791155
v -0.2917658398957337 2.425420649271943 2.4710642714745834
v -0.4181921893888241 2.650191046807824 2.4093621925354354
v -1.5453057819014429 2.62877053180428 4.640764467139968
v -0.45502531184581163 2.467475188902397 2.389003254450346
v -1.5821389043584306 2.4460546738988533 4.620405529054878
vt 0.265625 0.7265625
vt 0.271484375 0.7265625
vt 0.271484375 0.720703125
vt 0.265625 0.720703125
vt 0.1875 0.7265625
vt 0.265625 0.7265625
vt 0.265625 0.720703125
vt 0.1875 0.720703125
vt 0.349609375 0.7265625
vt 0.35546875 0.7265625
vt 0.35546875 0.720703125
vt 0.349609375 0.720703125
vt 0.271484375 0.7265625
vt 0.349609375 0.7265625
vt 0.349609375 0.720703125
vt 0.271484375 0.720703125
vt 0.271484375 0.7265625
vt 0.265625 0.7265625
vt 0.265625 0.8046875
vt 0.271484375 0.8046875
vt 0.27734375 0.8046875
vt 0.271484375 0.8046875
vt 0.271484375 0.7265625
vt 0.27734375 0.7265625
vn 0.4508454370050475 0.008568206001417542 -0.892560909841813
vn 0.8707171837337502 -0.2242908780290914 0.437658757462599
vn -0.4508454370050475 -0.008568206001417542 0.892560909841813
vn -0.8707171837337502 0.2242908780290914 -0.437658757462599
vn 0.19644331977060095 0.9744845754956087 0.10858100312047639
vn -0.19644331977060095 -0.9744845754956087 -0.10858100312047639
usemtl m_8e91858c-80ea-c5fc-92f9-9d6cc5894e5d
f 204/604/151 207/603/151 205/602/151 202/601/151
f 203/608/152 204/607/152 202/606/152 201/605/152
f 208/612/153 203/611/153 201/610/153 206/609/153
f 207/616/154 208/615/154 206/614/154 205/613/154
f 206/620/155 201/619/155 202/618/155 205/617/155
f 207/624/156 204/623/156 203/622/156 208/621/156
o tendrilthing4
v -1.3820463099513647 2.5867159921738256 4.722825484164204
v -0.2549327174387459 2.6081365071773694 2.491423209559673
v -1.4188794324083525 2.404000134268399 4.7024665460791155
v -0.2917658398957337 2.425420649271943 2.4710642714745834
v -0.4181921893888241 2.650191046807824 2.4093621925354354
v -1.5453057819014429 2.62877053180428 4.640764467139968
v -0.45502531184581163 2.467475188902397 2.389003254450346
v -1.5821389043584306 2.4460546738988533 4.620405529054878
vt 0.271484375 0.7265625
vt 0.265625 0.7265625
vt 0.265625 0.720703125
vt 0.271484375 0.720703125
vt 0.349609375 0.7265625
vt 0.271484375 0.7265625
vt 0.271484375 0.720703125
vt 0.349609375 0.720703125
vt 0.35546875 0.7265625
vt 0.349609375 0.7265625
vt 0.349609375 0.720703125
vt 0.35546875 0.720703125
vt 0.265625 0.7265625
vt 0.1875 0.7265625
vt 0.1875 0.720703125
vt 0.265625 0.720703125
vt 0.265625 0.7265625
vt 0.271484375 0.7265625
vt 0.271484375 0.8046875
vt 0.265625 0.8046875
vt 0.271484375 0.8046875
vt 0.27734375 0.8046875
vt 0.27734375 0.7265625
vt 0.271484375 0.7265625
vn 0.4508454370050475 0.008568206001417542 -0.892560909841813
vn 0.8707171837337502 -0.2242908780290914 0.437658757462599
vn -0.4508454370050475 -0.008568206001417542 0.892560909841813
vn -0.8707171837337502 0.2242908780290914 -0.437658757462599
vn 0.19644331977060095 0.9744845754956087 0.10858100312047639
vn -0.19644331977060095 -0.9744845754956087 -0.10858100312047639
usemtl m_8e91858c-80ea-c5fc-92f9-9d6cc5894e5d
f 212/628/157 215/627/157 213/626/157 210/625/157
f 211/632/158 212/631/158 210/630/158 209/629/158
f 216/636/159 211/635/159 209/634/159 214/633/159
f 215/640/160 216/639/160 214/638/160 213/637/160
f 214/644/161 209/643/161 210/642/161 213/641/161
f 215/648/162 212/647/162 211/646/162 216/645/162
o tendrilthing3
v -1.3820463099513647 2.5867159921738256 4.722825484164204
v -0.2549327174387459 2.6081365071773694 2.491423209559673
v -1.4188794324083525 2.404000134268399 4.7024665460791155
v -0.2917658398957337 2.425420649271943 2.4710642714745834
v -0.4181921893888241 2.650191046807824 2.4093621925354354
v -1.5453057819014429 2.62877053180428 4.640764467139968
v -0.45502531184581163 2.467475188902397 2.389003254450346
v -1.5821389043584306 2.4460546738988533 4.620405529054878
vt 0.265625 0.7265625
vt 0.271484375 0.7265625
vt 0.271484375 0.720703125
vt 0.265625 0.720703125
vt 0.1875 0.7265625
vt 0.265625 0.7265625
vt 0.265625 0.720703125
vt 0.1875 0.720703125
vt 0.349609375 0.7265625
vt 0.35546875 0.7265625
vt 0.35546875 0.720703125
vt 0.349609375 0.720703125
vt 0.271484375 0.7265625
vt 0.349609375 0.7265625
vt 0.349609375 0.720703125
vt 0.271484375 0.720703125
vt 0.271484375 0.7265625
vt 0.265625 0.7265625
vt 0.265625 0.8046875
vt 0.271484375 0.8046875
vt 0.27734375 0.8046875
vt 0.271484375 0.8046875
vt 0.271484375 0.7265625
vt 0.27734375 0.7265625
vn 0.4508454370050475 0.008568206001417542 -0.892560909841813
vn 0.8707171837337502 -0.2242908780290914 0.437658757462599
vn -0.4508454370050475 -0.008568206001417542 0.892560909841813
vn -0.8707171837337502 0.2242908780290914 -0.437658757462599
vn 0.19644331977060095 0.9744845754956087 0.10858100312047639
vn -0.19644331977060095 -0.9744845754956087 -0.10858100312047639
usemtl m_8e91858c-80ea-c5fc-92f9-9d6cc5894e5d
f 220/652/163 223/651/163 221/650/163 218/649/163
f 219/656/164 220/655/164 218/654/164 217/653/164
f 224/660/165 219/659/165 217/658/165 222/657/165
f 223/664/166 224/663/166 222/662/166 221/661/166
f 222/668/167 217/667/167 218/666/167 221/665/167
f 223/672/168 220/671/168 219/670/168 224/669/168
o tendrilthing5
v 1.1001791606093834 3.811621803277782 6.633913532647721
v 1.6765873060179346 2.5036142037669555 4.582848012112454
v 1.0997218593600857 3.7061714464680615 6.701032927194081
v 1.676130004768637 2.398163846957235 4.649967406658814
v 1.554955998369229 2.4885141194043636 4.558295772868171
v 0.9785478529606777 3.7965217189151903 6.609361293403437
v 1.5544986971199313 2.383063762594643 4.625415167414531
v 0.97809055171138 3.6910713621054696 6.676480687949798
vt 0.296875 0.548828125
vt 0.30078125 0.548828125
vt 0.30078125 0.544921875
vt 0.296875 0.544921875
vt 0.21875 0.548828125
vt 0.296875 0.548828125
vt 0.296875 0.544921875
vt 0.21875 0.544921875
vt 0.37890625 0.548828125
vt 0.3828125 0.548828125
vt 0.3828125 0.544921875
vt 0.37890625 0.544921875
vt 0.30078125 0.548828125
vt 0.37890625 0.548828125
vt 0.37890625 0.544921875
vt 0.30078125 0.544921875
vt 0.30078125 0.548828125
vt 0.296875 0.548828125
vt 0.296875 0.626953125
vt 0.30078125 0.626953125
vt 0.3046875 0.626953125
vt 0.30078125 0.626953125
vt 0.30078125 0.548828125
vt 0.3046875 0.548828125
vn 0.23056325816342046 -0.5232030398043302 -0.8204262082141065
vn 0.9730504611896452 0.1208006749007372 0.19641791395426605
vn -0.23056325816342046 0.5232030398043302 0.8204262082141065
vn -0.9730504611896452 -0.1208006749007372 -0.19641791395426605
vn 0.003658409994380606 0.843602854477766 -0.5369551563708821
vn -0.003658409994380606 -0.843602854477766 0.5369551563708821
usemtl m_8e91858c-80ea-c5fc-92f9-9d6cc5894e5d
f 228/676/169 231/675/169 229/674/169 226/673/169
f 227/680/170 228/679/170 226/678/170 225/677/170
f 232/684/171 227/683/171 225/682/171 230/681/171
f 231/688/172 232/687/172 230/686/172 229/685/172
f 230/692/173 225/691/173 226/690/173 229/689/173
f 231/696/174 228/695/174 227/694/174 232/693/174
o tendrilthing4
v 1.1001791606093834 3.811621803277782 6.633913532647721
v 1.6765873060179346 2.5036142037669555 4.582848012112454
v 1.0997218593600857 3.7061714464680615 6.701032927194081
v 1.676130004768637 2.398163846957235 4.649967406658814
v 1.554955998369229 2.4885141194043636 4.558295772868171
v 0.9785478529606777 3.7965217189151903 6.609361293403437
v 1.5544986971199313 2.383063762594643 4.625415167414531
v 0.97809055171138 3.6910713621054696 6.676480687949798
vt 0.30078125 0.548828125
vt 0.296875 0.548828125
vt 0.296875 0.544921875
vt 0.30078125 0.544921875
vt 0.37890625 0.548828125
vt 0.30078125 0.548828125
vt 0.30078125 0.544921875
vt 0.37890625 0.544921875
vt 0.3828125 0.548828125
vt 0.37890625 0.548828125
vt 0.37890625 0.544921875
vt 0.3828125 0.544921875
vt 0.296875 0.548828125
vt 0.21875 0.548828125
vt 0.21875 0.544921875
vt 0.296875 0.544921875
vt 0.296875 0.548828125
vt 0.30078125 0.548828125
vt 0.30078125 0.626953125
vt 0.296875 0.626953125
vt 0.30078125 0.626953125
vt 0.3046875 0.626953125
vt 0.3046875 0.548828125
vt 0.30078125 0.548828125
vn 0.23056325816342046 -0.5232030398043302 -0.8204262082141065
vn 0.9730504611896452 0.1208006749007372 0.19641791395426605
vn -0.23056325816342046 0.5232030398043302 0.8204262082141065
vn -0.9730504611896452 -0.1208006749007372 -0.19641791395426605
vn 0.003658409994380606 0.843602854477766 -0.5369551563708821
vn -0.003658409994380606 -0.843602854477766 0.5369551563708821
usemtl m_8e91858c-80ea-c5fc-92f9-9d6cc5894e5d
f 236/700/175 239/699/175 237/698/175 234/697/175
f 235/704/176 236/703/176 234/702/176 233/701/176
f 240/708/177 235/707/177 233/706/177 238/705/177
f 239/712/178 240/711/178 238/710/178 237/709/178
f 238/716/179 233/715/179 234/714/179 237/713/179
f 239/720/180 236/719/180 235/718/180 240/717/180
o tendrilthing4
v 1.6825780959472005 2.552652755274868 4.570443010804701
v 0.46166986869927373 2.6294427342759326 2.3901938507857508
v 1.7098407273752427 2.3684254346107636 4.548687706887175
v 0.4889325001273159 2.4452154136118276 2.3684385468682243
v 0.3003370485146959 2.5950425107518993 2.4793263126208602
v 1.5212452757626227 2.518252531750835 4.659575472639811
v 0.3275996799427381 2.4108151900877948 2.457571008703334
v 1.548507907190665 2.3340252110867303 4.637820168722285
vt 0.265625 0.7265625
vt 0.271484375 0.7265625
vt 0.271484375 0.720703125
vt 0.265625 0.720703125
vt 0.1875 0.7265625
vt 0.265625 0.7265625
vt 0.265625 0.720703125
vt 0.1875 0.720703125
vt 0.349609375 0.7265625
vt 0.35546875 0.7265625
vt 0.35546875 0.720703125
vt 0.349609375 0.720703125
vt 0.271484375 0.7265625
vt 0.349609375 0.7265625
vt 0.349609375 0.720703125
vt 0.271484375 0.720703125
vt 0.271484375 0.7265625
vt 0.265625 0.7265625
vt 0.265625 0.8046875
vt 0.271484375 0.8046875
vt 0.27734375 0.8046875
vt 0.271484375 0.8046875
vt 0.271484375 0.7265625
vt 0.27734375 0.7265625
vn -0.48836329089917085 0.030715991600425756 -0.8720996640075802
vn 0.8604417076510812 0.18346785879484281 -0.47537312978725144
vn 0.48836329089917085 -0.030715991600425756 0.8720996640075802
vn -0.8604417076510812 -0.18346785879484281 0.47537312978725144
vn -0.14540070094955934 0.9825457102085574 0.11602828756014041
vn 0.14540070094955934 -0.9825457102085574 -0.11602828756014041
usemtl m_8e91858c-80ea-c5fc-92f9-9d6cc5894e5d
f 244/724/181 247/723/181 245/722/181 242/721/181
f 243/728/182 244/727/182 242/726/182 241/725/182
f 248/732/183 243/731/183 241/730/183 246/729/183
f 247/736/184 248/735/184 246/734/184 245/733/184
f 246/740/185 241/739/185 242/738/185 245/737/185
f 247/744/186 244/743/186 243/742/186 248/741/186
o tendrilthing3
v 1.6825780959472005 2.552652755274868 4.570443010804701
v 0.46166986869927373 2.6294427342759326 2.3901938507857508
v 1.7098407273752427 2.3684254346107636 4.548687706887175
v 0.4889325001273159 2.4452154136118276 2.3684385468682243
v 0.3003370485146959 2.5950425107518993 2.4793263126208602
v 1.5212452757626227 2.518252531750835 4.659575472639811
v 0.3275996799427381 2.4108151900877948 2.457571008703334
v 1.548507907190665 2.3340252110867303 4.637820168722285
vt 0.271484375 0.7265625
vt 0.265625 0.7265625
vt 0.265625 0.720703125
vt 0.271484375 0.720703125
vt 0.349609375 0.7265625
vt 0.271484375 0.7265625
vt 0.271484375 0.720703125
vt 0.349609375 0.720703125
vt 0.35546875 0.7265625
vt 0.349609375 0.7265625
vt 0.349609375 0.720703125
vt 0.35546875 0.720703125
vt 0.265625 0.7265625
vt 0.1875 0.7265625
vt 0.1875 0.720703125
vt 0.265625 0.720703125
vt 0.265625 0.7265625
vt 0.271484375 0.7265625
vt 0.271484375 0.8046875
vt 0.265625 0.8046875
vt 0.271484375 0.8046875
vt 0.27734375 0.8046875
vt 0.27734375 0.7265625
vt 0.271484375 0.7265625
vn -0.48836329089917085 0.030715991600425756 -0.8720996640075802
vn 0.8604417076510812 0.18346785879484281 -0.47537312978725144
vn 0.48836329089917085 -0.030715991600425756 0.8720996640075802
vn -0.8604417076510812 -0.18346785879484281 0.47537312978725144
vn -0.14540070094955934 0.9825457102085574 0.11602828756014041
vn 0.14540070094955934 -0.9825457102085574 -0.11602828756014041
usemtl m_8e91858c-80ea-c5fc-92f9-9d6cc5894e5d
f 252/748/187 255/747/187 253/746/187 250/745/187
f 251/752/188 252/751/188 250/750/188 249/749/188
f 256/756/189 251/755/189 249/754/189 254/753/189
f 255/760/190 256/759/190 254/758/190 253/757/190
f 254/764/191 249/763/191 250/762/191 253/761/191
f 255/768/192 252/767/192 251/766/192 256/765/192
o body
v 0.6712382369537928 2.6454046755336913 3.503516173244505
v 0.6455495467471204 3.664801517593527 1.2209364551198785
v 0.6351404730056882 1.5614719351120037 3.01983961222477
v 0.6094517827990158 2.5808687771718395 0.7372598941001435
v -0.6038067681916874 3.6942629940235605 1.2481544588873232
v -0.578118077985015 2.6748661519637245 3.53073417701195
v -0.639904532139792 2.610330253601873 0.7644778978675882
v -0.6142158419331196 1.590933411542037 3.0470576159922147
vt 0.078125 0.921875
vt 0.1171875 0.921875
vt 0.1171875 0.884765625
vt 0.078125 0.884765625
vt 0 0.921875
vt 0.078125 0.921875
vt 0.078125 0.884765625
vt 0 0.884765625
vt 0.1953125 0.921875
vt 0.234375 0.921875
vt 0.234375 0.884765625
vt 0.1953125 0.884765625
vt 0.1171875 0.921875
vt 0.1953125 0.921875
vt 0.1953125 0.884765625
vt 0.1171875 0.884765625
vt 0.1171875 0.921875
vt 0.078125 0.921875
vt 0.078125 1
vt 0.1171875 1
vt 0.15625 1
vt 0.1171875 1
vt 0.1171875 0.921875
vt 0.15625 0.921875
vn -0.010275476082668994 0.4077587368239344 -0.9130318872498508
vn 0.9994850519510464 -0.02356918114402666 -0.021774403013955855
vn 0.010275476082668994 -0.4077587368239344 0.9130318872498508
vn -0.9994850519510464 0.02356918114402666 0.021774403013955855
vn 0.03039811700893017 0.9127854656182633 0.40730657770082956
vn -0.03039811700893017 -0.9127854656182633 -0.40730657770082956
usemtl m_8e91858c-80ea-c5fc-92f9-9d6cc5894e5d
f 260/772/193 263/771/193 261/770/193 258/769/193
f 259/776/194 260/775/194 258/774/194 257/773/194
f 264/780/195 259/779/195 257/778/195 262/777/195
f 263/784/196 264/783/196 262/782/196 261/781/196
f 262/788/197 257/787/197 258/786/197 261/785/197
f 263/792/198 260/791/198 259/790/198 264/789/198
o leg18
v 5.4220974882153365 0.15408147075576567 0.20677208534223512
v 5.440988150958172 0.14855091302391732 -0.042451821601523235
v 5.4062192068995145 -0.09537616532321731 0.21110428851629026
v 5.42510986964235 -0.10090672305506566 -0.03811961842746811
v 4.756845722974667 0.1911804132997706 -0.09525441565774313
v 4.737955060231831 0.19671097103161894 0.15396949128601523
v 4.740967441658845 -0.05827722277921239 -0.09092221248368801
v 4.722076778916009 -0.05274666504736404 0.15830169446007036
vt 0.412109375 0.607421875
vt 0.43359375 0.607421875
vt 0.43359375 0.599609375
vt 0.412109375 0.599609375
vt 0.404296875 0.607421875
vt 0.412109375 0.607421875
vt 0.412109375 0.599609375
vt 0.404296875 0.599609375
vt 0.44140625 0.607421875
vt 0.462890625 0.607421875
vt 0.462890625 0.599609375
vt 0.44140625 0.599609375
vt 0.43359375 0.607421875
vt 0.44140625 0.607421875
vt 0.44140625 0.599609375
vt 0.43359375 0.599609375
vt 0.43359375 0.607421875
vt 0.412109375 0.607421875
vt 0.412109375 0.615234375
vt 0.43359375 0.615234375
vt 0.455078125 0.615234375
vt 0.43359375 0.615234375
vt 0.43359375 0.607421875
vt 0.455078125 0.607421875
vn 0.0755626509713416 -0.022122230927393266 -0.9968956277750336
vn 0.9951162588850979 -0.06200654585578668 0.07680377317268354
vn -0.0755626509713416 0.022122230927393266 0.9968956277750336
vn -0.9951162588850979 0.06200654585578668 -0.07680377317268354
vn 0.06351312526328698 0.9978305443159321 -0.01732881269622062
vn -0.06351312526328698 -0.9978305443159321 0.01732881269622062
usemtl m_8e91858c-80ea-c5fc-92f9-9d6cc5894e5d
f 268/796/199 271/795/199 269/794/199 266/793/199
f 267/800/200 268/799/200 266/798/200 265/797/200
f 272/804/201 267/803/201 265/802/201 270/801/201
f 271/808/202 272/807/202 270/806/202 269/805/202
f 270/812/203 265/811/203 266/810/203 269/809/203
f 271/816/204 268/815/204 267/814/204 272/813/204
o leg17
v 4.868485340161391 0.17674437601292525 0.256920631343842
v 4.940636344079396 0.23842338508865324 -0.10586709236392117
v 4.479959424278113 0.00599788656998812 0.15062152960740938
v 4.5521104281961176 0.0676768956457161 -0.2121661941003538
v 3.6880438229943606 2.956083170791681 0.10705839999059152
v 3.615892819076356 2.8944041617159524 0.4698461236983547
v 3.299517907111082 2.7853366813487437 0.00075929825415888
v 3.227366903193077 2.7236576722730153 0.36354702196192207
vt 0.25 0.953125
vt 0.34375 0.953125
vt 0.34375 0.939453125
vt 0.25 0.939453125
vt 0.23828125 0.953125
vt 0.25 0.953125
vt 0.25 0.939453125
vt 0.23828125 0.939453125
vt 0.35546875 0.953125
vt 0.44921875 0.953125
vt 0.44921875 0.939453125
vt 0.35546875 0.939453125
vt 0.34375 0.953125
vt 0.35546875 0.953125
vt 0.35546875 0.939453125
vt 0.34375 0.939453125
vt 0.34375 0.953125
vt 0.25 0.953125
vt 0.25 0.96484375
vt 0.34375 0.96484375
vt 0.4375 0.96484375
vt 0.34375 0.96484375
vt 0.34375 0.953125
vt 0.4375 0.953125
vn 0.19240267711467873 0.16447735753527462 -0.9674339298873686
vn 0.4175308403616784 -0.9058865952343425 -0.07097516411817087
vn -0.19240267711467873 -0.16447735753527462 0.9674339298873686
vn -0.4175308403616784 0.9058865952343425 0.07097516411817087
vn 0.8880592363046372 0.39027769015528446 0.24296937539756042
vn -0.8880592363046372 -0.39027769015528446 -0.24296937539756042
usemtl m_8e91858c-80ea-c5fc-92f9-9d6cc5894e5d
f 276/820/205 279/819/205 277/818/205 274/817/205
f 275/824/206 276/823/206 274/822/206 273/821/206
f 280/828/207 275/827/207 273/826/207 278/825/207
f 279/832/208 280/831/208 278/830/208 277/829/208
f 278/836/209 273/835/209 274/834/209 277/833/209
f 279/840/210 276/839/210 275/838/210 280/837/210
o leg16
v 3.4922236137255704 3.089392576366638 0.5048699234544469
v 3.52453915537786 3.11198038897832 0.006426850988654975
v 3.446375273078617 2.5921528097210813 0.47936415692620615
v 3.478690814730906 2.6147406223327634 -0.01907891553958574
v 0.5434771172117567 3.3961046342600345 -0.17396865296877556
v 0.5111615755594673 3.3735168216483524 0.3244744194970163
v 0.4976287765648029 2.8988648676144777 -0.1994744194970163
v 0.4653132349125135 2.8762770550027956 0.2989686529687756
vt 0.25 0.984375
vt 0.34375 0.984375
vt 0.34375 0.96875
vt 0.25 0.96875
vt 0.234375 0.984375
vt 0.25 0.984375
vt 0.25 0.96875
vt 0.234375 0.96875
vt 0.359375 0.984375
vt 0.453125 0.984375
vt 0.453125 0.96875
vt 0.359375 0.96875
vt 0.34375 0.984375
vt 0.359375 0.984375
vt 0.359375 0.96875
vt 0.34375 0.96875
vt 0.34375 0.984375
vt 0.25 0.984375
vt 0.25 1
vt 0.34375 1
vt 0.4375 1
vt 0.34375 1
vt 0.34375 0.984375
vt 0.4375 0.984375
vn 0.06463108330457892 0.04517562522336461 -0.9968861449315838
vn 0.9936873460553677 -0.09470808176057147 0.06013183465247684
vn -0.06463108330457892 -0.04517562522336461 0.9968861449315838
vn -0.9936873460553677 0.09470808176057147 -0.06013183465247684
vn 0.09169668129390769 0.9944795332911136 0.05101153305648148
vn -0.09169668129390769 -0.9944795332911136 -0.05101153305648148
usemtl m_8e91858c-80ea-c5fc-92f9-9d6cc5894e5d
f 284/844/211 287/843/211 285/842/211 282/841/211
f 283/848/212 284/847/212 282/846/212 281/845/212
f 288/852/213 283/851/213 281/850/213 286/849/213
f 287/856/214 288/855/214 286/854/214 285/853/214
f 286/860/215 281/859/215 282/858/215 285/857/215
f 287/864/216 284/863/216 283/862/216 288/861/216
o leg9
v -4.780370917519496 0.2807547017211525 0.15396949128601523
v -4.799356293387623 0.2755585771234548 -0.09525441565774313
v -4.768900028439441 0.031055581339498414 0.15830169446007036
v -4.787885404307569 0.02585945674180065 -0.09092221248368801
v -5.48414480449114 0.24501629296586905 -0.042451821601523235
v -5.465159428623013 0.2502124175635668 0.20677208534223512
v -5.472673915411085 -0.0046828274157850736 -0.03811961842746811
v -5.453688539542958 0.0005132971819126753 0.21110428851629026
vt 0.01953125 0.576171875
vt 0.041015625 0.576171875
vt 0.041015625 0.568359375
vt 0.01953125 0.568359375
vt 0.01171875 0.576171875
vt 0.01953125 0.576171875
vt 0.01953125 0.568359375
vt 0.01171875 0.568359375
vt 0.048828125 0.576171875
vt 0.0703125 0.576171875
vt 0.0703125 0.568359375
vt 0.048828125 0.568359375
vt 0.041015625 0.576171875
vt 0.048828125 0.576171875
vt 0.048828125 0.568359375
vt 0.041015625 0.568359375
vt 0.041015625 0.576171875
vt 0.01953125 0.576171875
vt 0.01953125 0.583984375
vt 0.041015625 0.583984375
vt 0.0625 0.583984375
vt 0.041015625 0.583984375
vt 0.041015625 0.576171875
vt 0.0625 0.576171875
vn -0.0759415034725078 -0.020784498390791002 -0.9968956277750337
vn 0.9960560161505699 0.044425140592852 -0.07680377317268357
vn 0.0759415034725078 0.020784498390791002 0.9968956277750337
vn -0.9960560161505699 -0.044425140592852 0.07680377317268357
vn -0.04588355632021959 0.9987964815266165 -0.017328812696220577
vn 0.04588355632021959 -0.9987964815266165 0.017328812696220577
usemtl m_8e91858c-80ea-c5fc-92f9-9d6cc5894e5d
f 292/868/217 295/867/217 293/866/217 290/865/217
f 291/872/218 292/871/218 290/870/218 289/869/218
f 296/876/219 291/875/219 289/874/219 294/873/219
f 295/880/220 296/879/220 294/878/220 293/877/220
f 294/884/221 289/883/221 290/882/221 293/881/221
f 295/888/222 292/887/222 291/886/222 296/885/222
o leg8
v -3.6108478241109805 2.9582139372793055 0.4698461236983547
v -3.6818984522920157 3.021157370312625 0.10705839999059152
v -3.2253975220932243 2.780633488906046 0.36354702196192207
v -3.2964481502742595 2.8435769219393654 0.00075929825415888
v -4.982284043734083 0.32603955317077427 -0.10586709236392117
v -4.911233415553048 0.26309612013745465 0.256920631343842
v -4.596833741716327 0.14845910479751456 -0.2121661941003538
v -4.525783113535292 0.08551567176419494 0.15062152960740938
vt 0.01171875 0.708984375
vt 0.10546875 0.708984375
vt 0.10546875 0.6953125
vt 0.01171875 0.6953125
vt 0 0.708984375
vt 0.01171875 0.708984375
vt 0.01171875 0.6953125
vt 0 0.6953125
vt 0.1171875 0.708984375
vt 0.2109375 0.708984375
vt 0.2109375 0.6953125
vt 0.1171875 0.6953125
vt 0.10546875 0.708984375
vt 0.1171875 0.708984375
vt 0.1171875 0.6953125
vt 0.10546875 0.6953125
vt 0.10546875 0.708984375
vt 0.01171875 0.708984375
vt 0.01171875 0.720703125
vt 0.10546875 0.720703125
vt 0.19921875 0.720703125
vt 0.10546875 0.720703125
vt 0.10546875 0.708984375
vt 0.19921875 0.708984375
vn -0.1894683418160932 0.16784915475551834 -0.9674339298873686
vn 0.4334618638140226 0.8983726057139503 0.07097516411817091
vn 0.1894683418160932 -0.16784915475551834 0.9674339298873686
vn -0.4334618638140226 -0.8983726057139503 -0.07097516411817091
vn -0.8810292617548717 0.4058981677103083 0.24296937539756044
vn 0.8810292617548717 -0.4058981677103083 -0.24296937539756044
usemtl m_8e91858c-80ea-c5fc-92f9-9d6cc5894e5d
f 300/892/223 303/891/223 301/890/223 298/889/223
f 299/896/224 300/895/224 298/894/224 297/893/224
f 304/900/225 299/899/225 297/898/225 302/897/225
f 303/904/226 304/903/226 302/902/226 301/901/226
f 302/908/227 297/907/227 298/906/227 301/905/227
f 303/912/228 300/911/228 299/910/228 304/909/228
o leg7
v -0.49814049309145986 3.38242863150235 0.3244744194970163
v -0.5300521412723552 3.4055835493653026 -0.17396865296877556
v -0.4610795479904746 2.8844568027589674 0.2989686529687756
v -0.49299119617137005 2.90761172062192 -0.1994744194970163
v -3.515666448263401 3.1741431206534503 0.006426850988654975
v -3.4837548000825054 3.1509882027904976 0.5048699234544469
v -3.4786055031624157 2.6761712919100678 -0.01907891553958574
v -3.44669385498152 2.653016374047115 0.47936415692620615
vt 0.25 0.921875
vt 0.34375 0.921875
vt 0.34375 0.90625
vt 0.25 0.90625
vt 0.234375 0.921875
vt 0.25 0.921875
vt 0.25 0.90625
vt 0.234375 0.90625
vt 0.359375 0.921875
vt 0.453125 0.921875
vt 0.453125 0.90625
vt 0.359375 0.90625
vt 0.34375 0.921875
vt 0.359375 0.921875
vt 0.359375 0.90625
vt 0.34375 0.90625
vt 0.34375 0.921875
vt 0.25 0.921875
vt 0.25 0.9375
vt 0.34375 0.9375
vt 0.4375 0.9375
vt 0.34375 0.9375
vt 0.34375 0.921875
vt 0.4375 0.921875
vn -0.06382329636179082 0.04630983572590531 -0.9968861449315838
vn 0.995204768997015 0.07714680957061754 -0.060131834652476845
vn 0.06382329636179082 -0.04630983572590531 0.9968861449315838
vn -0.995204768997015 -0.07714680957061754 0.060131834652476845
vn -0.07412189020197041 0.9959436574867649 0.05101153305648147
vn 0.07412189020197041 -0.9959436574867649 -0.05101153305648147
usemtl m_8e91858c-80ea-c5fc-92f9-9d6cc5894e5d
f 308/916/229 311/915/229 309/914/229 306/913/229
f 307/920/230 308/919/230 306/918/230 305/917/230
f 312/924/231 307/923/231 305/922/231 310/921/231
f 311/928/232 312/927/232 310/926/232 309/925/232
f 310/932/233 305/931/233 306/930/233 309/929/233
f 311/936/234 308/935/234 307/934/234 312/933/234
o leg15
v 4.883467043537856 0.25373784732513494 -2.8827855665455497
v 4.785967859103372 0.2652625292022991 -3.112700965643219
v 4.880735471671971 0.004010990569881301 -2.8941449472629377
v 4.783236287237487 0.015535672447045512 -3.124060346360607
v 4.152951264064192 0.2599880300832086 -2.84452486666338
v 4.250450448498676 0.24846334820604443 -2.6146094675657108
v 4.1502196921983066 0.010261173327954953 -2.855884247380768
v 4.247718876632791 -0.001263508549209258 -2.6259688482830987
vt 0.130859375 0.576171875
vt 0.15234375 0.576171875
vt 0.15234375 0.568359375
vt 0.130859375 0.568359375
vt 0.123046875 0.576171875
vt 0.130859375 0.576171875
vt 0.130859375 0.568359375
vt 0.123046875 0.568359375
vt 0.16015625 0.576171875
vt 0.181640625 0.576171875
vt 0.181640625 0.568359375
vt 0.16015625 0.568359375
vt 0.15234375 0.576171875
vt 0.16015625 0.576171875
vt 0.16015625 0.568359375
vt 0.15234375 0.568359375
vt 0.15234375 0.576171875
vt 0.130859375 0.576171875
vt 0.130859375 0.583984375
vt 0.15234375 0.583984375
vt 0.173828125 0.583984375
vt 0.15234375 0.583984375
vt 0.15234375 0.576171875
vt 0.173828125 0.576171875
vn -0.38999673773793847 0.046098727508656755 -0.919661596390677
vn 0.9207514109660815 0.007671998718677157 -0.39007432578885626
vn 0.38999673773793847 -0.046098727508656755 0.919661596390677
vn -0.9207514109660815 -0.007671998718677157 0.39007432578885626
vn 0.010926287463537654 0.9989074270210145 0.04543752286955034
vn -0.010926287463537654 -0.9989074270210145 -0.04543752286955034
usemtl m_8e91858c-80ea-c5fc-92f9-9d6cc5894e5d
f 316/940/235 319/939/235 317/938/235 314/937/235
f 315/944/236 316/943/236 314/942/236 313/941/236
f 320/948/237 315/947/237 313/946/237 318/945/237
f 319/952/238 320/951/238 318/950/238 317/949/238
f 318/956/239 313/955/239 314/954/239 317/953/239
f 319/960/240 316/959/240 315/958/240 320/957/240
o leg14
v 4.4425029499524085 0.2630632312279655 -2.649231328713133
v 4.2593788634048355 0.2784699371485644 -2.9761154096023574
v 4.092682748770535 0.07879380968557781 -2.461943162697477
v 3.9095586622229623 0.0942005156061767 -2.788827243586702
v 3.2107069219070326 2.996598015093384 -2.260526902844997
v 3.3938310084546055 2.981191309172785 -1.933642821955772
v 2.86088672072516 2.8123285935509963 -2.073238736829341
v 3.0440108072727323 2.7969218876303974 -1.7463546559401164
vt 0.015625 0.673828125
vt 0.109375 0.673828125
vt 0.109375 0.66015625
vt 0.015625 0.66015625
vt 0.00390625 0.673828125
vt 0.015625 0.673828125
vt 0.015625 0.66015625
vt 0.00390625 0.66015625
vt 0.12109375 0.673828125
vt 0.21484375 0.673828125
vt 0.21484375 0.66015625
vt 0.12109375 0.66015625
vt 0.109375 0.673828125
vt 0.12109375 0.673828125
vt 0.12109375 0.66015625
vt 0.109375 0.66015625
vt 0.109375 0.673828125
vt 0.015625 0.673828125
vt 0.015625 0.685546875
vt 0.109375 0.685546875
vt 0.203125 0.685546875
vt 0.109375 0.685546875
vt 0.109375 0.673828125
vt 0.203125 0.673828125
vn -0.48833089746019387 0.0410845491215966 -0.8716908823712665
vn 0.3495573138326009 -0.9060426926482732 -0.23852950225245365
vn 0.48833089746019387 -0.0410845491215966 0.8716908823712665
vn -0.3495573138326009 0.9060426926482732 0.23852950225245365
vn 0.7995890312728522 0.42118724923974354 -0.428087236607213
vn -0.7995890312728522 -0.42118724923974354 0.428087236607213
usemtl m_8e91858c-80ea-c5fc-92f9-9d6cc5894e5d
f 324/964/241 327/963/241 325/962/241 322/961/241
f 323/968/242 324/967/242 322/966/242 321/965/242
f 328/972/243 323/971/243 321/970/243 326/969/243
f 327/976/244 328/975/244 326/974/244 325/973/244
f 326/980/245 321/979/245 322/978/245 325/977/245
f 327/984/246 324/983/246 323/982/246 328/981/246
o leg13
v 3.2649052661153615 3.200570814686845 -1.8499241862948055
v 3.0300902387159017 3.1094520505577274 -2.2818492651348437
v 3.274601804918417 2.7103920552435383 -1.7517877459382203
v 3.039786777518957 2.6192732911144208 -2.1837128247782585
v 0.3821393929608776 3.33572084228851 -0.8900307595983117
v 0.6169544203603374 3.4268396064176274 -0.4581056807582734
v 0.3918359317639329 2.8455420828452027 -0.7918943192417265
v 0.6266509591633926 2.9366608469743203 -0.3599692404016883
vt 0.234375 0.705078125
vt 0.328125 0.705078125
vt 0.328125 0.689453125
vt 0.234375 0.689453125
vt 0.21875 0.705078125
vt 0.234375 0.705078125
vt 0.234375 0.689453125
vt 0.21875 0.689453125
vt 0.34375 0.705078125
vt 0.4375 0.705078125
vt 0.4375 0.689453125
vt 0.34375 0.689453125
vt 0.328125 0.705078125
vt 0.34375 0.705078125
vt 0.34375 0.689453125
vt 0.328125 0.689453125
vt 0.328125 0.705078125
vt 0.234375 0.705078125
vt 0.234375 0.720703125
vt 0.328125 0.720703125
vt 0.421875 0.720703125
vt 0.328125 0.720703125
vt 0.328125 0.705078125
vt 0.421875 0.705078125
vn -0.46963005479891945 -0.18223752825823497 -0.8638501576800767
vn 0.8826502819183413 -0.07542293057692745 -0.46393950184551075
vn 0.46963005479891945 0.18223752825823497 0.8638501576800767
vn -0.8826502819183413 0.07542293057692745 0.46393950184551075
vn -0.019393077606110493 0.9803575188866138 -0.19627288071317034
vn 0.019393077606110493 -0.9803575188866138 0.19627288071317034
usemtl m_8e91858c-80ea-c5fc-92f9-9d6cc5894e5d
f 332/988/247 335/987/247 333/986/247 330/985/247
f 331/992/248 332/991/248 330/990/248 329/989/248
f 336/996/249 331/995/249 329/994/249 334/993/249
f 335/1000/250 336/999/250 334/998/250 333/997/250
f 334/1004/251 329/1003/251 330/1002/251 333/1001/251
f 335/1008/252 332/1007/252 331/1006/252 336/1005/252
o leg6
v -4.2920284725130715 0.32389066594413096 -2.6146094675657108
v -4.194340987045507 0.33369191284357125 -2.84452486666338
v -4.293706997016285 0.0741545111222679 -2.6259688482830987
v -4.19601951154872 0.08395575802170818 -2.855884247380768
v -4.827165748845747 0.3501433805113917 -3.112700965643219
v -4.924853234313312 0.3403421336119514 -2.8827855665455497
v -4.8288442733489605 0.10040722568952876 -3.124060346360607
v -4.926531758816525 0.09060597879008836 -2.8941449472629377
vt 0.40234375 0.576171875
vt 0.423828125 0.576171875
vt 0.423828125 0.568359375
vt 0.40234375 0.568359375
vt 0.39453125 0.576171875
vt 0.40234375 0.576171875
vt 0.40234375 0.568359375
vt 0.39453125 0.568359375
vt 0.431640625 0.576171875
vt 0.453125 0.576171875
vt 0.453125 0.568359375
vt 0.431640625 0.568359375
vt 0.423828125 0.576171875
vt 0.431640625 0.576171875
vt 0.431640625 0.568359375
vt 0.423828125 0.568359375
vt 0.423828125 0.576171875
vt 0.40234375 0.576171875
vt 0.40234375 0.583984375
vt 0.423828125 0.583984375
vt 0.4453125 0.583984375
vt 0.423828125 0.583984375
vt 0.423828125 0.576171875
vt 0.4453125 0.576171875
vn 0.39074994187025935 0.03920498759776109 -0.9196615963906769
vn 0.920472380800349 -0.023929407516829943 0.3900743257888562
vn -0.39074994187025935 -0.03920498759776109 0.9196615963906769
vn -0.920472380800349 0.023929407516829943 -0.3900743257888562
vn 0.006714098012853649 0.9989446192874523 0.04543752286955036
vn -0.006714098012853649 -0.9989446192874523 -0.04543752286955036
usemtl m_8e91858c-80ea-c5fc-92f9-9d6cc5894e5d
f 340/1012/253 343/1011/253 341/1010/253 338/1009/253
f 339/1016/254 340/1015/254 338/1014/254 337/1013/254
f 344/1020/255 339/1019/255 337/1018/255 342/1017/255
f 343/1024/256 344/1023/256 342/1022/256 341/1021/256
f 342/1028/257 337/1027/257 338/1026/257 341/1025/257
f 343/1032/258 340/1031/258 339/1030/258 344/1029/258
o leg5
v -3.3872881508357975 3.0410663915905536 -1.933642821955772
v -3.203920564710428 3.053237094929387 -2.260526902844997
v -3.0407763163401107 2.8506485840595186 -1.7463546559401164
v -2.8574087302147415 2.862819287398353 -2.073238736829341
v -4.30042563976913 0.35405023415681725 -2.9761154096023574
v -4.483793225894499 0.34187953081798317 -2.649231328713133
v -3.953913805273443 0.1636324266257827 -2.788827243586702
v -4.137281391398813 0.15146172328694862 -2.461943162697477
vt 0.015625 0.640625
vt 0.109375 0.640625
vt 0.109375 0.626953125
vt 0.015625 0.626953125
vt 0.00390625 0.640625
vt 0.015625 0.640625
vt 0.015625 0.626953125
vt 0.00390625 0.626953125
vt 0.12109375 0.640625
vt 0.21484375 0.640625
vt 0.21484375 0.626953125
vt 0.12109375 0.626953125
vt 0.109375 0.640625
vt 0.12109375 0.640625
vt 0.12109375 0.626953125
vt 0.109375 0.626953125
vt 0.109375 0.640625
vt 0.015625 0.640625
vt 0.015625 0.65234375
vt 0.109375 0.65234375
vt 0.203125 0.65234375
vt 0.109375 0.65234375
vt 0.109375 0.640625
vt 0.203125 0.640625
vn 0.4889802296676521 0.03245520890355728 -0.8716908823712664
vn 0.3655016916862339 0.8997289535908567 0.23852950225245367
vn -0.4889802296676521 -0.03245520890355728 0.8716908823712664
vn -0.3655016916862339 -0.8997289535908567 -0.23852950225245367
vn -0.7920270502758548 0.43524070292807926 -0.428087236607213
vn 0.7920270502758548 -0.43524070292807926 0.428087236607213
usemtl m_8e91858c-80ea-c5fc-92f9-9d6cc5894e5d
f 348/1036/259 351/1035/259 349/1034/259 346/1033/259
f 347/1040/260 348/1039/260 346/1038/260 345/1037/260
f 352/1044/261 347/1043/261 345/1042/261 350/1041/261
f 351/1048/262 352/1047/262 350/1046/262 349/1045/262
f 350/1052/263 345/1051/263 346/1050/263 349/1049/263
f 351/1056/264 348/1055/264 347/1054/264 352/1053/264
o leg4
v -0.6029752709111346 3.437611189852891 -0.4581056807582734
v -0.3698058273227915 3.3423602746566092 -0.8900307595983117
v -0.6213258619400384 2.9476800774676613 -0.3599692404016883
v -0.38815641835169534 2.8524291622713798 -0.7918943192417265
v -3.0213392685377665 3.162884210055429 -2.2818492651348437
v -3.254508712126109 3.258135125251711 -1.8499241862948055
v -3.0396898595666704 2.6729530976701996 -2.1837128247782585
v -3.272859303155013 2.7682040128664815 -1.7517877459382203
vt 0.234375 0.673828125
vt 0.328125 0.673828125
vt 0.328125 0.658203125
vt 0.234375 0.658203125
vt 0.21875 0.673828125
vt 0.234375 0.673828125
vt 0.234375 0.658203125
vt 0.21875 0.658203125
vt 0.34375 0.673828125
vt 0.4375 0.673828125
vt 0.4375 0.658203125
vt 0.34375 0.658203125
vt 0.328125 0.673828125
vt 0.34375 0.673828125
vt 0.34375 0.658203125
vt 0.328125 0.658203125
vt 0.328125 0.673828125
vt 0.234375 0.673828125
vt 0.234375 0.689453125
vt 0.328125 0.689453125
vt 0.421875 0.689453125
vt 0.328125 0.689453125
vt 0.328125 0.673828125
vt 0.421875 0.673828125
vn 0.4663388871766861 -0.19050183039256358 -0.8638501576800764
vn 0.8838444804049916 0.05982535486705996 0.4639395018455107
vn -0.4663388871766861 0.19050183039256358 0.8638501576800764
vn -0.8838444804049916 -0.05982535486705996 -0.4639395018455107
vn 0.03670118205780764 0.979862224770459 -0.19627288071317034
vn -0.03670118205780764 -0.979862224770459 0.19627288071317034
usemtl m_8e91858c-80ea-c5fc-92f9-9d6cc5894e5d
f 356/1060/265 359/1059/265 357/1058/265 354/1057/265
f 355/1064/266 356/1063/266 354/1062/266 353/1061/266
f 360/1068/267 355/1067/267 353/1066/267 358/1065/267
f 359/1072/268 360/1071/268 358/1070/268 357/1069/268
f 358/1076/269 353/1075/269 354/1074/269 357/1073/269
f 359/1080/270 356/1079/270 355/1078/270 360/1077/270
o leg12
v 4.867261678834253 0.11015482274708184 2.9920665775193833
v 4.959249246099709 0.09431474314997362 2.7601455147697047
v 4.843541191630389 -0.1386018006676048 2.999648186460437
v 4.935528758895845 -0.154441880264713 2.7677271237107584
v 4.323317314767692 0.14715727837693507 2.504304753390449
v 4.231329747502235 0.1629973579740433 2.7362258161401276
v 4.299596827563828 -0.10159934503775155 2.5118863623315026
v 4.207609260298371 -0.08575926544064333 2.7438074250811813
vt 0.029296875 0.544921875
vt 0.05078125 0.544921875
vt 0.05078125 0.537109375
vt 0.029296875 0.537109375
vt 0.021484375 0.544921875
vt 0.029296875 0.544921875
vt 0.029296875 0.537109375
vt 0.021484375 0.537109375
vt 0.05859375 0.544921875
vt 0.080078125 0.544921875
vt 0.080078125 0.537109375
vt 0.05859375 0.537109375
vt 0.05078125 0.544921875
vt 0.05859375 0.544921875
vt 0.05859375 0.537109375
vt 0.05078125 0.537109375
vt 0.05078125 0.544921875
vt 0.029296875 0.544921875
vt 0.029296875 0.552734375
vt 0.05078125 0.552734375
vt 0.072265625 0.552734375
vt 0.05078125 0.552734375
vt 0.05078125 0.544921875
vt 0.072265625 0.544921875
vn 0.3679502690618273 -0.06336031838843284 -0.9276842509987143
vn 0.9249919001192984 -0.07686186942103497 0.3721320165516448
vn -0.3679502690618273 0.06336031838843284 0.9276842509987143
vn -0.9249919001192984 0.07686186942103497 -0.3721320165516448
vn 0.09488194881545547 0.995026493658747 -0.030326435764215457
vn -0.09488194881545547 -0.995026493658747 0.030326435764215457
usemtl m_8e91858c-80ea-c5fc-92f9-9d6cc5894e5d
f 364/1084/271 367/1083/271 365/1082/271 362/1081/271
f 363/1088/272 364/1087/272 362/1086/272 361/1085/272
f 368/1092/273 363/1091/273 361/1090/273 366/1089/273
f 367/1096/274 368/1095/274 366/1094/274 365/1093/274
f 366/1100/275 361/1099/275 362/1098/275 365/1097/275
f 367/1104/276 364/1103/276 363/1102/276 368/1101/276
o leg11
v 4.355925695579326 0.1912983485034998 2.8491916545653053
v 4.49209049623584 0.15722164449156995 2.50145191667811
v 3.976352117989024 0.018103762722869954 2.71753382285152
v 4.112516918645539 -0.015972941289059905 2.369794084964325
v 3.4728415837663666 2.8986155423719415 1.8337011015576348
v 3.3366767831098523 2.932692246383871 2.1814408394448295
v 3.093268006176065 2.7254209565913117 1.7020432698438492
v 2.9571032055195507 2.759497660603241 2.0497830077310444
vt 0.37109375 0.7890625
vt 0.46484375 0.7890625
vt 0.46484375 0.775390625
vt 0.37109375 0.775390625
vt 0.359375 0.7890625
vt 0.37109375 0.7890625
vt 0.37109375 0.775390625
vt 0.359375 0.775390625
vt 0.4765625 0.7890625
vt 0.5703125 0.7890625
vt 0.5703125 0.775390625
vt 0.4765625 0.775390625
vt 0.46484375 0.7890625
vt 0.4765625 0.7890625
vt 0.4765625 0.775390625
vt 0.46484375 0.775390625
vt 0.46484375 0.7890625
vt 0.37109375 0.7890625
vt 0.37109375 0.80078125
vt 0.46484375 0.80078125
vt 0.55859375 0.80078125
vt 0.46484375 0.80078125
vt 0.46484375 0.7890625
vt 0.55859375 0.7890625
vn 0.36310613508403855 -0.09087121069847953 -0.9273059676991865
vn 0.3397496374898244 -0.913797965960124 0.22258360504015867
vn -0.36310613508403855 0.09087121069847953 0.9273059676991865
vn -0.3397496374898244 0.913797965960124 -0.22258360504015867
vn 0.8675967487778322 0.3958733389271536 0.3009321867743666
vn -0.8675967487778322 -0.3958733389271536 -0.3009321867743666
usemtl m_8e91858c-80ea-c5fc-92f9-9d6cc5894e5d
f 372/1108/277 375/1107/277 373/1106/277 370/1105/277
f 371/1112/278 372/1111/278 370/1110/278 369/1109/278
f 376/1116/279 371/1115/279 369/1114/279 374/1113/279
f 375/1120/280 376/1119/280 374/1118/280 373/1117/280
f 374/1124/281 369/1123/281 370/1122/281 373/1121/281
f 375/1128/282 372/1127/282 371/1126/282 376/1125/282
o leg10
v 3.163298184124935 3.0780218362902505 2.1824284136330157
v 3.36335321253703 3.0958877941935574 1.7245432826719487
v 3.1248986950129116 2.5808129564592908 2.146250947536318
v 3.3249537234250064 2.5986789143625972 1.688365816575251
v 0.6236224348241941 3.3937282634985486 0.5391461675678154
v 0.42356740641209956 3.3758623055952417 0.9970312985288822
v 0.5852229457121707 2.8965193836675884 0.5029687014711178
v 0.38516791730007616 2.878653425764282 0.9608538324321848
vt 0.234375 0.642578125
vt 0.328125 0.642578125
vt 0.328125 0.626953125
vt 0.234375 0.626953125
vt 0.21875 0.642578125
vt 0.234375 0.642578125
vt 0.234375 0.626953125
vt 0.21875 0.626953125
vt 0.34375 0.642578125
vt 0.4375 0.642578125
vt 0.4375 0.626953125
vt 0.34375 0.626953125
vt 0.328125 0.642578125
vt 0.34375 0.642578125
vt 0.34375 0.626953125
vt 0.328125 0.626953125
vt 0.328125 0.642578125
vt 0.234375 0.642578125
vt 0.234375 0.658203125
vt 0.328125 0.658203125
vt 0.421875 0.658203125
vt 0.328125 0.658203125
vt 0.328125 0.642578125
vt 0.421875 0.642578125
vn 0.4001100568241889 0.03573191580661326 -0.9157702619221337
vn 0.9132435925709452 -0.09928015643499712 0.3951323717013778
vn -0.4001100568241889 -0.03573191580661326 0.9157702619221337
vn -0.9132435925709452 0.09928015643499712 -0.3951323717013778
vn 0.07679897822404667 0.9944177596619198 0.07235493219339509
vn -0.07679897822404667 -0.9944177596619198 -0.07235493219339509
usemtl m_8e91858c-80ea-c5fc-92f9-9d6cc5894e5d
f 380/1132/283 383/1131/283 381/1130/283 378/1129/283
f 379/1136/284 380/1135/284 378/1134/284 377/1133/284
f 384/1140/285 379/1139/285 377/1138/285 382/1137/285
f 383/1144/286 384/1143/286 382/1142/286 381/1141/286
f 382/1148/287 377/1147/287 378/1146/287 381/1145/287
f 383/1152/288 380/1151/288 379/1150/288 384/1149/288
o leg3
v -4.274419908984649 0.23810036822115183 2.7362258161401276
v -4.366672837805561 0.22388707243785522 2.504304753390449
v -4.25509565826393 -0.011036326265926294 2.7438074250811813
v -4.347348587084842 -0.02524962204922289 2.5118863623315026
v -5.003438710469115 0.1822820459638178 2.7601455147697047
v -4.911185781648204 0.19649534174711442 2.9920665775193833
v -4.984114459748396 -0.0668546485232603 2.7677271237107584
v -4.891861530927484 -0.05264135273996369 2.999648186460437
vt 0.12109375 0.544921875
vt 0.142578125 0.544921875
vt 0.142578125 0.537109375
vt 0.12109375 0.537109375
vt 0.11328125 0.544921875
vt 0.12109375 0.544921875
vt 0.12109375 0.537109375
vt 0.11328125 0.537109375
vt 0.150390625 0.544921875
vt 0.171875 0.544921875
vt 0.171875 0.537109375
vt 0.150390625 0.537109375
vt 0.142578125 0.544921875
vt 0.150390625 0.544921875
vt 0.150390625 0.537109375
vt 0.142578125 0.537109375
vt 0.142578125 0.544921875
vt 0.12109375 0.544921875
vt 0.12109375 0.552734375
vt 0.142578125 0.552734375
vt 0.1640625 0.552734375
vt 0.142578125 0.552734375
vt 0.142578125 0.544921875
vt 0.1640625 0.544921875
vn -0.36901171528364674 -0.0568531831331862 -0.9276842509987142
vn 0.9262049056924422 0.06051640214405451 -0.37213201655164474
vn 0.36901171528364674 0.0568531831331862 0.9276842509987142
vn -0.9262049056924422 -0.06051640214405451 0.37213201655164474
vn -0.0772970028828767 0.9965467779483126 -0.03032643576421555
vn 0.0772970028828767 -0.9965467779483126 0.03032643576421555
usemtl m_8e91858c-80ea-c5fc-92f9-9d6cc5894e5d
f 388/1156/289 391/1155/289 389/1154/289 386/1153/289
f 387/1160/290 388/1159/290 386/1158/290 385/1157/290
f 392/1164/291 387/1163/291 385/1162/291 390/1161/291
f 391/1168/292 392/1167/292 390/1166/292 389/1165/292
f 390/1172/293 385/1171/293 386/1170/293 389/1169/293
f 391/1176/294 388/1175/294 387/1174/294 392/1173/294
o leg2
v -3.330999231861516 2.99156566263765 2.1814408394448295
v -3.4677445280656505 2.9598986662504254 1.8337011015576348
v -2.95454310076299 2.81169557978129 2.0497830077310444
v -3.0912883969671245 2.7800285833940652 1.7020432698438492
v -4.535241988819725 0.23693006191626131 2.50145191667811
v -4.39849669261559 0.26859705830348646 2.8491916545653053
v -4.158785857721199 0.05705997905990112 2.369794084964325
v -4.0220405615170645 0.08872697544712627 2.71753382285152
vt 0.015625 0.609375
vt 0.109375 0.609375
vt 0.109375 0.595703125
vt 0.015625 0.595703125
vt 0.00390625 0.609375
vt 0.015625 0.609375
vt 0.015625 0.595703125
vt 0.00390625 0.595703125
vt 0.12109375 0.609375
vt 0.21484375 0.609375
vt 0.21484375 0.595703125
vt 0.12109375 0.595703125
vt 0.109375 0.609375
vt 0.12109375 0.609375
vt 0.12109375 0.595703125
vt 0.109375 0.595703125
vt 0.109375 0.609375
vt 0.015625 0.609375
vt 0.015625 0.62109375
vt 0.109375 0.62109375
vt 0.203125 0.62109375
vt 0.109375 0.62109375
vt 0.109375 0.609375
vt 0.203125 0.609375
vn -0.3646541232110251 -0.08444532369926733 -0.9273059676991864
vn 0.3558324869180246 0.9076562014447214 -0.2225836050401587
vn 0.3646541232110251 0.08444532369926733 0.9273059676991864
vn -0.3558324869180246 -0.9076562014447214 0.2225836050401587
vn -0.860471156796631 0.41113161795739517 0.30093218677436656
vn 0.860471156796631 -0.41113161795739517 -0.30093218677436656
usemtl m_8e91858c-80ea-c5fc-92f9-9d6cc5894e5d
f 396/1180/295 399/1179/295 397/1178/295 394/1177/295
f 395/1184/296 396/1183/296 394/1182/296 393/1181/296
f 400/1188/297 395/1187/297 393/1186/297 398/1185/297
f 399/1192/298 400/1191/298 398/1190/298 397/1189/298
f 398/1196/299 393/1195/299 394/1194/299 397/1193/299
f 399/1200/300 396/1199/300 395/1198/300 400/1197/300
o leg1
v -0.41051856462194714 3.383227014146447 0.9970312985288822
v -0.6102269249871545 3.404622753091553 0.5391461675678154
v -0.3809047642756754 2.885417599032717 0.9608538324321848
v -0.5806131246408828 2.9068133379778236 0.5029687014711178
v -3.354789799226784 3.15520681765779 1.7245432826719487
v -3.1550814388615764 3.133811078712684 2.1824284136330157
v -3.3251759988805123 2.6573974025440608 1.688365816575251
v -3.125467638515305 2.6360016635989547 2.146250947536318
vt 0.37109375 0.7578125
vt 0.46484375 0.7578125
vt 0.46484375 0.7421875
vt 0.37109375 0.7421875
vt 0.35546875 0.7578125
vt 0.37109375 0.7578125
vt 0.37109375 0.7421875
vt 0.35546875 0.7421875
vt 0.48046875 0.7578125
vt 0.57421875 0.7578125
vt 0.57421875 0.7421875
vt 0.48046875 0.7421875
vt 0.46484375 0.7578125
vt 0.48046875 0.7578125
vt 0.48046875 0.7421875
vt 0.46484375 0.7421875
vt 0.46484375 0.7578125
vt 0.37109375 0.7578125
vt 0.37109375 0.7734375
vt 0.46484375 0.7734375
vt 0.55859375 0.7734375
vt 0.46484375 0.7734375
vt 0.46484375 0.7578125
vt 0.55859375 0.7578125
vn -0.3994167207304147 0.042791477890212405 -0.9157702619221338
vn 0.91485429141321 0.08313864514458756 -0.39513237170137777
vn 0.3994167207304147 -0.042791477890212405 0.9157702619221338
vn -0.91485429141321 -0.08313864514458756 0.39513237170137777
vn -0.05922760069254358 0.9956188302274591 0.0723549321933951
vn 0.05922760069254358 -0.9956188302274591 -0.0723549321933951
usemtl m_8e91858c-80ea-c5fc-92f9-9d6cc5894e5d
f 404/1204/301 407/1203/301 405/1202/301 402/1201/301
f 403/1208/302 404/1207/302 402/1206/302 401/1205/302
f 408/1212/303 403/1211/303 401/1210/303 406/1209/303
f 407/1216/304 408/1215/304 406/1214/304 405/1213/304
f 406/1220/305 401/1219/305 402/1218/305 405/1217/305
f 407/1224/306 404/1223/306 403/1222/306 408/1221/306
o all
v 0.5088098417774952 3.63617135497819 1
v 0.5088098417774952 3.63617135497819 -1
v 0.49998051034677504 2.6362103342846397 1
v 0.49998051034677504 2.6362103342846397 -1
v -0.49115117891605486 3.64500068640891 -1
v -0.49115117891605486 3.64500068640891 1
v -0.49998051034677504 2.6450396657153603 -1
v -0.49998051034677504 2.6450396657153603 1
vt 0.0625 0.822265625
vt 0.09375 0.822265625
vt 0.09375 0.791015625
vt 0.0625 0.791015625
vt 0 0.822265625
vt 0.0625 0.822265625
vt 0.0625 0.791015625
vt 0 0.791015625
vt 0.15625 0.822265625
vt 0.1875 0.822265625
vt 0.1875 0.791015625
vt 0.15625 0.791015625
vt 0.09375 0.822265625
vt 0.15625 0.822265625
vt 0.15625 0.791015625
vt 0.09375 0.791015625
vt 0.09375 0.822265625
vt 0.0625 0.822265625
vt 0.0625 0.884765625
vt 0.09375 0.884765625
vt 0.125 0.884765625
vt 0.09375 0.884765625
vt 0.09375 0.822265625
vt 0.125 0.822265625
vn 0 0 -1
vn 0.9999610206935501 -0.008829331430720198 0
vn 0 0 1
vn -0.9999610206935501 0.008829331430720198 0
vn 0.008829331430720198 0.9999610206935501 0
vn -0.008829331430720198 -0.9999610206935501 0
usemtl m_8e91858c-80ea-c5fc-92f9-9d6cc5894e5d
f 412/1228/307 415/1227/307 413/1226/307 410/1225/307
f 411/1232/308 412/1231/308 410/1230/308 409/1229/308
f 416/1236/309 411/1235/309 409/1234/309 414/1233/309
f 415/1240/310 416/1239/310 414/1238/310 413/1237/310
f 414/1244/311 409/1243/311 410/1242/311 413/1241/311
f 415/1248/312 412/1247/312 411/1246/312 416/1245/312